SplineFontDB: 3.0
FontName: Pompiere
FullName: Pompiere 
FamilyName: Pompiere 
Weight: Book
Copyright: Copyright (c) 2011, Sorkin Type Co (www.sorkintype.com)\nwith Reserved Font Name "Pompiere".
Version: 1.002
ItalicAngle: 0
UnderlinePosition: -163
UnderlineWidth: 76
Ascent: 1638
Descent: 410
sfntRevision: 0x00010083
LayerCount: 2
Layer: 0 1 "Back"  1
Layer: 1 1 "Fore"  0
XUID: [1021 288 713564382 9224913]
FSType: 0
OS2Version: 3
OS2_WeightWidthSlopeOnly: 0
OS2_UseTypoMetrics: 1
CreationTime: 1309474020
ModificationTime: 1310735711
PfmFamily: 17
TTFWeight: 400
TTFWidth: 5
LineGap: 0
VLineGap: 0
Panose: 2 0 0 0 0 0 0 0 0 0
OS2TypoAscent: 281
OS2TypoAOffset: 1
OS2TypoDescent: -133
OS2TypoDOffset: 1
OS2TypoLinegap: 0
OS2WinAscent: 0
OS2WinAOffset: 1
OS2WinDescent: 0
OS2WinDOffset: 1
HheadAscent: 0
HheadAOffset: 1
HheadDescent: 0
HheadDOffset: 1
OS2SubXSize: 1434
OS2SubYSize: 1331
OS2SubXOff: 0
OS2SubYOff: 287
OS2SupXSize: 1434
OS2SupYSize: 1331
OS2SupXOff: 0
OS2SupYOff: 977
OS2StrikeYSize: 96
OS2StrikeYPos: 424
OS2Vendor: 'STC '
OS2CodePages: 20000111.40000000
OS2UnicodeRanges: 800000ef.00000002.00000000.00000000
DEI: 91125
TtTable: prep
PUSHW_1
 511
SCANCTRL
PUSHB_1
 4
SCANTYPE
EndTTInstrs
ShortTable: maxp 16
  1
  0
  271
  161
  7
  96
  4
  2
  0
  1
  1
  0
  64
  0
  2
  1
EndShort

StartChar: .notdef
Encoding: 65536 -1 0
Width: 1146
Flags: W
LayerCount: 2
Fore
SplineSet
568 661 m 1,0,1
 401 356 401 356 372 338 c 0,2,3
 361 331 361 331 345 331 c 128,-1,4
 329 331 329 331 313 345.5 c 128,-1,5
 297 360 297 360 297 381.5 c 128,-1,6
 297 403 297 403 315.5 427 c 128,-1,7
 334 451 334 451 356.5 479 c 128,-1,8
 379 507 379 507 404 542 c 1,9,10
 461 626 461 626 512 733 c 1,11,-1
 517 696 l 1,12,13
 485 740 485 740 443.5 816.5 c 128,-1,14
 402 893 402 893 365.5 949.5 c 128,-1,15
 329 1006 329 1006 325 1020.5 c 128,-1,16
 321 1035 321 1035 321 1053 c 128,-1,17
 321 1071 321 1071 337 1084.5 c 128,-1,18
 353 1098 353 1098 374 1098 c 0,19,20
 411 1098 411 1098 429 1051 c 1,21,22
 484 920 484 920 523 855 c 128,-1,23
 562 790 562 790 580 761 c 1,24,-1
 559 765 l 1,25,26
 568 780 568 780 587 809 c 128,-1,27
 606 838 606 838 628 878 c 0,28,29
 683 976 683 976 712 1070 c 0,30,31
 723 1106 723 1106 761 1106 c 0,32,33
 795 1106 795 1106 806 1072 c 0,34,35
 815 1042 815 1042 796 1006 c 128,-1,36
 777 970 777 970 752.5 930.5 c 128,-1,37
 728 891 728 891 702 850 c 0,38,39
 641 753 641 753 613 692 c 1,40,-1
 609 725 l 1,41,42
 651 647 651 647 691 584 c 0,43,44
 771 457 771 457 790 421 c 1,45,46
 801 409 801 409 801 386.5 c 128,-1,47
 801 364 801 364 785 350 c 128,-1,48
 769 336 769 336 750 336 c 0,49,50
 710 336 710 336 693 373 c 1,51,52
 633 520 633 520 601.5 577.5 c 128,-1,53
 570 635 570 635 557 659 c 1,54,-1
 568 661 l 1,0,1
522 73 m 1,55,-1
 203 78 l 2,56,57
 164 78 164 78 138 76 c 128,-1,58
 112 74 112 74 99.5 76.5 c 128,-1,59
 87 79 87 79 77 86 c 0,60,61
 54 102 54 102 56 136 c 0,62,63
 78 558 78 558 79 697 c 0,64,65
 83 986 83 986 48 1291 c 0,66,67
 44 1323 44 1323 59 1335 c 1,68,69
 82 1356 82 1356 104 1352 c 0,70,71
 137 1346 137 1346 191 1346 c 0,72,73
 281 1346 281 1346 324.5 1351 c 128,-1,74
 368 1356 368 1356 382 1351.5 c 128,-1,75
 396 1347 396 1347 406 1339 c 0,76,77
 425 1323 425 1323 425 1300.5 c 128,-1,78
 425 1278 425 1278 407.5 1262 c 128,-1,79
 390 1246 390 1246 353 1248.5 c 128,-1,80
 316 1251 316 1251 289.5 1254 c 128,-1,81
 263 1257 263 1257 243.5 1257 c 128,-1,82
 224 1257 224 1257 209.5 1256.5 c 128,-1,83
 195 1256 195 1256 178.5 1255 c 128,-1,84
 162 1254 162 1254 146.5 1253.5 c 128,-1,85
 131 1253 131 1253 122 1252 c 1,86,-1
 165 1305 l 1,87,88
 165 1164 165 1164 163.5 1061.5 c 128,-1,89
 162 959 162 959 161.5 879.5 c 128,-1,90
 161 800 161 800 160 696 c 0,91,92
 158 469 158 469 156 130 c 1,93,-1
 127 163 l 1,94,95
 142 162 142 162 170.5 162.5 c 128,-1,96
 199 163 199 163 235.5 163.5 c 128,-1,97
 272 164 272 164 312.5 165.5 c 128,-1,98
 353 167 353 167 392 168 c 0,99,100
 470 172 470 172 514 176 c 128,-1,101
 558 180 558 180 577.5 162 c 128,-1,102
 597 144 597 144 597 123 c 128,-1,103
 597 102 597 102 579 86.5 c 128,-1,104
 561 71 561 71 522 73 c 1,55,-1
1023 1252 m 1,105,106
 973 1257 973 1257 935 1257 c 128,-1,107
 897 1257 897 1257 861 1256 c 128,-1,108
 825 1255 825 1255 785 1254 c 0,109,110
 707 1252 707 1252 661 1249 c 128,-1,111
 615 1246 615 1246 597 1262 c 128,-1,112
 579 1278 579 1278 579 1293.5 c 128,-1,113
 579 1309 579 1309 584.5 1320 c 128,-1,114
 590 1331 590 1331 600 1339 c 0,115,116
 622 1358 622 1358 645 1355 c 128,-1,117
 668 1352 668 1352 707 1351 c 128,-1,118
 746 1350 746 1350 792 1348 c 0,119,120
 867 1346 867 1346 919 1346 c 0,121,122
 1002 1346 1002 1346 1026.5 1349.5 c 128,-1,123
 1051 1353 1051 1353 1061.5 1350.5 c 128,-1,124
 1072 1348 1072 1348 1080 1340 c 0,125,126
 1099 1322 1099 1322 1096 1291 c 0,127,128
 1062 994 1062 994 1065 779 c 1,129,130
 1067 558 1067 558 1089 136 c 0,131,132
 1092 86 1092 86 1046 76 c 0,133,134
 1033 74 1033 74 1017 76 c 0,135,136
 990 78 990 78 945.5 78 c 128,-1,137
 901 78 901 78 863 76 c 128,-1,138
 825 74 825 74 789.5 72.5 c 128,-1,139
 754 71 754 71 735.5 86.5 c 128,-1,140
 717 102 717 102 717 123 c 128,-1,141
 717 144 717 144 737 162 c 128,-1,142
 757 180 757 180 810 174 c 0,143,144
 948 160 948 160 1018 163 c 1,145,-1
 989 130 l 1,146,147
 988 315 988 315 987 453 c 128,-1,148
 986 591 986 591 985.5 695.5 c 128,-1,149
 985 800 985 800 984 879.5 c 128,-1,150
 983 959 983 959 982 1028 c 0,151,152
 980 1164 980 1164 980 1305 c 1,153,-1
 1023 1252 l 1,105,106
EndSplineSet
EndChar

StartChar: exclam
Encoding: 33 33 23
Width: 496
Flags: W
LayerCount: 2
Fore
SplineSet
288 946 m 2,0,-1
 288 662 l 2,1,2
 288 471 288 471 296 386 c 0,3,4
 299 354 299 354 282 337 c 128,-1,5
 265 320 265 320 245 320 c 256,6,7
 225 320 225 320 211 334.5 c 128,-1,8
 197 349 197 349 200 407 c 0,9,10
 203 488 203 488 203 676.5 c 128,-1,11
 203 865 203 865 202 993 c 128,-1,12
 201 1121 201 1121 199 1244 c 0,13,14
 195 1501 195 1501 181 1691 c 0,15,16
 178 1730 178 1730 199.5 1749 c 128,-1,17
 221 1768 221 1768 245 1768 c 256,18,19
 269 1768 269 1768 289 1748.5 c 128,-1,20
 309 1729 309 1729 305 1677 c 128,-1,21
 301 1625 301 1625 297.5 1538 c 128,-1,22
 294 1451 294 1451 292 1352 c 0,23,24
 288 1154 288 1154 288 946 c 2,0,-1
321 99 m 128,-1,26
 329 83 329 83 329 60 c 128,-1,27
 329 37 329 37 320 20.5 c 128,-1,28
 311 4 311 4 296 -6 c 0,29,30
 270 -24 270 -24 233 -24 c 0,31,32
 180 -24 180 -24 158 24 c 0,33,34
 150 40 150 40 150 61 c 0,35,36
 150 121 150 121 208 140 c 0,37,38
 224 146 224 146 239.5 146 c 128,-1,39
 255 146 255 146 271 141 c 128,-1,40
 287 136 287 136 300 125.5 c 128,-1,25
 313 115 313 115 321 99 c 128,-1,26
EndSplineSet
EndChar

StartChar: quotedbl
Encoding: 34 34 24
Width: 579
Flags: W
LayerCount: 2
Fore
SplineSet
152 1136 m 0,0,1
 135 1134 135 1134 123.5 1149 c 128,-1,2
 112 1164 112 1164 112 1222.5 c 128,-1,3
 112 1281 112 1281 109 1359.5 c 128,-1,4
 106 1438 106 1438 101.5 1507 c 128,-1,5
 97 1576 97 1576 92.5 1633 c 128,-1,6
 88 1690 88 1690 84.5 1732.5 c 128,-1,7
 81 1775 81 1775 100.5 1797 c 128,-1,8
 120 1819 120 1819 147 1819 c 256,9,10
 174 1819 174 1819 193.5 1797 c 128,-1,11
 213 1775 213 1775 209.5 1739.5 c 128,-1,12
 206 1704 206 1704 204 1657.5 c 128,-1,13
 202 1611 202 1611 200 1556 c 128,-1,14
 198 1501 198 1501 196.5 1442 c 128,-1,15
 195 1383 195 1383 194 1332 c 0,16,17
 191 1248 191 1248 191 1194.5 c 128,-1,18
 191 1141 191 1141 152 1136 c 0,0,1
423 1819 m 0,19,20
 490 1819 490 1819 480 1731 c 1,21,22
 462 1515 462 1515 462 1195 c 0,23,24
 462 1141 462 1141 421 1136 c 0,25,26
 405 1134 405 1134 393 1149 c 128,-1,27
 381 1164 381 1164 381 1198 c 2,28,-1
 383 1279 l 1,29,30
 383 1368 383 1368 377.5 1483 c 128,-1,31
 372 1598 372 1598 367 1731 c 0,32,33
 363 1819 363 1819 423 1819 c 0,19,20
EndSplineSet
EndChar

StartChar: numbersign
Encoding: 35 35 25
Width: 884
Flags: W
LayerCount: 2
Fore
SplineSet
343 1134 m 1,0,-1
 441 1132 l 2,1,2
 474 1132 474 1132 500 1132 c 128,-1,3
 526 1132 526 1132 546.5 1132.5 c 128,-1,4
 567 1133 567 1133 587.5 1133.5 c 128,-1,5
 608 1134 608 1134 625 1134 c 1,6,-1
 599 1112 l 1,7,8
 608 1196 608 1196 615.5 1262 c 128,-1,9
 623 1328 623 1328 628 1383 c 0,10,11
 640 1510 640 1510 641 1560.5 c 128,-1,12
 642 1611 642 1611 657.5 1624 c 128,-1,13
 673 1637 673 1637 695.5 1637 c 128,-1,14
 718 1637 718 1637 731.5 1617.5 c 128,-1,15
 745 1598 745 1598 739 1559.5 c 128,-1,16
 733 1521 733 1521 726 1474 c 128,-1,17
 719 1427 719 1427 711.5 1371 c 128,-1,18
 704 1315 704 1315 695.5 1248 c 128,-1,19
 687 1181 687 1181 676 1097 c 1,20,-1
 661 1135 l 1,21,-1
 745 1140 l 2,22,23
 777 1142 777 1142 794 1124 c 128,-1,24
 811 1106 811 1106 812.5 1085.5 c 128,-1,25
 814 1065 814 1065 799.5 1049 c 128,-1,26
 785 1033 785 1033 763.5 1035 c 128,-1,27
 742 1037 742 1037 728 1038 c 128,-1,28
 714 1039 714 1039 699 1040.5 c 128,-1,29
 684 1042 684 1042 670 1043.5 c 128,-1,30
 656 1045 656 1045 646 1045 c 1,31,-1
 672 1065 l 1,32,33
 669 1040 669 1040 663.5 997 c 128,-1,34
 658 954 658 954 651.5 902 c 128,-1,35
 645 850 645 850 638 793 c 128,-1,36
 631 736 631 736 624.5 684 c 128,-1,37
 618 632 618 632 612.5 588.5 c 128,-1,38
 607 545 607 545 604 521 c 1,39,-1
 590 562 l 1,40,41
 600 562 600 562 612.5 562.5 c 128,-1,42
 625 563 625 563 638 564 c 1,43,44
 662 564 662 564 691 566.5 c 128,-1,45
 720 569 720 569 737 551.5 c 128,-1,46
 754 534 754 534 755.5 513.5 c 128,-1,47
 757 493 757 493 742 477 c 128,-1,48
 727 461 727 461 705 463 c 128,-1,49
 683 465 683 465 667 466 c 128,-1,50
 651 467 651 467 634 468 c 0,51,52
 586 471 586 471 572 472 c 1,53,-1
 603 507 l 1,54,55
 586 349 586 349 578 272 c 128,-1,56
 570 195 570 195 564 137.5 c 128,-1,57
 558 80 558 80 554.5 45.5 c 128,-1,58
 551 11 551 11 535.5 -3.5 c 128,-1,59
 520 -18 520 -18 499.5 -18 c 128,-1,60
 479 -18 479 -18 462 0.5 c 128,-1,61
 445 19 445 19 451 53.5 c 128,-1,62
 457 88 457 88 465.5 144 c 128,-1,63
 474 200 474 200 484 263 c 0,64,65
 509 434 509 434 519 509 c 1,66,-1
 541 474 l 1,67,-1
 494 475 l 2,68,69
 470 475 470 475 439 475 c 0,70,71
 371 475 371 475 263 470 c 1,72,-1
 291 504 l 1,73,74
 285 451 285 451 277.5 386.5 c 128,-1,75
 270 322 270 322 263 258 c 0,76,77
 253 164 253 164 240 40 c 0,78,79
 236 11 236 11 221 -3.5 c 128,-1,80
 206 -18 206 -18 191 -18 c 128,-1,81
 176 -18 176 -18 166 -13.5 c 128,-1,82
 156 -9 156 -9 149 0 c 0,83,84
 133 20 133 20 138 54 c 128,-1,85
 143 88 143 88 152 143.5 c 128,-1,86
 161 199 161 199 171 261.5 c 128,-1,87
 181 324 181 324 190 388.5 c 128,-1,88
 199 453 199 453 207 507 c 1,89,-1
 222 467 l 1,90,-1
 149 464 l 2,91,92
 116 462 116 462 99.5 478 c 128,-1,93
 83 494 83 494 81 515 c 256,94,95
 79 536 79 536 95 553 c 128,-1,96
 111 570 111 570 131 568.5 c 128,-1,97
 151 567 151 567 163 566 c 128,-1,98
 175 565 175 565 188 564 c 0,99,100
 214 562 214 562 238 562 c 1,101,-1
 210 531 l 1,102,103
 213 556 213 556 219 598 c 128,-1,104
 225 640 225 640 232 691 c 128,-1,105
 239 742 239 742 246 797 c 128,-1,106
 253 852 253 852 260 904 c 0,107,108
 275 1013 275 1013 281 1066 c 1,109,-1
 302 1042 l 1,110,111
 236 1036 236 1036 204 1036 c 0,112,113
 142 1036 142 1036 137 1088 c 0,114,115
 136 1108 136 1108 151.5 1125.5 c 128,-1,116
 167 1143 167 1143 187.5 1141.5 c 128,-1,117
 208 1140 208 1140 222 1139 c 128,-1,118
 236 1138 236 1138 251.5 1137 c 128,-1,119
 267 1136 267 1136 282.5 1135 c 128,-1,120
 298 1134 298 1134 311 1134 c 1,121,-1
 284 1097 l 1,122,123
 328 1428 328 1428 331 1583 c 0,124,125
 331 1611 331 1611 346.5 1624 c 128,-1,126
 362 1637 362 1637 384.5 1637 c 128,-1,127
 407 1637 407 1637 424 1617.5 c 128,-1,128
 441 1598 441 1598 435 1559 c 128,-1,129
 429 1520 429 1520 421 1473 c 128,-1,130
 413 1426 413 1426 404 1370 c 0,131,132
 382 1231 382 1231 364 1094 c 1,133,-1
 343 1134 l 1,0,-1
271 562 m 1,134,-1
 380 560 l 2,135,136
 413 560 413 560 438.5 560 c 128,-1,137
 464 560 464 560 482.5 560.5 c 128,-1,138
 501 561 501 561 519.5 561.5 c 128,-1,139
 538 562 538 562 553 562 c 1,140,-1
 524 522 l 1,141,142
 529 556 529 556 540.5 648 c 128,-1,143
 552 740 552 740 559.5 797.5 c 128,-1,144
 567 855 567 855 573.5 908 c 128,-1,145
 580 961 580 961 585.5 1004.5 c 128,-1,146
 591 1048 591 1048 594 1074 c 1,147,-1
 613 1046 l 1,148,-1
 528 1048 l 1,149,-1
 504 1048 l 2,150,151
 415 1048 415 1048 337 1044 c 1,152,-1
 361 1070 l 1,153,154
 358 1045 358 1045 352.5 1002 c 128,-1,155
 347 959 347 959 340.5 907 c 128,-1,156
 334 855 334 855 327 798 c 128,-1,157
 320 741 320 741 313.5 689 c 128,-1,158
 307 637 307 637 301.5 594 c 128,-1,159
 296 551 296 551 293 527 c 1,160,-1
 271 562 l 1,134,-1
EndSplineSet
EndChar

StartChar: dollar
Encoding: 36 36 26
Width: 908
Flags: W
LayerCount: 2
Fore
SplineSet
658 1168 m 0,0,1
 636 1168 636 1168 621.5 1188 c 128,-1,2
 607 1208 607 1208 612 1240 c 0,3,4
 624 1315 624 1315 624 1349.5 c 128,-1,5
 624 1384 624 1384 615 1418.5 c 128,-1,6
 606 1453 606 1453 584 1480 c 0,7,8
 537 1538 537 1538 442 1538 c 0,9,10
 339 1538 339 1538 279 1450 c 0,11,12
 226 1373 226 1373 226 1251 c 0,13,14
 226 1092 226 1092 400 946 c 0,15,16
 449 905 449 905 500 863 c 128,-1,17
 551 821 551 821 600.5 778 c 128,-1,18
 650 735 650 735 688 686 c 0,19,20
 774 576 774 576 774 464.5 c 128,-1,21
 774 353 774 353 750.5 274 c 128,-1,22
 727 195 727 195 681 139 c 0,23,24
 585 22 585 22 412 22 c 0,25,26
 269 22 269 22 179 130 c 0,27,28
 95 232 95 232 95 383 c 0,29,30
 95 444 95 444 112.5 474 c 128,-1,31
 130 504 130 504 157.5 504 c 128,-1,32
 185 504 185 504 196 488.5 c 128,-1,33
 207 473 207 473 208.5 452.5 c 128,-1,34
 210 432 210 432 206.5 411 c 128,-1,35
 203 390 203 390 203 349 c 128,-1,36
 203 308 203 308 219.5 256.5 c 128,-1,37
 236 205 236 205 266 171 c 0,38,39
 327 104 327 104 433 104 c 0,40,41
 561 104 561 104 626 204 c 1,42,43
 681 291 681 291 681 444 c 0,44,45
 681 599 681 599 506 746 c 0,46,47
 457 787 457 787 405.5 829 c 128,-1,48
 354 871 354 871 304.5 915 c 128,-1,49
 255 959 255 959 216 1009 c 0,50,51
 130 1119 130 1119 130 1246 c 0,52,53
 130 1418 130 1418 216 1521 c 0,54,55
 302 1625 302 1625 456 1625 c 0,56,57
 568 1625 568 1625 644 1530 c 1,58,59
 721 1432 721 1432 721 1300 c 128,-1,60
 721 1168 721 1168 658 1168 c 0,0,1
469 775 m 2,61,-1
 468 240 l 2,62,63
 468 -28 468 -28 470 -65.5 c 128,-1,64
 472 -103 472 -103 467 -115.5 c 128,-1,65
 462 -128 462 -128 454 -136 c 0,66,67
 437 -153 437 -153 416.5 -153 c 128,-1,68
 396 -153 396 -153 380 -137.5 c 128,-1,69
 364 -122 364 -122 365 -92 c 0,70,71
 370 112 370 112 378.5 335.5 c 128,-1,72
 387 559 387 559 387 792 c 2,73,-1
 389 1278 l 1,74,75
 389 1563 389 1563 384.5 1654 c 128,-1,76
 380 1745 380 1745 385.5 1756.5 c 128,-1,77
 391 1768 391 1768 400 1776 c 0,78,79
 416 1792 416 1792 442 1792 c 0,80,81
 482 1792 482 1792 496 1756 c 0,82,83
 500 1745 500 1745 497 1719 c 128,-1,84
 494 1693 494 1693 490.5 1636.5 c 128,-1,85
 487 1580 487 1580 483.5 1507 c 128,-1,86
 480 1434 480 1434 477.5 1347.5 c 128,-1,87
 475 1261 475 1261 473 1167 c 0,88,89
 469 979 469 979 469 775 c 2,61,-1
EndSplineSet
EndChar

StartChar: percent
Encoding: 37 37 27
Width: 1099
Flags: W
LayerCount: 2
Fore
SplineSet
230 1682 m 0,0,1
 267 1707 267 1707 313.5 1708 c 128,-1,2
 360 1709 360 1709 397.5 1685.5 c 128,-1,3
 435 1662 435 1662 461 1616 c 0,4,5
 514 1522 514 1522 514 1352 c 0,6,7
 514 1215 514 1215 458 1116 c 0,8,9
 397 1008 397 1008 303.5 1008 c 128,-1,10
 210 1008 210 1008 158 1094.5 c 128,-1,11
 106 1181 106 1181 106 1340 c 0,12,13
 106 1602 106 1602 230 1682 c 0,0,1
305 1091 m 0,14,15
 395 1091 395 1091 424 1253 c 0,16,17
 433 1304 433 1304 433 1364.5 c 128,-1,18
 433 1425 433 1425 423.5 1471 c 128,-1,19
 414 1517 414 1517 398 1548 c 0,20,21
 364 1613 364 1613 310 1613 c 256,22,23
 256 1613 256 1613 223 1532 c 0,24,25
 193 1458 193 1458 193 1335.5 c 128,-1,26
 193 1213 193 1213 224 1152 c 128,-1,27
 255 1091 255 1091 305 1091 c 0,14,15
328 213.5 m 128,-1,29
 291 107 291 107 273 54.5 c 128,-1,30
 255 2 255 2 239 -9 c 128,-1,31
 223 -20 223 -20 202.5 -20 c 128,-1,32
 182 -20 182 -20 167 1 c 128,-1,33
 152 22 152 22 173.5 74 c 128,-1,34
 195 126 195 126 232 219 c 128,-1,35
 269 312 269 312 311 420.5 c 128,-1,36
 353 529 353 529 398 648 c 128,-1,37
 443 767 443 767 487.5 888 c 128,-1,38
 532 1009 532 1009 574 1127.5 c 128,-1,39
 616 1246 616 1246 652 1352 c 0,40,41
 730 1583 730 1583 760 1703 c 0,42,43
 765 1727 765 1727 782.5 1739.5 c 128,-1,44
 800 1752 800 1752 815.5 1752 c 128,-1,45
 831 1752 831 1752 844 1744.5 c 128,-1,46
 857 1737 857 1737 865 1725 c 0,47,48
 884 1697 884 1697 868 1667.5 c 128,-1,49
 852 1638 852 1638 825 1571.5 c 128,-1,50
 798 1505 798 1505 761.5 1410 c 128,-1,51
 725 1315 725 1315 681.5 1197.5 c 128,-1,52
 638 1080 638 1080 591.5 952.5 c 128,-1,53
 545 825 545 825 498 694.5 c 128,-1,54
 451 564 451 564 408 442 c 128,-1,28
 365 320 365 320 328 213.5 c 128,-1,29
744 718 m 0,55,56
 839 719 839 719 892 626 c 128,-1,57
 945 533 945 533 945 362 c 0,58,59
 945 225 945 225 888 126 c 1,60,61
 828 18 828 18 734.5 18 c 128,-1,62
 641 18 641 18 589 104.5 c 128,-1,63
 537 191 537 191 537 351 c 0,64,65
 537 613 537 613 661 692 c 0,66,67
 699 717 699 717 744 718 c 0,55,56
624 362 m 0,68,69
 624 102 624 102 736 102 c 0,70,71
 827 102 827 102 855 263 c 0,72,73
 864 314 864 314 864 375 c 128,-1,74
 864 436 864 436 854.5 481.5 c 128,-1,75
 845 527 845 527 828 558 c 1,76,77
 795 623 795 623 742 623 c 0,78,79
 687 623 687 623 654 542 c 0,80,81
 624 468 624 468 624 362 c 0,68,69
EndSplineSet
EndChar

StartChar: ampersand
Encoding: 38 38 28
Width: 1036
Flags: W
LayerCount: 2
Fore
SplineSet
810 586 m 2,0,-1
 811 554 l 1,1,2
 811 346 811 346 744 205 c 1,3,-1
 736 255 l 1,4,5
 810 143 810 143 892 74 c 0,6,7
 919 51 919 51 919 27.5 c 128,-1,8
 919 4 919 4 905.5 -10.5 c 128,-1,9
 892 -25 892 -25 875 -25 c 0,10,11
 839 -25 839 -25 815 14 c 1,12,13
 775 74 775 74 745 114 c 128,-1,14
 715 154 715 154 703 171 c 1,15,-1
 726 181 l 1,16,17
 679 87 679 87 599 34.5 c 128,-1,18
 519 -18 519 -18 440.5 -18 c 128,-1,19
 362 -18 362 -18 314 2 c 128,-1,20
 266 22 266 22 232 59 c 0,21,22
 163 136 163 136 163 266 c 0,23,24
 163 398 163 398 314 598 c 0,25,26
 352 649 352 649 383 693 c 1,27,-1
 381 647 l 1,28,29
 336 725 336 725 293.5 792 c 128,-1,30
 251 859 251 859 219 924 c 0,31,32
 148 1067 148 1067 148 1192.5 c 128,-1,33
 148 1318 148 1318 174.5 1406 c 128,-1,34
 201 1494 201 1494 244 1552 c 0,35,36
 331 1667 331 1667 462 1667 c 0,37,38
 664 1667 664 1667 724 1445 c 0,39,40
 745 1367 745 1367 745 1275 c 128,-1,41
 745 1183 745 1183 731.5 1121.5 c 128,-1,42
 718 1060 718 1060 695 1007.5 c 128,-1,43
 672 955 672 955 641.5 909.5 c 128,-1,44
 611 864 611 864 578.5 822.5 c 128,-1,45
 546 781 546 781 513 741 c 128,-1,46
 480 701 480 701 451 659 c 1,47,-1
 453 708 l 1,48,49
 490 644 490 644 513.5 605 c 128,-1,50
 537 566 537 566 553 538.5 c 128,-1,51
 569 511 569 511 581.5 490 c 128,-1,52
 594 469 594 469 612.5 440 c 128,-1,53
 631 411 631 411 650 381 c 0,54,55
 689 321 689 321 717 281 c 1,56,-1
 691 277 l 1,57,58
 721 354 721 354 721 447 c 128,-1,59
 721 540 721 540 716 575.5 c 128,-1,60
 711 611 711 611 726 628.5 c 128,-1,61
 741 646 741 646 760 646 c 128,-1,62
 779 646 779 646 794 631.5 c 128,-1,63
 809 617 809 617 810 586 c 2,0,-1
245 1232 m 0,64,65
 245 1146 245 1146 261 1084.5 c 128,-1,66
 277 1023 277 1023 304.5 966 c 128,-1,67
 332 909 332 909 367.5 851.5 c 128,-1,68
 403 794 403 794 442 724 c 1,69,-1
 410 730 l 1,70,71
 438 771 438 771 467.5 807.5 c 128,-1,72
 497 844 497 844 524.5 881 c 128,-1,73
 552 918 552 918 576 957 c 128,-1,74
 600 996 600 996 618 1042 c 0,75,76
 657 1140 657 1140 657 1242 c 128,-1,77
 657 1344 657 1344 643 1402 c 128,-1,78
 629 1460 629 1460 603 1498 c 0,79,80
 552 1571 552 1571 457 1571 c 0,81,82
 373 1571 373 1571 314 1492 c 1,83,84
 245 1397 245 1397 245 1232 c 0,64,65
355 87.5 m 128,-1,86
 387 72 387 72 450 72 c 128,-1,87
 513 72 513 72 575.5 119.5 c 128,-1,88
 638 167 638 167 666 252 c 1,89,-1
 669 197 l 1,90,91
 656 217 656 217 637 246.5 c 128,-1,92
 618 276 618 276 599 305.5 c 128,-1,93
 580 335 580 335 563.5 361.5 c 128,-1,94
 547 388 547 388 535 406 c 128,-1,95
 523 424 523 424 505.5 450.5 c 128,-1,96
 488 477 488 477 469 506 c 0,97,98
 426 570 426 570 397 619 c 1,99,-1
 429 628 l 1,100,101
 406 591 406 591 377 548.5 c 128,-1,102
 348 506 348 506 322 460 c 0,103,104
 260 350 260 350 260 290.5 c 128,-1,105
 260 231 260 231 270.5 194.5 c 128,-1,106
 281 158 281 158 302 130.5 c 128,-1,85
 323 103 323 103 355 87.5 c 128,-1,86
EndSplineSet
EndChar

StartChar: quotesingle
Encoding: 39 39 29
Width: 303
Flags: W
LayerCount: 2
Fore
SplineSet
191.5 1259 m 128,-1,1
 191 1222 191 1222 191 1200.5 c 128,-1,2
 191 1179 191 1179 178.5 1166.5 c 128,-1,3
 166 1154 166 1154 150 1152.5 c 128,-1,4
 134 1151 134 1151 122 1165.5 c 128,-1,5
 110 1180 110 1180 110 1238 c 128,-1,6
 110 1296 110 1296 109 1374 c 128,-1,7
 108 1452 108 1452 106 1520 c 0,8,9
 103 1673 103 1673 99 1729 c 0,10,11
 92 1829 92 1829 152 1829 c 0,12,13
 178 1829 178 1829 194 1807 c 128,-1,14
 210 1785 210 1785 206.5 1750 c 128,-1,15
 203 1715 203 1715 201 1669 c 128,-1,16
 199 1623 199 1623 197.5 1568 c 128,-1,17
 196 1513 196 1513 194.5 1455 c 128,-1,18
 193 1397 193 1397 192.5 1346.5 c 128,-1,0
 192 1296 192 1296 191.5 1259 c 128,-1,1
EndSplineSet
EndChar

StartChar: parenleft
Encoding: 40 40 30
Width: 616
Flags: W
LayerCount: 2
Fore
SplineSet
474.5 1851.5 m 128,-1,1
 487 1837 487 1837 486.5 1816 c 128,-1,2
 486 1795 486 1795 457 1764 c 128,-1,3
 428 1733 428 1733 379.5 1658 c 128,-1,4
 331 1583 331 1583 290 1466 c 0,5,6
 195 1197 195 1197 195 795 c 0,7,8
 195 448 195 448 277 188 c 0,9,10
 346 -32 346 -32 439 -116 c 1,11,12
 475 -146 475 -146 475.5 -173 c 128,-1,13
 476 -200 476 -200 462 -213.5 c 128,-1,14
 448 -227 448 -227 431 -228 c 0,15,16
 397 -229 397 -229 374 -204 c 128,-1,17
 351 -179 351 -179 324 -135 c 128,-1,18
 297 -91 297 -91 268 -26.5 c 128,-1,19
 239 38 239 38 210.5 122.5 c 128,-1,20
 182 207 182 207 159 308 c 0,21,22
 108 534 108 534 108 735.5 c 128,-1,23
 108 937 108 937 122.5 1071.5 c 128,-1,24
 137 1206 137 1206 160.5 1316 c 128,-1,25
 184 1426 184 1426 213 1511.5 c 128,-1,26
 242 1597 242 1597 272 1660 c 1,27,28
 319 1763 319 1763 373 1829 c 1,29,30
 408 1868 408 1868 435 1867 c 128,-1,0
 462 1866 462 1866 474.5 1851.5 c 128,-1,1
EndSplineSet
EndChar

StartChar: parenright
Encoding: 41 41 31
Width: 599
Flags: W
LayerCount: 2
Fore
SplineSet
143 -187 m 256,0,1
 143 -167 143 -167 164.5 -142.5 c 128,-1,2
 186 -118 186 -118 215 -75.5 c 128,-1,3
 244 -33 244 -33 271 25 c 128,-1,4
 298 83 298 83 321.5 160.5 c 128,-1,5
 345 238 345 238 362 340 c 0,6,7
 401 563 401 563 401 800.5 c 128,-1,8
 401 1038 401 1038 379.5 1185.5 c 128,-1,9
 358 1333 358 1333 324 1447 c 0,10,11
 256 1674 256 1674 167 1752 c 1,12,13
 132 1781 132 1781 130.5 1808.5 c 128,-1,14
 129 1836 129 1836 143.5 1850 c 128,-1,15
 158 1864 158 1864 182.5 1865.5 c 128,-1,16
 207 1867 207 1867 235.5 1836 c 128,-1,17
 264 1805 264 1805 307.5 1723 c 128,-1,18
 351 1641 351 1641 392 1516 c 0,19,20
 491 1214 491 1214 491 862 c 0,21,22
 491 440 491 440 400 126 c 1,23,24
 336 -99 336 -99 257 -195 c 0,25,26
 223 -236 223 -236 196.5 -236 c 128,-1,27
 170 -236 170 -236 156.5 -221.5 c 128,-1,28
 143 -207 143 -207 143 -187 c 256,0,1
EndSplineSet
EndChar

StartChar: asterisk
Encoding: 42 42 32
Width: 819
Flags: W
LayerCount: 2
Fore
SplineSet
389 1411 m 1,0,1
 383 1558 383 1558 374.5 1622 c 128,-1,2
 366 1686 366 1686 370 1702 c 128,-1,3
 374 1718 374 1718 382 1728 c 0,4,5
 398 1749 398 1749 417.5 1749 c 128,-1,6
 437 1749 437 1749 449 1743.5 c 128,-1,7
 461 1738 461 1738 470 1728 c 0,8,9
 491 1703 491 1703 485.5 1649 c 128,-1,10
 480 1595 480 1595 471.5 1530 c 128,-1,11
 463 1465 463 1465 459 1416 c 1,12,-1
 441 1427 l 1,13,14
 512 1448 512 1448 585 1484.5 c 128,-1,15
 658 1521 658 1521 674 1530 c 1,16,17
 700 1547 700 1547 724.5 1547 c 128,-1,18
 749 1547 749 1547 764.5 1529.5 c 128,-1,19
 780 1512 780 1512 780 1491 c 0,20,21
 780 1442 780 1442 721 1427 c 0,22,23
 571 1391 571 1391 464 1357 c 1,24,-1
 470 1389 l 1,25,26
 519 1323 519 1323 638 1198 c 0,27,28
 668 1166 668 1166 668 1137.5 c 128,-1,29
 668 1109 668 1109 653.5 1094 c 128,-1,30
 639 1079 639 1079 622 1079 c 0,31,32
 581 1079 581 1079 558.5 1115.5 c 128,-1,33
 536 1152 536 1152 516 1184 c 128,-1,34
 496 1216 496 1216 477 1246 c 0,35,36
 436 1310 436 1310 413 1342 c 1,37,-1
 439 1342 l 1,38,39
 415 1301 415 1301 391 1252 c 0,40,41
 319 1105 319 1105 300.5 1092.5 c 128,-1,42
 282 1080 282 1080 263 1080 c 128,-1,43
 244 1080 244 1080 226 1098.5 c 128,-1,44
 208 1117 208 1117 208 1137 c 0,45,46
 208 1179 208 1179 243 1201 c 1,47,48
 310 1256 310 1256 373 1390 c 1,49,-1
 386 1352 l 1,50,51
 336 1386 336 1386 210 1405 c 0,52,53
 145 1415 145 1415 127 1437.5 c 128,-1,54
 109 1460 109 1460 109 1474.5 c 128,-1,55
 109 1489 109 1489 116 1501.5 c 128,-1,56
 123 1514 123 1514 134 1523 c 0,57,58
 161 1545 161 1545 187.5 1532.5 c 128,-1,59
 214 1520 214 1520 242.5 1505.5 c 128,-1,60
 271 1491 271 1491 300 1477 c 0,61,62
 366 1444 366 1444 406 1431 c 1,63,-1
 389 1411 l 1,0,1
EndSplineSet
EndChar

StartChar: plus
Encoding: 43 43 33
Width: 891
Flags: W
LayerCount: 2
Fore
SplineSet
400 478 m 1,0,1
 400 523 400 523 392 723 c 0,2,3
 390 755 390 755 407.5 771.5 c 128,-1,4
 425 788 425 788 445.5 788 c 128,-1,5
 466 788 466 788 482.5 772.5 c 128,-1,6
 499 757 499 757 496 729 c 128,-1,7
 493 701 493 701 491 668.5 c 128,-1,8
 489 636 489 636 488 602 c 0,9,10
 484 521 484 521 484 476 c 1,11,-1
 469 495 l 1,12,13
 594 495 594 495 718 503 c 0,14,15
 750 505 750 505 766.5 487 c 128,-1,16
 783 469 783 469 783 448.5 c 128,-1,17
 783 428 783 428 767.5 412 c 128,-1,18
 752 396 752 396 708 400 c 0,19,20
 585 411 585 411 460 411 c 1,21,-1
 484 431 l 1,22,23
 484 328 484 328 496 178 c 0,24,25
 498 144 498 144 481.5 129 c 128,-1,26
 465 114 465 114 444 114 c 256,27,28
 423 114 423 114 406 129.5 c 128,-1,29
 389 145 389 145 390.5 170.5 c 128,-1,30
 392 196 392 196 394 229 c 128,-1,31
 396 262 396 262 398 300 c 0,32,33
 400 362 400 362 400 441 c 1,34,-1
 416 411 l 1,35,36
 295 409 295 409 172 399 c 0,37,38
 139 397 139 397 123.5 413 c 128,-1,39
 108 429 108 429 108 450 c 128,-1,40
 108 471 108 471 124 488.5 c 128,-1,41
 140 506 140 506 167 504 c 128,-1,42
 194 502 194 502 222 500.5 c 128,-1,43
 250 499 250 499 282 498 c 0,44,45
 378 495 378 495 418 495 c 1,46,-1
 400 478 l 1,0,1
EndSplineSet
EndChar

StartChar: comma
Encoding: 44 44 34
Width: 461
Flags: W
LayerCount: 2
Fore
SplineSet
321 48 m 0,0,1
 321 -68 321 -68 245 -162 c 1,2,3
 186 -232 186 -232 156 -201 c 0,4,5
 149 -193 149 -193 149 -182 c 0,6,7
 149 -162 149 -162 170 -136 c 0,8,9
 223 -70 223 -70 225 2 c 1,10,11
 201 -8 201 -8 177 7 c 0,12,13
 131 34 131 34 131 73.5 c 128,-1,14
 131 113 131 113 157 137 c 128,-1,15
 183 161 183 161 213.5 161 c 128,-1,16
 244 161 244 161 261 152.5 c 128,-1,17
 278 144 278 144 292 128 c 0,18,19
 321 95 321 95 321 48 c 0,0,1
EndSplineSet
EndChar

StartChar: hyphen
Encoding: 45 45 35
Width: 622
Flags: W
LayerCount: 2
Fore
SplineSet
135 478 m 128,-1,1
 151 496 151 496 192 490 c 128,-1,2
 233 484 233 484 305 484 c 128,-1,3
 377 484 377 484 423.5 489 c 128,-1,4
 470 494 470 494 486.5 476.5 c 128,-1,5
 503 459 503 459 503 439 c 256,6,7
 503 419 503 419 487.5 402 c 128,-1,8
 472 385 472 385 441 387 c 128,-1,9
 410 389 410 389 374.5 391.5 c 128,-1,10
 339 394 339 394 305 394 c 0,11,12
 253 394 253 394 210 389.5 c 128,-1,13
 167 385 167 385 155 388.5 c 128,-1,14
 143 392 143 392 135 400 c 0,15,16
 119 414 119 414 119 437 c 128,-1,0
 119 460 119 460 135 478 c 128,-1,1
EndSplineSet
EndChar

StartChar: period
Encoding: 46 46 36
Width: 461
Flags: W
LayerCount: 2
Fore
SplineSet
310 92 m 128,-1,1
 318 76 318 76 318 53 c 128,-1,2
 318 30 318 30 309 13.5 c 128,-1,3
 300 -3 300 -3 286 -13 c 0,4,5
 259 -31 259 -31 222 -31 c 0,6,7
 169 -31 169 -31 146 17 c 0,8,9
 139 33 139 33 139 54 c 0,10,11
 139 114 139 114 197 134 c 0,12,13
 213 139 213 139 228.5 139 c 128,-1,14
 244 139 244 139 260 134 c 128,-1,15
 276 129 276 129 289 118.5 c 128,-1,0
 302 108 302 108 310 92 c 128,-1,1
EndSplineSet
EndChar

StartChar: slash
Encoding: 47 47 37
Width: 722
Flags: W
LayerCount: 2
Fore
SplineSet
230.5 56 m 128,-1,1
 202 -51 202 -51 185.5 -103.5 c 128,-1,2
 169 -156 169 -156 152.5 -167.5 c 128,-1,3
 136 -179 136 -179 120.5 -179 c 128,-1,4
 105 -179 105 -179 92.5 -166 c 128,-1,5
 80 -153 80 -153 80 -135.5 c 128,-1,6
 80 -118 80 -118 95.5 -75 c 128,-1,7
 111 -32 111 -32 141.5 68.5 c 128,-1,8
 172 169 172 169 206 290 c 128,-1,9
 240 411 240 411 275.5 546 c 128,-1,10
 311 681 311 681 346 819 c 128,-1,11
 381 957 381 957 413.5 1091 c 128,-1,12
 446 1225 446 1225 474 1344 c 0,13,14
 542 1628 542 1628 563 1725 c 0,15,16
 570 1756 570 1756 588 1771 c 128,-1,17
 606 1786 606 1786 623.5 1786 c 128,-1,18
 641 1786 641 1786 655.5 1773 c 128,-1,19
 670 1760 670 1760 670 1744 c 0,20,21
 670 1715 670 1715 654.5 1675 c 128,-1,22
 639 1635 639 1635 611.5 1541.5 c 128,-1,23
 584 1448 584 1448 553.5 1333 c 128,-1,24
 523 1218 523 1218 490 1087 c 128,-1,25
 457 956 457 956 423.5 819.5 c 128,-1,26
 390 683 390 683 356.5 547.5 c 128,-1,27
 323 412 323 412 291 287.5 c 128,-1,0
 259 163 259 163 230.5 56 c 128,-1,1
EndSplineSet
EndChar

StartChar: zero
Encoding: 48 48 38
Width: 1021
Flags: W
LayerCount: 2
Fore
SplineSet
497 67 m 0,0,1
 786 67 786 67 786 847 c 0,2,3
 786 1286 786 1286 691 1440 c 0,4,5
 627 1543 627 1543 516 1543 c 0,6,7
 235 1543 235 1543 235 837 c 0,8,9
 235 232 235 232 386 108 c 0,10,11
 435 67 435 67 497 67 c 0,0,1
498 -23 m 0,12,13
 218 -23 218 -23 158 488 c 0,14,15
 139 650 139 650 139 844 c 128,-1,16
 139 1038 139 1038 162 1182.5 c 128,-1,17
 185 1327 185 1327 232 1426 c 0,18,19
 329 1631 329 1631 516 1631 c 0,20,21
 708 1631 708 1631 796 1434 c 0,22,23
 879 1246 879 1246 881 854 c 0,24,25
 884 221 884 221 670 38 c 1,26,27
 597 -23 597 -23 498 -23 c 0,12,13
EndSplineSet
EndChar

StartChar: one
Encoding: 49 49 39
Width: 573
Flags: W
LayerCount: 2
Fore
SplineSet
302 5 m 0,0,1
 256 5 256 5 258.5 74 c 128,-1,2
 261 143 261 143 263.5 247 c 128,-1,3
 266 351 266 351 268 469 c 0,4,5
 271 744 271 744 271 889 c 2,6,-1
 271 1280 l 2,7,8
 271 1360 271 1360 270.5 1432 c 128,-1,9
 270 1504 270 1504 270 1556 c 1,10,-1
 299 1545 l 1,11,12
 295 1539 295 1539 282 1518 c 128,-1,13
 269 1497 269 1497 253 1473 c 0,14,15
 210 1408 210 1408 194.5 1390.5 c 128,-1,16
 179 1373 179 1373 155 1373 c 128,-1,17
 131 1373 131 1373 114 1390.5 c 128,-1,18
 97 1408 97 1408 97 1432.5 c 128,-1,19
 97 1457 97 1457 124.5 1481 c 128,-1,20
 152 1505 152 1505 170.5 1521 c 128,-1,21
 189 1537 189 1537 202 1548 c 0,22,23
 232 1575 232 1575 257 1600.5 c 128,-1,24
 282 1626 282 1626 310 1626 c 0,25,26
 369 1626 369 1626 367 1562 c 0,27,28
 357 1282 357 1282 357 1098 c 2,29,-1
 357 781 l 2,30,31
 357 297 357 297 362 72 c 0,32,33
 363 39 363 39 344 22 c 128,-1,34
 325 5 325 5 302 5 c 0,0,1
EndSplineSet
EndChar

StartChar: two
Encoding: 50 50 40
Width: 865
Flags: W
LayerCount: 2
Fore
SplineSet
648 1191 m 0,0,1
 648 1528 648 1528 445 1528 c 0,2,3
 334 1528 334 1528 280.5 1431 c 128,-1,4
 227 1334 227 1334 235 1146 c 1,5,6
 235 1103 235 1103 199 1090 c 0,7,8
 189 1087 189 1087 173.5 1087 c 128,-1,9
 158 1087 158 1087 141.5 1103.5 c 128,-1,10
 125 1120 125 1120 124 1153 c 0,11,12
 117 1383 117 1383 220 1508 c 1,13,14
 310 1619 310 1619 459 1619 c 0,15,16
 685 1619 685 1619 734 1381 c 0,17,18
 750 1304 750 1304 750 1218.5 c 128,-1,19
 750 1133 750 1133 727.5 1064.5 c 128,-1,20
 705 996 705 996 668 929 c 128,-1,21
 631 862 631 862 584 796 c 128,-1,22
 537 730 537 730 487.5 664.5 c 128,-1,23
 438 599 438 599 391 533 c 128,-1,24
 344 467 344 467 307 400 c 0,25,26
 225 252 225 252 225 125 c 0,27,28
 225 99 225 99 234 94 c 128,-1,29
 243 89 243 89 281 90.5 c 128,-1,30
 319 92 319 92 373 96 c 128,-1,31
 427 100 427 100 482 104 c 0,32,33
 612 112 612 112 662 108 c 0,34,35
 741 103 741 103 741 52 c 0,36,37
 741 33 741 33 727 17.5 c 128,-1,38
 713 2 713 2 686 2 c 2,39,-1
 448 5 l 1,40,41
 282 5 282 5 216 -1.5 c 128,-1,42
 150 -8 150 -8 129.5 6 c 128,-1,43
 109 20 109 20 109 56 c 0,44,45
 109 252 109 252 249 474 c 0,46,47
 309 569 309 569 378.5 658.5 c 128,-1,48
 448 748 448 748 508 836 c 0,49,50
 648 1040 648 1040 648 1191 c 0,0,1
EndSplineSet
EndChar

StartChar: three
Encoding: 51 51 41
Width: 897
Flags: W
LayerCount: 2
Fore
SplineSet
108 418 m 0,0,1
 108 504 108 504 170 504 c 0,2,3
 190 504 190 504 205.5 486.5 c 128,-1,4
 221 469 221 469 218 442 c 128,-1,5
 215 415 215 415 210.5 395 c 128,-1,6
 206 375 206 375 206 333.5 c 128,-1,7
 206 292 206 292 220.5 239 c 128,-1,8
 235 186 235 186 265 148 c 0,9,10
 329 69 329 69 446 69 c 0,11,12
 566 69 566 69 628 158 c 1,13,14
 684 236 684 236 684 360 c 0,15,16
 684 468 684 468 614 548 c 0,17,18
 537 635 537 635 420 629 c 1,19,20
 388 624 388 624 372 639 c 128,-1,21
 356 654 356 654 356 676.5 c 128,-1,22
 356 699 356 699 376.5 722 c 128,-1,23
 397 745 397 745 440 753 c 1,24,25
 536 795 536 795 598 908 c 0,26,27
 660 1022 660 1022 660 1180.5 c 128,-1,28
 660 1339 660 1339 603.5 1434 c 128,-1,29
 547 1529 547 1529 443.5 1529 c 128,-1,30
 340 1529 340 1529 282 1449.5 c 128,-1,31
 224 1370 224 1370 224 1216 c 0,32,33
 224 1180 224 1180 215 1163 c 128,-1,34
 206 1146 206 1146 181.5 1146 c 128,-1,35
 157 1146 157 1146 139.5 1162.5 c 128,-1,36
 122 1179 122 1179 122 1214 c 0,37,38
 122 1411 122 1411 218 1522 c 0,39,40
 306 1624 306 1624 439 1624 c 0,41,42
 747 1624 747 1624 747 1173 c 0,43,44
 747 930 747 930 618 775 c 0,45,46
 569 717 569 717 495 680 c 1,47,-1
 494 705 l 1,48,49
 601 701 601 701 683 616 c 0,50,51
 777 518 777 518 777 366 c 0,52,53
 777 195 777 195 678 85 c 0,54,55
 581 -22 581 -22 432 -22 c 0,56,57
 290 -22 290 -22 197 87 c 0,58,59
 99 202 99 202 107 391 c 0,60,61
 108 405 108 405 108 418 c 0,0,1
EndSplineSet
EndChar

StartChar: four
Encoding: 52 52 42
Width: 822
Flags: W
LayerCount: 2
Fore
SplineSet
613 1570 m 2,0,-1
 606 834 l 1,1,-1
 606 607 l 1,2,-1
 586 630 l 1,3,-1
 734 638 l 2,4,5
 767 640 767 640 783 624.5 c 128,-1,6
 799 609 799 609 799 592 c 256,7,8
 799 575 799 575 784.5 561.5 c 128,-1,9
 770 548 770 548 752 548.5 c 128,-1,10
 734 549 734 549 711 549 c 128,-1,11
 688 549 688 549 661.5 548.5 c 128,-1,12
 635 548 635 548 612 547.5 c 128,-1,13
 589 547 589 547 584 547 c 1,14,-1
 607 572 l 1,15,-1
 605 452 l 1,16,-1
 605 417 l 2,17,18
 605 314 605 314 608 218 c 128,-1,19
 611 122 611 122 612.5 68.5 c 128,-1,20
 614 15 614 15 597.5 -2 c 128,-1,21
 581 -19 581 -19 562 -19 c 256,22,23
 543 -19 543 -19 527 -4 c 128,-1,24
 511 11 511 11 511 43 c 2,25,-1
 511 74 l 1,26,-1
 516 390 l 1,27,28
 516 476 516 476 514 566 c 1,29,-1
 535 546 l 1,30,-1
 423 549 l 1,31,-1
 87 538 l 1,32,33
 20 538 20 538 20 581 c 0,34,35
 20 597 20 597 38 635 c 128,-1,36
 56 673 56 673 106 767.5 c 128,-1,37
 156 862 156 862 222 990 c 0,38,39
 379 1298 379 1298 507 1591 c 1,40,41
 528 1635 528 1635 570.5 1635 c 128,-1,42
 613 1635 613 1635 613 1570 c 2,0,-1
130 628 m 1,43,44
 193 625 193 625 258 625 c 2,45,-1
 343 625 l 2,46,47
 359 625 359 625 383 625.5 c 128,-1,48
 407 626 407 626 433 626 c 0,49,50
 511 628 511 628 533 628 c 1,51,-1
 514 600 l 1,52,53
 520 1092 520 1092 520 1111 c 2,54,-1
 520 1164 l 1,55,-1
 521 1316 l 1,56,-1
 521 1515 l 1,57,-1
 542 1480 l 1,58,59
 490 1360 490 1360 384.5 1138.5 c 128,-1,60
 279 917 279 917 244 843 c 0,61,62
 164 669 164 669 140 605 c 1,63,-1
 130 628 l 1,43,44
EndSplineSet
EndChar

StartChar: five
Encoding: 53 53 43
Width: 903
Flags: W
LayerCount: 2
Fore
SplineSet
496 762 m 0,0,1
 447 762 447 762 413 748.5 c 128,-1,2
 379 735 379 735 356 716 c 0,3,4
 318 683 318 683 302 648 c 0,5,6
 272 582 272 582 230 582 c 0,7,8
 190 582 190 582 180 619 c 0,9,10
 176 631 176 631 179.5 660.5 c 128,-1,11
 183 690 183 690 187.5 732 c 128,-1,12
 192 774 192 774 196 822 c 0,13,14
 203 926 203 926 203 1072 c 0,15,16
 203 1352 203 1352 186 1562 c 1,17,18
 183 1612 183 1612 229 1622 c 0,19,20
 241 1624 241 1624 256.5 1622 c 128,-1,21
 272 1620 272 1620 304 1618 c 128,-1,22
 336 1616 336 1616 376 1616 c 0,23,24
 494 1614 494 1614 547 1614 c 0,25,26
 663 1614 663 1614 711.5 1617 c 128,-1,27
 760 1620 760 1620 778.5 1605 c 128,-1,28
 797 1590 797 1590 797 1565 c 128,-1,29
 797 1540 797 1540 776.5 1524 c 128,-1,30
 756 1508 756 1508 719.5 1512 c 128,-1,31
 683 1516 683 1516 625.5 1518.5 c 128,-1,32
 568 1521 568 1521 504 1522.5 c 128,-1,33
 440 1524 440 1524 376 1524.5 c 128,-1,34
 312 1525 312 1525 261 1526 c 1,35,-1
 289 1555 l 1,36,37
 289 1432 289 1432 289.5 1331 c 128,-1,38
 290 1230 290 1230 290 1133 c 0,39,40
 288 935 288 935 283 710 c 1,41,-1
 266 720 l 1,42,43
 321 815 321 815 442 842 c 0,44,45
 471 849 471 849 487 849 c 0,46,47
 638 849 638 849 721 743 c 128,-1,48
 804 637 804 637 804 416 c 0,49,50
 804 221 804 221 708 98 c 0,51,52
 614 -22 614 -22 470 -22 c 0,53,54
 317 -22 317 -22 229 78 c 0,55,56
 138 182 138 182 144 357 c 0,57,58
 145 388 145 388 161.5 402.5 c 128,-1,59
 178 417 178 417 199 417 c 128,-1,60
 220 417 220 417 237.5 400 c 128,-1,61
 255 383 255 383 252 360 c 0,62,63
 249 329 249 329 249 293 c 128,-1,64
 249 257 249 257 265 211.5 c 128,-1,65
 281 166 281 166 310 132 c 0,66,67
 373 60 373 60 470 60 c 0,68,69
 592 60 592 60 656 166 c 0,70,71
 712 260 712 260 712 413 c 0,72,73
 712 555 712 555 655 655 c 0,74,75
 594 762 594 762 496 762 c 0,0,1
EndSplineSet
EndChar

StartChar: six
Encoding: 54 54 44
Width: 1011
Flags: W
LayerCount: 2
Fore
SplineSet
224 460 m 1,0,1
 253 634 253 634 360 725 c 0,2,3
 445 797 445 797 528.5 797 c 128,-1,4
 612 797 612 797 668 771.5 c 128,-1,5
 724 746 724 746 764 696 c 0,6,7
 848 589 848 589 848 395 c 0,8,9
 848 256 848 256 772 128 c 0,10,11
 682 -22 682 -22 527 -22 c 0,12,13
 417 -22 417 -22 323 65 c 1,14,15
 232 152 232 152 196 318 c 1,16,17
 158 488 158 488 158 730 c 128,-1,18
 158 972 158 972 179 1118.5 c 128,-1,19
 200 1265 200 1265 247 1378 c 0,20,21
 349 1622 349 1622 560 1630 c 1,22,23
 785 1640 785 1640 849 1399 c 0,24,25
 871 1316 871 1316 871 1200 c 0,26,27
 871 1166 871 1166 853.5 1149.5 c 128,-1,28
 836 1133 836 1133 815.5 1133 c 128,-1,29
 795 1133 795 1133 779.5 1147.5 c 128,-1,30
 764 1162 764 1162 766 1193 c 0,31,32
 780 1459 780 1459 647 1524 c 0,33,34
 607 1543 607 1543 547 1543 c 128,-1,35
 487 1543 487 1543 432 1496 c 128,-1,36
 377 1449 377 1449 338 1358 c 0,37,38
 261 1181 261 1181 245 836 c 0,39,40
 241 743 241 743 247 620.5 c 128,-1,41
 253 498 253 498 255 440 c 1,42,-1
 224 460 l 1,0,1
276 385 m 1,43,44
 295 248 295 248 367 156 c 0,45,46
 433 73 433 73 503.5 73 c 128,-1,47
 574 73 574 73 619 100 c 128,-1,48
 664 127 664 127 694 172 c 0,49,50
 755 264 755 264 755 397 c 0,51,52
 755 615 755 615 630 683 c 0,53,54
 590 705 590 705 541 705 c 128,-1,55
 492 705 492 705 446.5 679.5 c 128,-1,56
 401 654 401 654 364 610 c 0,57,58
 282 512 282 512 276 385 c 1,43,44
EndSplineSet
EndChar

StartChar: seven
Encoding: 55 55 45
Width: 785
Flags: W
LayerCount: 2
Fore
SplineSet
125 1614 m 2,0,-1
 362 1610 l 1,1,2
 493 1610 493 1610 630 1621 c 1,3,4
 709 1630 709 1630 709 1560 c 0,5,6
 709 1492 709 1492 633.5 1248.5 c 128,-1,7
 558 1005 558 1005 523.5 889.5 c 128,-1,8
 489 774 489 774 456 656 c 128,-1,9
 423 538 423 538 398 428 c 0,10,11
 342 185 342 185 346 56 c 1,12,13
 346 15 346 15 308 1 c 0,14,15
 263 -16 263 -16 247 12.5 c 128,-1,16
 231 41 231 41 237.5 100.5 c 128,-1,17
 244 160 244 160 265 262.5 c 128,-1,18
 286 365 286 365 314.5 474.5 c 128,-1,19
 343 584 343 584 375.5 695.5 c 128,-1,20
 408 807 408 807 441 912.5 c 128,-1,21
 474 1018 474 1018 505 1113 c 128,-1,22
 536 1208 536 1208 560 1284 c 0,23,24
 611 1452 611 1452 611 1484.5 c 128,-1,25
 611 1517 611 1517 601.5 1522.5 c 128,-1,26
 592 1528 592 1528 557.5 1524.5 c 128,-1,27
 523 1521 523 1521 476.5 1517 c 128,-1,28
 430 1513 430 1513 382 1510 c 0,29,30
 287 1504 287 1504 234 1504 c 0,31,32
 149 1504 149 1504 123 1509 c 128,-1,33
 97 1514 97 1514 83.5 1531 c 128,-1,34
 70 1548 70 1548 70 1567 c 128,-1,35
 70 1586 70 1586 83.5 1600 c 128,-1,36
 97 1614 97 1614 125 1614 c 2,0,-1
EndSplineSet
EndChar

StartChar: eight
Encoding: 56 56 46
Width: 955
Flags: W
LayerCount: 2
Fore
SplineSet
651.5 1446.5 m 128,-1,1
 596 1544 596 1544 472.5 1544 c 128,-1,2
 349 1544 349 1544 283.5 1447 c 128,-1,3
 218 1350 218 1350 218 1157 c 0,4,5
 218 979 218 979 286 858 c 0,6,7
 357 732 357 732 470 732 c 0,8,9
 584 732 584 732 648 858 c 0,10,11
 707 976 707 976 707 1162.5 c 128,-1,0
 707 1349 707 1349 651.5 1446.5 c 128,-1,1
563 700 m 1,12,13
 795 643 795 643 795 355 c 0,14,15
 795 195 795 195 707 90 c 0,16,17
 614 -22 614 -22 461 -22 c 0,18,19
 324 -22 324 -22 232 86 c 0,20,21
 140 195 140 195 140 353 c 0,22,23
 140 560 140 560 280 659 c 0,24,25
 321 688 321 688 366 710 c 1,26,-1
 355 682 l 1,27,28
 200 737 200 737 143 982 c 0,29,30
 122 1072 122 1072 122 1154 c 0,31,32
 122 1395 122 1395 211 1515 c 128,-1,33
 300 1635 300 1635 471.5 1635 c 128,-1,34
 643 1635 643 1635 725.5 1515 c 128,-1,35
 808 1395 808 1395 808 1154 c 0,36,37
 808 1023 808 1023 756 888 c 0,38,39
 692 720 692 720 563 670 c 1,40,-1
 563 700 l 1,12,13
474 72 m 0,41,42
 534 72 534 72 577.5 97.5 c 128,-1,43
 621 123 621 123 649 166 c 0,44,45
 704 249 704 249 704 374 c 0,46,47
 704 483 704 483 638 560 c 0,48,49
 570 640 570 640 461 640 c 0,50,51
 359 640 359 640 294 559 c 0,52,53
 234 483 234 483 234 372 c 0,54,55
 234 250 234 250 295 165 c 0,56,57
 361 72 361 72 474 72 c 0,41,42
EndSplineSet
EndChar

StartChar: nine
Encoding: 57 57 47
Width: 990
Flags: W
LayerCount: 2
Fore
SplineSet
774 793 m 1,0,1
 690 520 690 520 482 520 c 0,2,3
 321 520 321 520 233 666.5 c 128,-1,4
 145 813 145 813 145 1111 c 0,5,6
 145 1290 145 1290 224 1442 c 1,7,8
 319 1629 319 1629 492 1629 c 0,9,10
 691 1629 691 1629 772 1462 c 0,11,12
 852 1299 852 1299 852 909 c 0,13,14
 852 443 852 443 781 225 c 0,15,16
 701 -22 701 -22 512 -22 c 0,17,18
 394 -22 394 -22 303 75 c 0,19,20
 202 183 202 183 194 360 c 0,21,22
 192 394 192 394 207.5 410 c 128,-1,23
 223 426 223 426 240 426 c 256,24,25
 257 426 257 426 272 411.5 c 128,-1,26
 287 397 287 397 290.5 345 c 128,-1,27
 294 293 294 293 314 237.5 c 128,-1,28
 334 182 334 182 364 144 c 0,29,30
 424 69 424 69 512 69 c 0,31,32
 679 69 679 69 740 420 c 0,33,34
 764 562 764 562 764 722 c 2,35,-1
 764 797 l 1,36,-1
 774 793 l 1,0,1
755 1070 m 0,37,38
 755 1179 755 1179 738 1265 c 128,-1,39
 721 1351 721 1351 688 1412 c 0,40,41
 619 1540 619 1540 495 1540 c 0,42,43
 381 1540 381 1540 310 1404 c 0,44,45
 244 1278 244 1278 244 1136 c 128,-1,46
 244 994 244 994 258 901 c 128,-1,47
 272 808 272 808 301 743 c 0,48,49
 361 608 361 608 480 608 c 0,50,51
 600 608 600 608 676 729 c 0,52,53
 755 855 755 855 755 1070 c 0,37,38
EndSplineSet
EndChar

StartChar: less
Encoding: 60 60 50
Width: 951
Flags: W
LayerCount: 2
Fore
SplineSet
790.5 61 m 128,-1,1
 774 44 774 44 752.5 44 c 128,-1,2
 731 44 731 44 681 74.5 c 128,-1,3
 631 105 631 105 546 154 c 128,-1,4
 461 203 461 203 382 247 c 0,5,6
 211 342 211 342 145.5 372.5 c 128,-1,7
 80 403 80 403 66 413.5 c 128,-1,8
 52 424 52 424 52 445 c 128,-1,9
 52 466 52 466 65 476.5 c 128,-1,10
 78 487 78 487 130 509 c 128,-1,11
 182 531 182 531 268 574.5 c 128,-1,12
 354 618 354 618 435 664 c 0,13,14
 598 755 598 755 703 831 c 0,15,16
 726 848 726 848 747.5 848 c 128,-1,17
 769 848 769 848 788.5 834 c 128,-1,18
 808 820 808 820 808 796 c 0,19,20
 808 755 808 755 768 734 c 128,-1,21
 728 713 728 713 684 691.5 c 128,-1,22
 640 670 640 670 587.5 644 c 128,-1,23
 535 618 535 618 477.5 589.5 c 128,-1,24
 420 561 420 561 362 530 c 0,25,26
 232 463 232 463 135 407 c 1,27,-1
 135 480 l 1,28,29
 580 227 580 227 766 154 c 0,30,31
 807 137 807 137 807 107.5 c 128,-1,0
 807 78 807 78 790.5 61 c 128,-1,1
EndSplineSet
EndChar

StartChar: equal
Encoding: 61 61 51
Width: 945
Flags: W
LayerCount: 2
Fore
SplineSet
173 374 m 0,0,1
 263 366 263 366 461.5 366 c 128,-1,2
 660 366 660 366 772 373 c 0,3,4
 804 375 804 375 820.5 359 c 128,-1,5
 837 343 837 343 837 324.5 c 128,-1,6
 837 306 837 306 821.5 292 c 128,-1,7
 806 278 806 278 764 281 c 0,8,9
 652 289 652 289 521 289 c 0,10,11
 322 289 322 289 173 280 c 0,12,13
 139 278 139 278 123.5 293 c 128,-1,14
 108 308 108 308 108 327 c 128,-1,15
 108 346 108 346 124 361 c 128,-1,16
 140 376 140 376 173 374 c 0,0,1
173 590 m 0,17,18
 274 581 274 581 459 581 c 128,-1,19
 644 581 644 581 772 589 c 0,20,21
 804 591 804 591 820.5 574.5 c 128,-1,22
 837 558 837 558 837 539.5 c 128,-1,23
 837 521 837 521 821.5 506.5 c 128,-1,24
 806 492 806 492 784 494.5 c 128,-1,25
 762 497 762 497 736.5 499 c 128,-1,26
 711 501 711 501 676 502 c 0,27,28
 569 505 569 505 515 505 c 128,-1,29
 461 505 461 505 412 504.5 c 128,-1,30
 363 504 363 504 318 503 c 0,31,32
 238 501 238 501 188 498 c 0,33,34
 108 492 108 492 108 542 c 0,35,36
 108 561 108 561 124 576.5 c 128,-1,37
 140 592 140 592 173 590 c 0,17,18
EndSplineSet
EndChar

StartChar: greater
Encoding: 62 62 52
Width: 951
Flags: W
LayerCount: 2
Fore
SplineSet
203 55 m 0,0,1
 143 55 143 55 143 108 c 0,2,3
 143 146 143 146 182 162.5 c 128,-1,4
 221 179 221 179 272.5 202.5 c 128,-1,5
 324 226 324 226 384.5 254.5 c 128,-1,6
 445 283 445 283 510 315 c 128,-1,7
 575 347 575 347 634 378 c 0,8,9
 766 449 766 449 815 489 c 1,10,-1
 815 422 l 1,11,12
 380 669 380 669 185 748 c 0,13,14
 144 765 144 765 144 794.5 c 128,-1,15
 144 824 144 824 159.5 841 c 128,-1,16
 175 858 175 858 196.5 858 c 128,-1,17
 218 858 218 858 239 847 c 1,18,19
 592 629 592 629 845 512 c 0,20,21
 871 500 871 500 885 489.5 c 128,-1,22
 899 479 899 479 899 458 c 128,-1,23
 899 437 899 437 885 426.5 c 128,-1,24
 871 416 871 416 844 402.5 c 128,-1,25
 817 389 817 389 773.5 366 c 128,-1,26
 730 343 730 343 679 315 c 128,-1,27
 628 287 628 287 571.5 256 c 128,-1,28
 515 225 515 225 458 193 c 0,29,30
 397 158 397 158 316 111 c 128,-1,31
 235 64 235 64 224.5 59.5 c 128,-1,32
 214 55 214 55 203 55 c 0,0,1
EndSplineSet
EndChar

StartChar: question
Encoding: 63 63 53
Width: 879
Flags: W
LayerCount: 2
Fore
SplineSet
606 668 m 0,0,1
 668 668 668 668 668 581 c 128,-1,2
 668 494 668 494 650.5 435.5 c 128,-1,3
 633 377 633 377 602 337 c 0,4,5
 538 256 538 256 433 256 c 0,6,7
 343 256 343 256 280 324 c 1,8,9
 218 393 218 393 218 499.5 c 128,-1,10
 218 606 218 606 250.5 687 c 128,-1,11
 283 768 283 768 332 837 c 128,-1,12
 381 906 381 906 437.5 969.5 c 128,-1,13
 494 1033 494 1033 543 1102 c 0,14,15
 657 1261 657 1261 657 1434 c 0,16,17
 657 1560 657 1560 599.5 1627 c 128,-1,18
 542 1694 542 1694 446 1694 c 0,19,20
 360 1694 360 1694 300 1622 c 0,21,22
 241 1551 241 1551 241 1458 c 0,23,24
 241 1420 241 1420 255 1392 c 0,25,26
 282 1338 282 1338 282 1304 c 0,27,28
 282 1278 282 1278 265.5 1262.5 c 128,-1,29
 249 1247 249 1247 229 1247 c 0,30,31
 137 1247 137 1247 137 1444 c 0,32,33
 137 1579 137 1579 225 1680 c 0,34,35
 318 1786 318 1786 451 1786 c 0,36,37
 582 1786 582 1786 660 1697 c 0,38,39
 742 1603 742 1603 742 1440 c 0,40,41
 742 1222 742 1222 605 1039 c 0,42,43
 566 987 566 987 525.5 938.5 c 128,-1,44
 485 890 485 890 446 842.5 c 128,-1,45
 407 795 407 795 376 744 c 0,46,47
 309 631 309 631 309 511 c 0,48,49
 309 396 309 396 376 356 c 0,50,51
 399 343 399 343 432 343 c 0,52,53
 560 343 560 343 560 514 c 1,54,-1
 550 598 l 1,55,56
 550 635 550 635 566.5 651.5 c 128,-1,57
 583 668 583 668 606 668 c 0,0,1
501 99 m 128,-1,59
 509 83 509 83 509 60 c 128,-1,60
 509 37 509 37 500 20.5 c 128,-1,61
 491 4 491 4 476 -6 c 0,62,63
 450 -24 450 -24 413 -24 c 0,64,65
 360 -24 360 -24 338 24 c 0,66,67
 330 40 330 40 330 61 c 0,68,69
 330 121 330 121 388 140 c 0,70,71
 404 146 404 146 419.5 146 c 128,-1,72
 435 146 435 146 451 141 c 128,-1,73
 467 136 467 136 480 125.5 c 128,-1,58
 493 115 493 115 501 99 c 128,-1,59
EndSplineSet
EndChar

StartChar: at
Encoding: 64 64 54
Width: 1249
Flags: W
LayerCount: 2
Fore
SplineSet
854 100 m 0,0,1
 742 100 742 100 742 269 c 0,2,3
 742 283 742 283 745 314.5 c 128,-1,4
 748 346 748 346 750 370 c 128,-1,5
 752 394 752 394 754 415.5 c 128,-1,6
 756 437 756 437 757 453 c 128,-1,7
 758 469 758 469 759 474 c 1,8,-1
 772 456 l 1,9,10
 723 285 723 285 678 217 c 128,-1,11
 633 149 633 149 593 121 c 128,-1,12
 553 93 553 93 512 93 c 128,-1,13
 471 93 471 93 440.5 109 c 128,-1,14
 410 125 410 125 385 156 c 0,15,16
 330 223 330 223 330 319.5 c 128,-1,17
 330 416 330 416 346.5 479.5 c 128,-1,18
 363 543 363 543 390 592 c 128,-1,19
 417 641 417 641 452.5 676.5 c 128,-1,20
 488 712 488 712 527 735 c 0,21,22
 603 780 603 780 677 780 c 0,23,24
 744 780 744 780 800 730 c 0,25,26
 819 713 819 713 828 691 c 1,27,-1
 789 694 l 1,28,29
 796 724 796 724 816.5 736 c 128,-1,30
 837 748 837 748 852.5 748 c 128,-1,31
 868 748 868 748 881.5 734.5 c 128,-1,32
 895 721 895 721 895 700.5 c 128,-1,33
 895 680 895 680 890 664.5 c 128,-1,34
 885 649 885 649 880.5 629.5 c 128,-1,35
 876 610 876 610 866 571.5 c 128,-1,36
 856 533 856 533 846 484 c 0,37,38
 819 359 819 359 819 283 c 0,39,40
 819 179 819 179 877 179 c 0,41,42
 899 179 899 179 930 203 c 128,-1,43
 961 227 961 227 990 278 c 0,44,45
 1057 400 1057 400 1057 600 c 0,46,47
 1057 1015 1057 1015 689 1015 c 0,48,49
 492 1015 492 1015 344 844 c 0,50,51
 179 655 179 655 179 338 c 0,52,53
 179 109 179 109 296 -20 c 0,54,55
 415 -150 415 -150 627 -150 c 0,56,57
 745 -150 745 -150 799 -126 c 0,58,59
 873 -92 873 -92 925 -36 c 1,60,61
 934 -22 934 -22 944 -6 c 128,-1,62
 954 10 954 10 965 22 c 0,63,64
 990 51 990 51 1016 46 c 0,65,66
 1097 30 1097 30 1018 -80 c 0,67,68
 957 -164 957 -164 811 -208 c 0,69,70
 734 -232 734 -232 627 -232 c 0,71,72
 395 -232 395 -232 250 -98 c 0,73,74
 88 53 88 53 88 335 c 0,75,76
 88 680 88 680 276 898 c 0,77,78
 453 1103 453 1103 700 1103 c 0,79,80
 885 1103 885 1103 1006 994 c 0,81,82
 1150 865 1150 865 1150 616 c 0,83,84
 1150 403 1150 403 1066 252 c 1,85,86
 980 100 980 100 854 100 c 0,0,1
780 621 m 1,87,88
 763 687 763 687 669 687 c 0,89,90
 564 687 564 687 492 590.5 c 128,-1,91
 420 494 420 494 420 349 c 0,92,93
 420 264 420 264 446 223.5 c 128,-1,94
 472 183 472 183 513 183 c 128,-1,95
 554 183 554 183 593 227 c 128,-1,96
 632 271 632 271 666 342 c 0,97,98
 732 480 732 480 777 682 c 1,99,-1
 780 621 l 1,87,88
EndSplineSet
EndChar

StartChar: A
Encoding: 65 65 55
Width: 933
Flags: W
LayerCount: 2
Fore
SplineSet
793.5 2 m 128,-1,1
 778 13 778 13 766 67 c 128,-1,2
 754 121 754 121 727 242 c 128,-1,3
 700 363 700 363 669 502.5 c 128,-1,4
 638 642 638 642 605 791 c 128,-1,5
 572 940 572 940 542 1080 c 0,6,7
 482 1354 482 1354 443 1548 c 1,8,-1
 470 1548 l 1,9,10
 447 1433 447 1433 390.5 1169 c 128,-1,11
 334 905 334 905 305 767 c 128,-1,12
 276 629 276 629 250 500 c 0,13,14
 189 206 189 206 160 45 c 0,15,16
 150 -6 150 -6 107 -6 c 0,17,18
 62 -6 62 -6 52 38 c 0,19,20
 49 51 49 51 58 79 c 128,-1,21
 67 107 67 107 84.5 175.5 c 128,-1,22
 102 244 102 244 122.5 332.5 c 128,-1,23
 143 421 143 421 166 526 c 128,-1,24
 189 631 189 631 213 742 c 128,-1,25
 237 853 237 853 261 965.5 c 128,-1,26
 285 1078 285 1078 307 1183 c 128,-1,27
 329 1288 329 1288 348.5 1380 c 128,-1,28
 368 1472 368 1472 380 1526 c 1,29,30
 399 1621 399 1621 460 1621 c 0,31,32
 484 1621 484 1621 504 1601 c 128,-1,33
 524 1581 524 1581 535.5 1517.5 c 128,-1,34
 547 1454 547 1454 570.5 1336 c 128,-1,35
 594 1218 594 1218 623 1084 c 128,-1,36
 652 950 652 950 684 807.5 c 128,-1,37
 716 665 716 665 748 531 c 0,38,39
 825 217 825 217 868 72 c 0,40,41
 878 35 878 35 862.5 13 c 128,-1,42
 847 -9 847 -9 828 -9 c 128,-1,0
 809 -9 809 -9 793.5 2 c 128,-1,1
475 516 m 0,43,44
 660 516 660 516 719 509 c 1,45,-1
 719 609 l 1,46,47
 663 601 663 601 476 601 c 128,-1,48
 289 601 289 601 213 609 c 1,49,-1
 213 509 l 1,50,51
 286 516 286 516 475 516 c 0,43,44
EndSplineSet
EndChar

StartChar: B
Encoding: 66 66 56
Width: 906
Flags: W
LayerCount: 2
Fore
SplineSet
253 1533 m 1,0,1
 254 1510 254 1510 254 1507.5 c 128,-1,2
 254 1505 254 1505 253.5 1509 c 128,-1,3
 253 1513 253 1513 252.5 1516 c 128,-1,4
 252 1519 252 1519 251 1506 c 128,-1,5
 250 1493 250 1493 249 1457.5 c 128,-1,6
 248 1422 248 1422 247 1349 c 0,7,8
 245 1203 245 1203 245 1026 c 2,9,10
 245 1026 245 1026 245 800 c 0,11,12
 245 750 245 750 245.5 679.5 c 128,-1,13
 246 609 246 609 246.5 525 c 128,-1,14
 247 441 247 441 248 357 c 0,15,16
 251 127 251 127 253 65 c 1,17,-1
 229 99 l 1,18,19
 325 97 325 97 410 136.5 c 128,-1,20
 495 176 495 176 547 215.5 c 128,-1,21
 599 255 599 255 640 307 c 0,22,23
 730 421 730 421 730 567 c 0,24,25
 730 670 730 670 649 725 c 0,26,27
 576 774 576 774 465 774 c 0,28,29
 369 774 369 774 305 752 c 128,-1,30
 241 730 241 730 223 717 c 1,31,-1
 234 820 l 1,32,33
 376 845 376 845 536 986 c 0,34,35
 646 1083 646 1083 694 1202 c 0,36,37
 718 1264 718 1264 718 1326 c 128,-1,38
 718 1388 718 1388 698.5 1427.5 c 128,-1,39
 679 1467 679 1467 646 1492 c 1,40,41
 583 1537 583 1537 473 1537 c 0,42,43
 327 1537 327 1537 219 1476 c 1,44,-1
 253 1533 l 1,0,1
418 839 m 1,45,-1
 498 855 l 1,46,47
 649 853 649 853 734 781.5 c 128,-1,48
 819 710 819 710 819 578 c 0,49,50
 819 417 819 417 723 280 c 0,51,52
 594 95 594 95 360 22 c 0,53,54
 216 -22 216 -22 176 5 c 0,55,56
 152 21 152 21 152 62 c 2,57,-1
 162 864 l 1,58,-1
 162 973 l 2,59,60
 162 1116 162 1116 157.5 1207 c 128,-1,61
 153 1298 153 1298 150 1359 c 128,-1,62
 147 1420 147 1420 144.5 1470.5 c 128,-1,63
 142 1521 142 1521 148.5 1534.5 c 128,-1,64
 155 1548 155 1548 166 1555 c 0,65,66
 191 1572 191 1572 306.5 1594 c 128,-1,67
 422 1616 422 1616 485 1616 c 0,68,69
 812 1616 812 1616 812 1340 c 0,70,71
 812 1116 812 1116 576 932 c 0,72,73
 504 876 504 876 418 821 c 1,74,-1
 418 839 l 1,45,-1
EndSplineSet
EndChar

StartChar: C
Encoding: 67 67 57
Width: 929
Flags: W
LayerCount: 2
Fore
SplineSet
715 413 m 0,0,1
 715 446 715 446 731.5 464.5 c 128,-1,2
 748 483 748 483 769.5 483 c 128,-1,3
 791 483 791 483 807.5 467.5 c 128,-1,4
 824 452 824 452 822 420 c 0,5,6
 812 218 812 218 713 95 c 0,7,8
 618 -23 618 -23 475 -23 c 0,9,10
 205 -23 205 -23 126 381 c 0,11,12
 96 530 96 530 96 732.5 c 128,-1,13
 96 935 96 935 121 1093.5 c 128,-1,14
 146 1252 146 1252 197 1369 c 0,15,16
 306 1619 306 1619 507 1619 c 0,17,18
 663 1619 663 1619 738 1496 c 0,19,20
 817 1365 817 1365 817 1068 c 0,21,22
 817 1035 817 1035 802 1018.5 c 128,-1,23
 787 1002 787 1002 766 1002 c 0,24,25
 720 1002 720 1002 720 1060 c 0,26,27
 720 1430 720 1430 602 1501 c 0,28,29
 560 1526 560 1526 504 1526 c 128,-1,30
 448 1526 448 1526 403.5 1494.5 c 128,-1,31
 359 1463 359 1463 324.5 1407.5 c 128,-1,32
 290 1352 290 1352 265 1276.5 c 128,-1,33
 240 1201 240 1201 224 1114 c 0,34,35
 192 938 192 938 192 766.5 c 128,-1,36
 192 595 192 595 203 491.5 c 128,-1,37
 214 388 214 388 234 314.5 c 128,-1,38
 254 241 254 241 281.5 194.5 c 128,-1,39
 309 148 309 148 342 121 c 0,40,41
 398 74 398 74 485 74 c 0,42,43
 582 74 582 74 644 153 c 1,44,45
 717 244 717 244 715 413 c 0,0,1
EndSplineSet
EndChar

StartChar: D
Encoding: 68 68 58
Width: 978
Flags: W
LayerCount: 2
Fore
SplineSet
862 1242 m 0,0,1
 894 1120 894 1120 894 972.5 c 128,-1,2
 894 825 894 825 869 698.5 c 128,-1,3
 844 572 844 572 799 464.5 c 128,-1,4
 754 357 754 357 691.5 270.5 c 128,-1,5
 629 184 629 184 553 123 c 0,6,7
 396 -3 396 -3 212 -3 c 0,8,9
 183 -3 183 -3 174.5 15.5 c 128,-1,10
 166 34 166 34 166 60 c 2,11,-1
 166 146 l 2,12,13
 166 208 166 208 165.5 296.5 c 128,-1,14
 165 385 165 385 164.5 493.5 c 128,-1,15
 164 602 164 602 162.5 718.5 c 128,-1,16
 161 835 161 835 159.5 953.5 c 128,-1,17
 158 1072 158 1072 156 1180 c 0,18,19
 150 1404 150 1404 142 1533 c 0,20,21
 137 1601 137 1601 202 1609 c 1,22,23
 298 1623 298 1623 360 1623 c 0,24,25
 762 1623 762 1623 862 1242 c 0,0,1
262 1554 m 1,26,27
 251 1450 251 1450 251 1227 c 128,-1,28
 251 1004 251 1004 252 886 c 128,-1,29
 253 768 253 768 254.5 655 c 128,-1,30
 256 542 256 542 257.5 438.5 c 128,-1,31
 259 335 259 335 261 253 c 0,32,33
 265 98 265 98 268 43 c 1,34,-1
 234 92 l 1,35,36
 363 82 363 82 491 188 c 0,37,38
 699 361 699 361 769 704 c 0,39,40
 793 822 793 822 793 971.5 c 128,-1,41
 793 1121 793 1121 756.5 1231.5 c 128,-1,42
 720 1342 720 1342 662 1408 c 0,43,44
 553 1532 553 1532 381 1532 c 0,45,46
 277 1532 277 1532 226 1502 c 1,47,-1
 262 1554 l 1,26,27
EndSplineSet
EndChar

StartChar: E
Encoding: 69 69 59
Width: 760
Flags: W
LayerCount: 2
Fore
SplineSet
258 549 m 1,0,-1
 260 194 l 2,1,2
 260 146 260 146 260.5 112 c 128,-1,3
 261 78 261 78 261 63 c 1,4,-1
 234 86 l 1,5,6
 509 86 509 86 595.5 94.5 c 128,-1,7
 682 103 682 103 696 99 c 128,-1,8
 710 95 710 95 720 86 c 0,9,10
 740 68 740 68 740 46.5 c 128,-1,11
 740 25 740 25 721 9.5 c 128,-1,12
 702 -6 702 -6 668 -4 c 0,13,14
 504 9 504 9 372 0.5 c 128,-1,15
 240 -8 240 -8 224 -10.5 c 128,-1,16
 208 -13 208 -13 195.5 -10.5 c 128,-1,17
 183 -8 183 -8 173 0 c 0,18,19
 150 17 150 17 152 50 c 0,20,21
 167 339 167 339 167 689.5 c 128,-1,22
 167 1040 167 1040 167.5 1130.5 c 128,-1,23
 168 1221 168 1221 168 1296 c 0,24,25
 166 1457 166 1457 161 1523.5 c 128,-1,26
 156 1590 156 1590 163.5 1603 c 128,-1,27
 171 1616 171 1616 182 1622 c 0,28,29
 197 1629 197 1629 220 1625 c 0,30,31
 262 1618 262 1618 331 1618 c 0,32,33
 464 1618 464 1618 512.5 1623.5 c 128,-1,34
 561 1629 561 1629 575 1624.5 c 128,-1,35
 589 1620 589 1620 598 1612 c 0,36,37
 618 1596 618 1596 618 1573 c 128,-1,38
 618 1550 618 1550 600 1535 c 128,-1,39
 582 1520 582 1520 551 1521.5 c 128,-1,40
 520 1523 520 1523 485 1525.5 c 128,-1,41
 450 1528 450 1528 410 1530 c 0,42,43
 313 1533 313 1533 246 1526 c 1,44,-1
 264 1561 l 1,45,46
 264 1457 264 1457 263 1355 c 128,-1,47
 262 1253 262 1253 261 1148 c 0,48,49
 258 833 258 833 258 703 c 1,50,-1
 241 732 l 1,51,52
 379 732 379 732 442.5 738.5 c 128,-1,53
 506 745 506 745 522.5 732 c 128,-1,54
 539 719 539 719 539 697 c 0,55,56
 539 642 539 642 436 644 c 0,57,58
 415 645 415 645 398 645 c 2,59,-1
 317 646 l 2,60,61
 276 646 276 646 234 646 c 1,62,-1
 258 679 l 1,63,-1
 258 549 l 1,0,-1
EndSplineSet
EndChar

StartChar: F
Encoding: 70 70 60
Width: 616
Flags: W
LayerCount: 2
Fore
SplineSet
177 447 m 2,0,-1
 176 926 l 2,1,2
 176 1262 176 1262 152 1564 c 0,3,4
 149 1609 149 1609 181 1622 c 0,5,6
 199 1630 199 1630 223 1626 c 0,7,8
 265 1619 265 1619 325 1619 c 128,-1,9
 385 1619 385 1619 412.5 1619.5 c 128,-1,10
 440 1620 440 1620 468 1621 c 0,11,12
 538 1624 538 1624 563.5 1627 c 128,-1,13
 589 1630 589 1630 602.5 1626 c 128,-1,14
 616 1622 616 1622 626 1614 c 0,15,16
 646 1596 646 1596 646 1573.5 c 128,-1,17
 646 1551 646 1551 628 1536 c 128,-1,18
 610 1521 610 1521 578.5 1522.5 c 128,-1,19
 547 1524 547 1524 509 1526.5 c 128,-1,20
 471 1529 471 1529 427 1530 c 0,21,22
 322 1534 322 1534 253 1527 c 1,23,-1
 271 1562 l 1,24,-1
 271 1356 l 2,25,26
 271 1254 271 1254 270 1148 c 0,27,28
 269 832 269 832 269 703 c 1,29,-1
 253 732 l 1,30,31
 402 732 402 732 484.5 740.5 c 128,-1,32
 567 749 567 749 567 697 c 0,33,34
 567 647 567 647 452 646 c 0,35,36
 423 645 423 645 406 645 c 2,37,-1
 326 646 l 2,38,39
 286 646 286 646 246 646 c 1,40,-1
 269 679 l 1,41,-1
 278 61 l 2,42,43
 278 35 278 35 264.5 17.5 c 128,-1,44
 251 0 251 0 235 0 c 128,-1,45
 219 0 219 0 209 2.5 c 128,-1,46
 199 5 199 5 190 12 c 0,47,48
 169 30 169 30 171 61 c 0,49,50
 177 176 177 176 177 447 c 2,0,-1
EndSplineSet
EndChar

StartChar: G
Encoding: 71 71 61
Width: 936
Flags: W
LayerCount: 2
Fore
SplineSet
817 1164 m 1,0,1
 819 1098 819 1098 772 1098 c 0,2,3
 752 1098 752 1098 736 1112.5 c 128,-1,4
 720 1127 720 1127 720 1156 c 0,5,6
 720 1470 720 1470 586 1522 c 0,7,8
 544 1538 544 1538 476.5 1533 c 128,-1,9
 409 1528 409 1528 351.5 1471.5 c 128,-1,10
 294 1415 294 1415 258 1320 c 0,11,12
 190 1142 190 1142 190 826 c 0,13,14
 190 156 190 156 410 88 c 0,15,16
 447 77 447 77 487 77 c 0,17,18
 681 77 681 77 724 442 c 0,19,20
 742 601 742 601 734 638 c 1,21,-1
 758 609 l 1,22,23
 654 617 654 617 588.5 609 c 128,-1,24
 523 601 523 601 499 601 c 128,-1,25
 475 601 475 601 460.5 618 c 128,-1,26
 446 635 446 635 446 655.5 c 128,-1,27
 446 676 446 676 461 692 c 128,-1,28
 476 708 476 708 507.5 703.5 c 128,-1,29
 539 699 539 699 570 699 c 2,30,-1
 628 699 l 2,31,32
 680 699 680 699 707 703 c 0,33,34
 754 710 754 710 777 710 c 0,35,36
 829 710 829 710 829 651 c 0,37,38
 829 336 829 336 736 157 c 1,39,40
 641 -23 641 -23 478 -23 c 0,41,42
 281 -23 281 -23 187 184 c 0,43,44
 92 395 92 395 92 845 c 0,45,46
 92 1607 92 1607 497 1630 c 1,47,48
 817 1647 817 1647 817 1164 c 1,0,1
EndSplineSet
EndChar

StartChar: H
Encoding: 72 72 62
Width: 990
Flags: W
LayerCount: 2
Fore
SplineSet
735 1112 m 1,0,-1
 734 1270 l 2,1,2
 734 1308 734 1308 733.5 1351.5 c 128,-1,3
 733 1395 733 1395 732.5 1445.5 c 128,-1,4
 732 1496 732 1496 731 1543.5 c 128,-1,5
 730 1591 730 1591 748 1606 c 128,-1,6
 766 1621 766 1621 786 1621 c 256,7,8
 806 1621 806 1621 822.5 1606 c 128,-1,9
 839 1591 839 1591 838 1559 c 0,10,11
 822 1004 822 1004 822 689 c 0,12,13
 822 182 822 182 829 63 c 0,14,15
 831 31 831 31 814.5 15 c 128,-1,16
 798 -1 798 -1 778.5 -1 c 128,-1,17
 759 -1 759 -1 743.5 14.5 c 128,-1,18
 728 30 728 30 729 62 c 0,19,20
 735 518 735 518 735 794 c 2,21,-1
 735 1112 l 1,0,-1
245 723 m 1,22,23
 307 711 307 711 493.5 711 c 128,-1,24
 680 711 680 711 752 723 c 1,25,-1
 752 625 l 1,26,27
 662 635 662 635 491.5 635 c 128,-1,28
 321 635 321 635 245 625 c 1,29,30
 215 625 215 625 201 643 c 128,-1,31
 187 661 187 661 187 677 c 128,-1,32
 187 693 187 693 191.5 703.5 c 128,-1,33
 196 714 196 714 204 720 c 1,34,35
 221 736 221 736 245 723 c 1,22,23
255.5 1103.5 m 128,-1,37
 255 1006 255 1006 255 675 c 128,-1,38
 255 344 255 344 262 68 c 0,39,40
 263 35 263 35 245 18 c 128,-1,41
 227 1 227 1 206.5 1 c 128,-1,42
 186 1 186 1 170 16.5 c 128,-1,43
 154 32 154 32 156 87 c 128,-1,44
 158 142 158 142 160 245 c 128,-1,45
 162 348 162 348 164 464 c 0,46,47
 166 659 166 659 166 863 c 128,-1,48
 166 1067 166 1067 165.5 1150.5 c 128,-1,49
 165 1234 165 1234 164 1303 c 0,50,51
 161 1411 161 1411 152 1553 c 0,52,53
 150 1585 150 1585 168 1600.5 c 128,-1,54
 186 1616 186 1616 208 1616 c 256,55,56
 230 1616 230 1616 248 1600.5 c 128,-1,57
 266 1585 266 1585 264 1538.5 c 128,-1,58
 262 1492 262 1492 260 1426 c 128,-1,59
 258 1360 258 1360 257 1280.5 c 128,-1,36
 256 1201 256 1201 255.5 1103.5 c 128,-1,37
EndSplineSet
EndChar

StartChar: I
Encoding: 73 73 63
Width: 492
Flags: W
LayerCount: 2
Fore
SplineSet
291.5 1312.5 m 128,-1,1
 291 1258 291 1258 291 874 c 128,-1,2
 291 490 291 490 303 66 c 0,3,4
 304 34 304 34 284.5 17 c 128,-1,5
 265 0 265 0 243.5 0 c 128,-1,6
 222 0 222 0 205.5 15 c 128,-1,7
 189 30 189 30 191 82 c 128,-1,8
 193 134 193 134 195 226 c 128,-1,9
 197 318 197 318 199 422 c 0,10,11
 203 628 203 628 203 806.5 c 128,-1,12
 203 985 203 985 202.5 1084.5 c 128,-1,13
 202 1184 202 1184 200 1268 c 0,14,15
 197 1454 197 1454 189 1565 c 0,16,17
 186 1597 186 1597 200.5 1612.5 c 128,-1,18
 215 1628 215 1628 238 1628 c 256,19,20
 261 1628 261 1628 281 1612.5 c 128,-1,21
 301 1597 301 1597 299.5 1560 c 128,-1,22
 298 1523 298 1523 296.5 1487 c 128,-1,23
 295 1451 295 1451 293.5 1409 c 128,-1,0
 292 1367 292 1367 291.5 1312.5 c 128,-1,1
EndSplineSet
EndChar

StartChar: J
Encoding: 74 74 64
Width: 818
Flags: W
LayerCount: 2
Fore
SplineSet
640 1559 m 0,0,1
 636 1087 636 1087 636 976 c 2,2,-1
 636 563 l 2,3,4
 636 261 636 261 568 122 c 0,5,6
 498 -22 498 -22 335 -22 c 0,7,8
 210 -22 210 -22 136 92 c 0,9,10
 57 212 57 212 57 430 c 0,11,12
 57 541 57 541 76.5 560 c 128,-1,13
 96 579 96 579 121 579 c 256,14,15
 146 579 146 579 160.5 560 c 128,-1,16
 175 541 175 541 172 508 c 0,17,18
 166 456 166 456 166 376 c 128,-1,19
 166 296 166 296 180 235 c 128,-1,20
 194 174 194 174 218 136 c 0,21,22
 264 65 264 65 342 65 c 0,23,24
 447 65 447 65 492 169 c 0,25,26
 538 276 538 276 540 544 c 1,27,28
 542 664 542 664 542 851 c 128,-1,29
 542 1038 542 1038 542.5 1118.5 c 128,-1,30
 543 1199 543 1199 542 1272 c 0,31,32
 540 1425 540 1425 529 1560 c 0,33,34
 526 1592 526 1592 543 1606.5 c 128,-1,35
 560 1621 560 1621 581 1621 c 256,36,37
 602 1621 602 1621 621 1606 c 128,-1,38
 640 1591 640 1591 640 1559 c 0,0,1
EndSplineSet
EndChar

StartChar: K
Encoding: 75 75 65
Width: 950
Flags: W
LayerCount: 2
Fore
SplineSet
822 1582 m 128,-1,1
 824 1566 824 1566 800 1509.5 c 128,-1,2
 776 1453 776 1453 696 1309 c 128,-1,3
 616 1165 616 1165 509 971 c 1,4,-1
 516 1025 l 1,5,6
 579 839 579 839 659.5 641 c 128,-1,7
 740 443 740 443 774 359 c 0,8,9
 855 158 855 158 874 112.5 c 128,-1,10
 893 67 893 67 891 51.5 c 128,-1,11
 889 36 889 36 881 24 c 0,12,13
 864 0 864 0 841 0 c 0,14,15
 799 0 799 0 783 41 c 1,16,17
 561 681 561 681 463 925 c 1,18,-1
 489 937 l 1,19,20
 346 668 346 668 249 518 c 1,21,-1
 266 586 l 1,22,23
 266 262 266 262 270 66 c 0,24,25
 271 34 271 34 252.5 17 c 128,-1,26
 234 0 234 0 212 0 c 256,27,28
 190 0 190 0 172.5 15 c 128,-1,29
 155 30 155 30 157 85.5 c 128,-1,30
 159 141 159 141 162 245 c 128,-1,31
 165 349 165 349 168 467 c 0,32,33
 174 703 174 703 174 888.5 c 128,-1,34
 174 1074 174 1074 173 1157.5 c 128,-1,35
 172 1241 172 1241 170 1310 c 0,36,37
 165 1427 165 1427 152 1562 c 0,38,39
 149 1594 149 1594 168.5 1609.5 c 128,-1,40
 188 1625 188 1625 212.5 1625 c 128,-1,41
 237 1625 237 1625 257.5 1609.5 c 128,-1,42
 278 1594 278 1594 277 1562 c 0,43,44
 266 1298 266 1298 266 656 c 1,45,-1
 252 664 l 1,46,47
 506 1094 506 1094 662 1466 c 0,48,49
 692 1537 692 1537 705.5 1575.5 c 128,-1,50
 719 1614 719 1614 733.5 1624 c 128,-1,51
 748 1634 748 1634 763 1634 c 128,-1,52
 778 1634 778 1634 790.5 1627.5 c 128,-1,53
 803 1621 803 1621 811.5 1609.5 c 128,-1,0
 820 1598 820 1598 822 1582 c 128,-1,1
EndSplineSet
EndChar

StartChar: L
Encoding: 76 76 66
Width: 764
Flags: W
LayerCount: 2
Fore
SplineSet
208 1625 m 0,0,1
 269 1625 269 1625 269 1538 c 0,2,3
 269 1420 269 1420 267.5 1289.5 c 128,-1,4
 266 1159 266 1159 265 1053 c 128,-1,5
 264 947 264 947 263 806 c 0,6,7
 261 505 261 505 259 64 c 1,8,-1
 243 87 l 1,9,10
 451 82 451 82 641 101 c 0,11,12
 677 105 677 105 697 86 c 128,-1,13
 717 67 717 67 717 46 c 128,-1,14
 717 25 717 25 699 9.5 c 128,-1,15
 681 -6 681 -6 646 -4 c 0,16,17
 532 5 532 5 400.5 0 c 128,-1,18
 269 -5 269 -5 242 -9 c 128,-1,19
 215 -13 215 -13 202.5 -10.5 c 128,-1,20
 190 -8 190 -8 180 0 c 0,21,22
 158 17 158 17 160 50 c 0,23,24
 172 284 172 284 172 661.5 c 128,-1,25
 172 1039 172 1039 171.5 1128.5 c 128,-1,26
 171 1218 171 1218 169 1293 c 0,27,28
 165 1442 165 1442 152 1561 c 0,29,30
 149 1593 149 1593 167 1609 c 128,-1,31
 185 1625 185 1625 208 1625 c 0,0,1
EndSplineSet
EndChar

StartChar: M
Encoding: 77 77 67
Width: 1319
Flags: W
LayerCount: 2
Fore
SplineSet
1150 1254 m 2,0,-1
 1151 893 l 1,1,2
 1151 515 1151 515 1167 62 c 0,3,4
 1168 30 1168 30 1150.5 15 c 128,-1,5
 1133 0 1133 0 1111 0 c 256,6,7
 1089 0 1089 0 1071 17 c 128,-1,8
 1053 34 1053 34 1053 66 c 1,9,10
 1068 516 1068 516 1068 816 c 2,11,-1
 1068 1334 l 2,12,13
 1068 1477 1068 1477 1064 1577 c 1,14,-1
 1100 1578 l 1,15,16
 1089 1522 1089 1522 1009.5 1222.5 c 128,-1,17
 930 923 930 923 898 808.5 c 128,-1,18
 866 694 866 694 834 583 c 0,19,20
 768 354 768 354 711 181 c 0,21,22
 705 161 705 161 687.5 151 c 128,-1,23
 670 141 670 141 654 141 c 0,24,25
 623 141 623 141 612 181 c 0,26,27
 607 197 607 197 588.5 258.5 c 128,-1,28
 570 320 570 320 542.5 410.5 c 128,-1,29
 515 501 515 501 481.5 613.5 c 128,-1,30
 448 726 448 726 412.5 844 c 128,-1,31
 377 962 377 962 343 1078 c 128,-1,32
 309 1194 309 1194 281 1292 c 0,33,34
 222 1501 222 1501 209 1567 c 1,35,-1
 243 1566 l 1,36,37
 242 1522 242 1522 242 1473 c 2,38,-1
 244 1184 l 1,39,40
 244 731 244 731 253.5 435 c 128,-1,41
 263 139 263 139 264 91 c 128,-1,42
 265 43 265 43 259.5 32 c 128,-1,43
 254 21 254 21 245 14 c 0,44,45
 206 -19 206 -19 168 16 c 0,46,47
 150 33 150 33 152.5 76 c 128,-1,48
 155 119 155 119 157 183.5 c 128,-1,49
 159 248 159 248 160 320 c 0,50,51
 164 490 164 490 164 635 c 1,52,-1
 152 1545 l 2,53,54
 152 1590 152 1590 173 1608.5 c 128,-1,55
 194 1627 194 1627 222 1627 c 0,56,57
 275 1627 275 1627 295 1563 c 0,58,59
 297 1557 297 1557 305.5 1527.5 c 128,-1,60
 314 1498 314 1498 328 1450.5 c 128,-1,61
 342 1403 342 1403 360.5 1340.5 c 128,-1,62
 379 1278 379 1278 400 1206 c 128,-1,63
 421 1134 421 1134 444 1055 c 0,64,65
 527 770 527 770 675 267 c 1,66,-1
 652 267 l 1,67,68
 720 443 720 443 938 1259 c 0,69,70
 977 1407 977 1407 1016 1561 c 0,71,72
 1034 1630 1034 1630 1099 1630 c 0,73,74
 1125 1630 1125 1630 1140.5 1604.5 c 128,-1,75
 1156 1579 1156 1579 1154 1531 c 0,76,77
 1150 1464 1150 1464 1150 1254 c 2,0,-1
EndSplineSet
EndChar

StartChar: N
Encoding: 78 78 68
Width: 1072
Flags: W
LayerCount: 2
Fore
SplineSet
918 1567 m 0,0,1
 912 1069 912 1069 912 862.5 c 128,-1,2
 912 656 912 656 912.5 559.5 c 128,-1,3
 913 463 913 463 914 376 c 0,4,5
 916 192 916 192 918.5 124.5 c 128,-1,6
 921 57 921 57 915 44 c 128,-1,7
 909 31 909 31 899 22 c 0,8,9
 858 -15 858 -15 812 15 c 0,10,11
 794 27 794 27 786 51 c 0,12,13
 698 309 698 309 574 611.5 c 128,-1,14
 450 914 450 914 401 1039 c 0,15,16
 281 1344 281 1344 204 1581 c 1,17,-1
 245 1581 l 1,18,-1
 259 60 l 2,19,20
 259 29 259 29 243 14 c 128,-1,21
 227 -1 227 -1 206.5 -1 c 128,-1,22
 186 -1 186 -1 168.5 15.5 c 128,-1,23
 151 32 151 32 152 65 c 0,24,25
 162 340 162 340 162 692 c 2,26,-1
 162 1285 l 2,27,28
 162 1440 162 1440 160 1552 c 0,29,30
 160 1589 160 1589 182.5 1608.5 c 128,-1,31
 205 1628 205 1628 230 1628 c 0,32,33
 286 1628 286 1628 304 1575 c 128,-1,34
 322 1522 322 1522 355 1432.5 c 128,-1,35
 388 1343 388 1343 429 1233.5 c 128,-1,36
 470 1124 470 1124 517 1001.5 c 128,-1,37
 564 879 564 879 611 757.5 c 128,-1,38
 658 636 658 636 702 522 c 128,-1,39
 746 408 746 408 782 315 c 128,-1,40
 818 222 818 222 843 156.5 c 128,-1,41
 868 91 868 91 877 68 c 1,42,-1
 849 68 l 1,43,44
 838 297 838 297 832.5 578 c 128,-1,45
 827 859 827 859 823.5 999 c 128,-1,46
 820 1139 820 1139 816.5 1282.5 c 128,-1,47
 813 1426 813 1426 808 1567 c 1,48,49
 808 1599 808 1599 825.5 1614.5 c 128,-1,50
 843 1630 843 1630 864 1630 c 128,-1,51
 885 1630 885 1630 901.5 1614.5 c 128,-1,52
 918 1599 918 1599 918 1567 c 0,0,1
EndSplineSet
EndChar

StartChar: O
Encoding: 79 79 69
Width: 1027
Flags: W
LayerCount: 2
Fore
SplineSet
629 1513.5 m 128,-1,1
 582 1543 582 1543 525 1543 c 128,-1,2
 468 1543 468 1543 422 1513.5 c 128,-1,3
 376 1484 376 1484 338.5 1432 c 128,-1,4
 301 1380 301 1380 272.5 1309.5 c 128,-1,5
 244 1239 244 1239 224 1158 c 0,6,7
 185 992 185 992 185 826.5 c 128,-1,8
 185 661 185 661 197.5 549 c 128,-1,9
 210 437 210 437 232 355.5 c 128,-1,10
 254 274 254 274 284.5 219.5 c 128,-1,11
 315 165 315 165 350 132 c 0,12,13
 415 73 415 73 505 73 c 0,14,15
 771 73 771 73 828 562 c 0,16,17
 841 674 841 674 841 790 c 128,-1,18
 841 906 841 906 834 993 c 128,-1,19
 827 1080 827 1080 811.5 1160.5 c 128,-1,20
 796 1241 796 1241 771.5 1311 c 128,-1,21
 747 1381 747 1381 711.5 1432.5 c 128,-1,0
 676 1484 676 1484 629 1513.5 c 128,-1,1
495 -23 m 128,-1,23
 286 -23 286 -23 187.5 193 c 128,-1,24
 89 409 89 409 89 831 c 0,25,26
 89 1164 89 1164 202 1390 c 0,27,28
 258 1500 258 1500 338 1565.5 c 128,-1,29
 418 1631 418 1631 522.5 1631 c 128,-1,30
 627 1631 627 1631 705 1576.5 c 128,-1,31
 783 1522 783 1522 834 1419 c 0,32,33
 934 1217 934 1217 936 831 c 0,34,35
 938 425 938 425 820 199 c 0,36,22
 704 -23 704 -23 495 -23 c 128,-1,23
EndSplineSet
EndChar

StartChar: P
Encoding: 80 80 70
Width: 865
Flags: W
LayerCount: 2
Fore
SplineSet
264 1518 m 1,0,1
 256 1331 256 1331 256 1132 c 2,2,-1
 256 830 l 2,3,4
 256 811 256 811 257 793 c 128,-1,5
 258 775 258 775 258.5 754.5 c 128,-1,6
 259 734 259 734 260.5 701.5 c 128,-1,7
 262 669 262 669 264 620 c 128,-1,8
 266 571 266 571 268 496 c 0,9,10
 278 215 278 215 282 70 c 0,11,12
 283 36 283 36 265.5 19.5 c 128,-1,13
 248 3 248 3 227.5 3 c 128,-1,14
 207 3 207 3 191 18.5 c 128,-1,15
 175 34 175 34 175 68 c 2,16,-1
 175 294 l 1,17,-1
 174 604 l 1,18,-1
 174 882 l 2,19,20
 174 1154 174 1154 169.5 1228 c 128,-1,21
 165 1302 165 1302 163 1340 c 128,-1,22
 161 1378 161 1378 158 1417.5 c 128,-1,23
 155 1457 155 1457 152.5 1495 c 128,-1,24
 150 1533 150 1533 157.5 1547 c 128,-1,25
 165 1561 165 1561 176 1567.5 c 128,-1,26
 187 1574 187 1574 199 1576 c 128,-1,27
 211 1578 211 1578 250 1588 c 0,28,29
 373 1618 373 1618 468 1618 c 128,-1,30
 563 1618 563 1618 629 1594 c 128,-1,31
 695 1570 695 1570 742 1521 c 0,32,33
 842 1418 842 1418 842 1227 c 0,34,35
 842 967 842 967 660 750 c 0,36,37
 509 570 509 570 256 433 c 1,38,-1
 255 530 l 1,39,40
 750 793 750 793 750 1218 c 0,41,42
 750 1449 750 1449 590 1515 c 0,43,44
 471 1564 471 1564 301 1506 c 0,45,46
 270 1496 270 1496 245 1484 c 1,47,-1
 264 1518 l 1,0,1
EndSplineSet
EndChar

StartChar: Q
Encoding: 81 81 71
Width: 1027
Flags: W
LayerCount: 2
Fore
SplineSet
496 1541 m 0,0,1
 426 1541 426 1541 365 1483.5 c 128,-1,2
 304 1426 304 1426 264 1328 c 0,3,4
 184 1130 184 1130 184 822 c 0,5,6
 184 148 184 148 416 78 c 0,7,8
 453 66 453 66 493.5 66 c 128,-1,9
 534 66 534 66 576 74 c 128,-1,10
 618 82 618 82 656 109 c 128,-1,11
 694 136 694 136 727 187 c 128,-1,12
 760 238 760 238 784 323 c 0,13,14
 836 502 836 502 836 834 c 0,15,16
 836 1132 836 1132 762 1325 c 0,17,18
 678 1541 678 1541 496 1541 c 0,0,1
496 -23 m 0,19,20
 391 -23 391 -23 314.5 26 c 128,-1,21
 238 75 238 75 187 180 c 0,22,23
 84 392 84 392 84 843 c 0,24,25
 84 1208 84 1208 198 1420 c 1,26,27
 310 1631 310 1631 515 1631 c 0,28,29
 926 1631 926 1631 930 843 c 0,30,31
 934 -23 934 -23 496 -23 c 0,19,20
814 -230.5 m 128,-1,33
 814 -243 814 -243 808 -252 c 128,-1,34
 802 -261 802 -261 793 -268 c 0,35,36
 774 -281 774 -281 758 -281 c 0,37,38
 722 -281 722 -281 705.5 -230 c 128,-1,39
 689 -179 689 -179 676.5 -141 c 128,-1,40
 664 -103 664 -103 654 -73.5 c 128,-1,41
 644 -44 644 -44 633.5 -16 c 128,-1,42
 623 12 623 12 607 52 c 0,43,44
 586 105 586 105 541 212 c 128,-1,45
 496 319 496 319 497 334 c 128,-1,46
 498 349 498 349 504 360 c 0,47,48
 519 384 519 384 542 384 c 0,49,50
 588 384 588 384 604 341 c 1,51,52
 628 267 628 267 645.5 212 c 128,-1,53
 663 157 663 157 677.5 113.5 c 128,-1,54
 692 70 692 70 705.5 34.5 c 128,-1,55
 719 -1 719 -1 734 -36 c 0,56,57
 761 -103 761 -103 787.5 -160.5 c 128,-1,32
 814 -218 814 -218 814 -230.5 c 128,-1,33
EndSplineSet
EndChar

StartChar: R
Encoding: 82 82 72
Width: 916
Flags: W
LayerCount: 2
Fore
SplineSet
552 783 m 1,0,1
 658 443 658 443 808 89 c 1,2,3
 832 35 832 35 784 10 c 0,4,5
 772 4 772 4 756 4 c 0,6,7
 720 4 720 4 705 45 c 0,8,9
 673 138 673 138 647 223.5 c 128,-1,10
 621 309 621 309 596 390 c 0,11,12
 538 582 538 582 488 702 c 1,13,-1
 552 783 l 1,0,1
266 1541 m 1,14,15
 251 1218 251 1218 251 1001.5 c 128,-1,16
 251 785 251 785 251.5 768.5 c 128,-1,17
 252 752 252 752 252.5 738.5 c 128,-1,18
 253 725 253 725 254 710.5 c 128,-1,19
 255 696 255 696 256.5 669 c 128,-1,20
 258 642 258 642 260 599 c 128,-1,21
 262 556 262 556 264 486 c 0,22,23
 273 245 273 245 278 70 c 0,24,25
 279 36 279 36 261 19.5 c 128,-1,26
 243 3 243 3 222.5 3 c 128,-1,27
 202 3 202 3 186.5 18.5 c 128,-1,28
 171 34 171 34 171 65 c 2,29,-1
 171 817 l 2,30,31
 171 1207 171 1207 152 1517 c 0,32,33
 149 1561 149 1561 176 1578 c 0,34,35
 187 1585 187 1585 199 1586.5 c 128,-1,36
 211 1588 211 1588 252 1600 c 0,37,38
 355 1629 355 1629 456.5 1629 c 128,-1,39
 558 1629 558 1629 624.5 1606.5 c 128,-1,40
 691 1584 691 1584 738 1538 c 0,41,42
 838 1440 838 1440 838 1249 c 0,43,44
 838 1003 838 1003 644 774 c 1,45,46
 482 581 482 581 229 444 c 1,47,-1
 228 541 l 1,48,49
 406 634 406 634 558 809 c 1,50,51
 743 1024 743 1024 743 1240 c 0,52,53
 743 1464 743 1464 586 1529 c 0,54,55
 500 1565 500 1565 367 1539 c 0,56,57
 280 1522 280 1522 237 1490 c 1,58,-1
 266 1541 l 1,14,15
EndSplineSet
EndChar

StartChar: S
Encoding: 83 83 73
Width: 867
Flags: W
LayerCount: 2
Fore
SplineSet
136 459 m 0,0,1
 171 459 171 459 180 432 c 128,-1,2
 189 405 189 405 189 343 c 128,-1,3
 189 281 189 281 206 227 c 128,-1,4
 223 173 223 173 253 136 c 0,5,6
 314 62 314 62 422 62 c 128,-1,7
 530 62 530 62 594 141.5 c 128,-1,8
 658 221 658 221 658 370 c 0,9,10
 658 569 658 569 489 724 c 0,11,12
 441 768 441 768 390.5 811 c 128,-1,13
 340 854 340 854 292 900 c 128,-1,14
 244 946 244 946 206 1002 c 0,15,16
 123 1125 123 1125 123 1282 c 0,17,18
 123 1443 123 1443 218 1542 c 0,19,20
 312 1640 312 1640 454 1640 c 0,21,22
 576 1640 576 1640 654 1558 c 1,23,24
 741 1464 741 1464 734 1298 c 0,25,26
 733 1290 733 1290 733.5 1281 c 128,-1,27
 734 1272 734 1272 731.5 1247 c 128,-1,28
 729 1222 729 1222 710.5 1202.5 c 128,-1,29
 692 1183 692 1183 670.5 1183 c 128,-1,30
 649 1183 649 1183 634 1202.5 c 128,-1,31
 619 1222 619 1222 624 1254 c 0,32,33
 637 1327 637 1327 637 1364.5 c 128,-1,34
 637 1402 637 1402 623.5 1436 c 128,-1,35
 610 1470 610 1470 585 1496 c 0,36,37
 531 1551 531 1551 445 1551 c 0,38,39
 350 1551 350 1551 290 1486 c 0,40,41
 224 1414 224 1414 224 1309 c 128,-1,42
 224 1204 224 1204 247 1139.5 c 128,-1,43
 270 1075 270 1075 307.5 1023 c 128,-1,44
 345 971 345 971 393 928 c 128,-1,45
 441 885 441 885 490.5 843 c 128,-1,46
 540 801 540 801 588 756.5 c 128,-1,47
 636 712 636 712 674 658 c 1,48,49
 757 536 757 536 757 377 c 0,50,51
 757 191 757 191 661 80 c 0,52,53
 566 -30 566 -30 407 -30 c 0,54,55
 259 -30 259 -30 166 84 c 0,56,57
 78 191 78 191 78 325 c 128,-1,58
 78 459 78 459 136 459 c 0,0,1
EndSplineSet
EndChar

StartChar: T
Encoding: 84 84 74
Width: 748
Flags: W
LayerCount: 2
Fore
SplineSet
321 1617 m 2,0,1
 349 1617 349 1617 681 1625 c 1,2,3
 727 1625 727 1625 744 1590 c 0,4,5
 748 1580 748 1580 748 1567 c 128,-1,6
 748 1554 748 1554 733 1540.5 c 128,-1,7
 718 1527 718 1527 677 1528 c 128,-1,8
 636 1529 636 1529 597.5 1531 c 128,-1,9
 559 1533 559 1533 526 1534 c 0,10,11
 448 1536 448 1536 399 1535 c 1,12,-1
 426 1567 l 1,13,14
 417 1324 417 1324 417 1036 c 128,-1,15
 417 748 417 748 417.5 641.5 c 128,-1,16
 418 535 418 535 420 438 c 0,17,18
 423 190 423 190 426 70 c 0,19,20
 427 36 427 36 410.5 19.5 c 128,-1,21
 394 3 394 3 374.5 3 c 128,-1,22
 355 3 355 3 336.5 18.5 c 128,-1,23
 318 34 318 34 318 65 c 2,24,-1
 317 196 l 1,25,-1
 327 1151 l 1,26,27
 327 1461 327 1461 318 1569 c 1,28,-1
 338 1535 l 1,29,30
 280 1537 280 1537 194 1531 c 128,-1,31
 108 1525 108 1525 69.5 1522.5 c 128,-1,32
 31 1520 31 1520 15 1535 c 128,-1,33
 -1 1550 -1 1550 -1 1569.5 c 128,-1,34
 -1 1589 -1 1589 15 1608 c 128,-1,35
 31 1627 31 1627 66.5 1625.5 c 128,-1,36
 102 1624 102 1624 128 1623 c 128,-1,37
 154 1622 154 1622 173.5 1621 c 128,-1,38
 193 1620 193 1620 208 1619 c 128,-1,39
 223 1618 223 1618 238.5 1617.5 c 128,-1,40
 254 1617 254 1617 274 1617 c 2,41,-1
 321 1617 l 2,0,1
EndSplineSet
EndChar

StartChar: U
Encoding: 85 85 75
Width: 1044
Flags: W
LayerCount: 2
Fore
SplineSet
173 518 m 1,0,1
 173 518 173 518 175 941 c 1,2,3
 175 1301 175 1301 152 1551 c 0,4,5
 149 1583 149 1583 168 1598.5 c 128,-1,6
 187 1614 187 1614 211.5 1614 c 128,-1,7
 236 1614 236 1614 256 1598.5 c 128,-1,8
 276 1583 276 1583 274 1530.5 c 128,-1,9
 272 1478 272 1478 269.5 1397.5 c 128,-1,10
 267 1317 267 1317 265 1227 c 0,11,12
 261 1047 261 1047 261 901 c 128,-1,13
 261 755 261 755 261.5 701.5 c 128,-1,14
 262 648 262 648 263 598 c 0,15,16
 268 332 268 332 293 261 c 128,-1,17
 318 190 318 190 351 152 c 0,18,19
 417 76 417 76 521 76 c 0,20,21
 628 76 628 76 698 155 c 0,22,23
 770 237 770 237 782 384 c 1,24,25
 793 564 793 564 793 673 c 128,-1,26
 793 782 793 782 792.5 861.5 c 128,-1,27
 792 941 792 941 790 1040 c 0,28,29
 782 1328 782 1328 774 1557 c 0,30,31
 773 1589 773 1589 791 1604 c 128,-1,32
 809 1619 809 1619 832 1619 c 256,33,34
 855 1619 855 1619 874 1604 c 128,-1,35
 893 1589 893 1589 892 1557 c 0,36,37
 888 1408 888 1408 887.5 1263 c 128,-1,38
 887 1118 887 1118 886 975 c 0,39,40
 884 628 884 628 873 476.5 c 128,-1,41
 862 325 862 325 839.5 248 c 128,-1,42
 817 171 817 171 775 111 c 0,43,44
 681 -23 681 -23 522 -23 c 0,45,46
 259 -23 259 -23 194 268 c 0,47,48
 173 359 173 359 173 471 c 2,49,-1
 173 518 l 1,0,1
EndSplineSet
EndChar

StartChar: V
Encoding: 86 86 76
Width: 925
Flags: W
LayerCount: 2
Fore
SplineSet
868.5 1605.5 m 128,-1,1
 887 1585 887 1585 875.5 1546 c 128,-1,2
 864 1507 864 1507 848.5 1440 c 128,-1,3
 833 1373 833 1373 814 1287.5 c 128,-1,4
 795 1202 795 1202 773 1101.5 c 128,-1,5
 751 1001 751 1001 727.5 893 c 128,-1,6
 704 785 704 785 679.5 672.5 c 128,-1,7
 655 560 655 560 630 451 c 0,8,9
 574 207 574 207 533 50 c 0,10,11
 520 -3 520 -3 469 -3 c 0,12,13
 415 -3 415 -3 398 50 c 0,14,15
 384 95 384 95 338.5 312.5 c 128,-1,16
 293 530 293 530 268.5 642.5 c 128,-1,17
 244 755 244 755 217.5 874.5 c 128,-1,18
 191 994 191 994 163 1112 c 0,19,20
 105 1355 105 1355 74.5 1456.5 c 128,-1,21
 44 1558 44 1558 44 1579.5 c 128,-1,22
 44 1601 44 1601 58.5 1615 c 128,-1,23
 73 1629 73 1629 95.5 1630 c 128,-1,24
 118 1631 118 1631 140.5 1615 c 128,-1,25
 163 1599 163 1599 172.5 1547 c 128,-1,26
 182 1495 182 1495 198.5 1410 c 128,-1,27
 215 1325 215 1325 235 1226.5 c 128,-1,28
 255 1128 255 1128 277.5 1020.5 c 128,-1,29
 300 913 300 913 323 805.5 c 128,-1,30
 346 698 346 698 369 594.5 c 128,-1,31
 392 491 392 491 414 400 c 0,32,33
 457 215 457 215 487 115 c 1,34,-1
 453 110 l 1,35,36
 486 174 486 174 523.5 343.5 c 128,-1,37
 561 513 561 513 576 586 c 0,38,39
 594 671 594 671 620 812.5 c 128,-1,40
 646 954 646 954 665 1050.5 c 128,-1,41
 684 1147 684 1147 701 1231.5 c 128,-1,42
 718 1316 718 1316 733.5 1391.5 c 128,-1,43
 749 1467 749 1467 757.5 1521.5 c 128,-1,44
 766 1576 766 1576 780.5 1601 c 128,-1,45
 795 1626 795 1626 822.5 1626 c 128,-1,0
 850 1626 850 1626 868.5 1605.5 c 128,-1,1
EndSplineSet
EndChar

StartChar: W
Encoding: 87 87 77
Width: 1631
Flags: W
LayerCount: 2
Fore
SplineSet
84.5 1370 m 128,-1,1
 62 1477 62 1477 50 1533 c 128,-1,2
 38 1589 38 1589 57.5 1608.5 c 128,-1,3
 77 1628 77 1628 103 1628 c 0,4,5
 153 1628 153 1628 165.5 1544 c 128,-1,6
 178 1460 178 1460 196 1359.5 c 128,-1,7
 214 1259 214 1259 234.5 1149 c 128,-1,8
 255 1039 255 1039 277 925.5 c 128,-1,9
 299 812 299 812 320.5 703.5 c 128,-1,10
 342 595 342 595 363 497 c 128,-1,11
 384 399 384 399 402 320 c 0,12,13
 440 147 440 147 453 115 c 1,14,-1
 424 112 l 1,15,16
 453 232 453 232 514 467 c 128,-1,17
 575 702 575 702 609.5 838 c 128,-1,18
 644 974 644 974 674 1100 c 0,19,20
 738 1372 738 1372 760 1523 c 1,21,22
 769 1598 769 1598 825 1596 c 0,23,24
 865 1594 865 1594 876 1542 c 0,25,26
 926 1316 926 1316 978 1054 c 128,-1,27
 1030 792 1030 792 1051.5 685 c 128,-1,28
 1073 578 1073 578 1092.5 482.5 c 128,-1,29
 1112 387 1112 387 1128 310 c 0,30,31
 1162 153 1162 153 1180 107 c 1,32,-1
 1152 103 l 1,33,34
 1173 194 1173 194 1201.5 316 c 128,-1,35
 1230 438 1230 438 1261 574 c 128,-1,36
 1292 710 1292 710 1324 852 c 128,-1,37
 1356 994 1356 994 1384 1126 c 0,38,39
 1445 1414 1445 1414 1466 1560 c 0,40,41
 1477 1636 1477 1636 1528 1632 c 1,42,43
 1572 1630 1572 1630 1572 1578 c 0,44,45
 1572 1558 1572 1558 1559 1503 c 128,-1,46
 1546 1448 1546 1448 1521.5 1336.5 c 128,-1,47
 1497 1225 1497 1225 1471 1107.5 c 128,-1,48
 1445 990 1445 990 1418 870.5 c 128,-1,49
 1391 751 1391 751 1365.5 639 c 128,-1,50
 1340 527 1340 527 1317 427 c 128,-1,51
 1294 327 1294 327 1275 249 c 0,52,53
 1233 76 1233 76 1222 51 c 0,54,55
 1200 -2 1200 -2 1163 -2 c 0,56,57
 1119 -2 1119 -2 1104 51 c 0,58,59
 1026 326 1026 326 970.5 601.5 c 128,-1,60
 915 877 915 877 892 994 c 0,61,62
 867 1120 867 1120 812 1420 c 1,63,-1
 834 1415 l 1,64,65
 755 1056 755 1056 700 838.5 c 128,-1,66
 645 621 645 621 619 514 c 0,67,68
 554 248 554 248 510 51 c 0,69,70
 505 26 505 26 485 12 c 128,-1,71
 465 -2 465 -2 444 -2 c 0,72,73
 394 -2 394 -2 379 51 c 0,74,75
 286 403 286 403 196.5 833 c 128,-1,0
 107 1263 107 1263 84.5 1370 c 128,-1,1
EndSplineSet
EndChar

StartChar: X
Encoding: 88 88 78
Width: 892
Flags: W
LayerCount: 2
Fore
SplineSet
129 1598 m 0,0,1
 129 1663 129 1663 179 1663 c 0,2,3
 228 1663 228 1663 247.5 1597 c 128,-1,4
 267 1531 267 1531 294 1453.5 c 128,-1,5
 321 1376 321 1376 352 1292 c 0,6,7
 435 1067 435 1067 482 919 c 1,8,-1
 451 920 l 1,9,10
 491 1042 491 1042 558 1219 c 0,11,12
 672 1525 672 1525 685 1577 c 0,13,14
 705 1658 705 1658 753 1658 c 0,15,16
 772 1658 772 1658 786.5 1643.5 c 128,-1,17
 801 1629 801 1629 801 1605.5 c 128,-1,18
 801 1582 801 1582 782.5 1539 c 128,-1,19
 764 1496 764 1496 732.5 1424 c 128,-1,20
 701 1352 701 1352 666 1266 c 0,21,22
 586 1071 586 1071 509 841 c 1,23,24
 696 279 696 279 776 94 c 0,25,26
 791 58 791 58 778 36 c 0,27,28
 745 -21 745 -21 701 10 c 0,29,30
 688 19 688 19 679 46.5 c 128,-1,31
 670 74 670 74 653 126.5 c 128,-1,32
 636 179 636 179 616.5 241 c 128,-1,33
 597 303 597 303 575 371.5 c 128,-1,34
 553 440 553 440 531 509 c 0,35,36
 476 681 476 681 449 767 c 1,37,-1
 472 771 l 1,38,39
 439 667 439 667 408 568 c 128,-1,40
 377 469 377 469 348 378 c 0,41,42
 270 140 270 140 247.5 81.5 c 128,-1,43
 225 23 225 23 208.5 8 c 128,-1,44
 192 -7 192 -7 175.5 -7 c 128,-1,45
 159 -7 159 -7 146 9.5 c 128,-1,46
 133 26 133 26 133 45 c 128,-1,47
 133 64 133 64 140 83 c 0,48,49
 236 310 236 310 416 860 c 1,50,51
 315 1165 315 1165 140 1553 c 0,52,53
 129 1577 129 1577 129 1598 c 0,0,1
EndSplineSet
EndChar

StartChar: Y
Encoding: 89 89 79
Width: 966
Flags: W
LayerCount: 2
Fore
SplineSet
543 354 m 1,0,-1
 550 63 l 1,1,2
 550 18 550 18 507 2 c 0,3,4
 496 -2 496 -2 481 -2 c 128,-1,5
 466 -2 466 -2 449 14.5 c 128,-1,6
 432 31 432 31 435 66.5 c 128,-1,7
 438 102 438 102 442 137 c 128,-1,8
 446 172 446 172 449 208 c 0,9,10
 456 292 456 292 456 339 c 128,-1,11
 456 386 456 386 455 420 c 128,-1,12
 454 454 454 454 452 490 c 0,13,14
 450 544 450 544 444 619 c 1,15,-1
 467 506 l 1,16,17
 428 611 428 611 376.5 734.5 c 128,-1,18
 325 858 325 858 270 992 c 0,19,20
 44 1536 44 1536 44 1581 c 0,21,22
 44 1606 44 1606 59 1621 c 128,-1,23
 74 1636 74 1636 97.5 1637 c 128,-1,24
 121 1638 121 1638 134 1621.5 c 128,-1,25
 147 1605 147 1605 172.5 1517 c 128,-1,26
 198 1429 198 1429 248 1290.5 c 128,-1,27
 298 1152 298 1152 349 1026 c 0,28,29
 425 837 425 837 523 620 c 1,30,-1
 481 620 l 1,31,32
 504 682 504 682 532.5 757.5 c 128,-1,33
 561 833 561 833 591.5 915.5 c 128,-1,34
 622 998 622 998 653.5 1084.5 c 128,-1,35
 685 1171 685 1171 714 1254 c 0,36,37
 784 1457 784 1457 803 1524.5 c 128,-1,38
 822 1592 822 1592 835 1617.5 c 128,-1,39
 848 1643 848 1643 874 1643 c 0,40,41
 922 1643 922 1643 922 1596 c 0,42,43
 922 1560 922 1560 850.5 1374 c 128,-1,44
 779 1188 779 1188 758.5 1129.5 c 128,-1,45
 738 1071 738 1071 719 1019.5 c 128,-1,46
 700 968 700 968 678 909.5 c 128,-1,47
 656 851 656 851 632.5 789.5 c 128,-1,48
 609 728 609 728 588 672 c 1,49,50
 535 538 535 538 521 502 c 1,51,-1
 550 630 l 1,52,53
 543 399 543 399 543 354 c 1,0,-1
EndSplineSet
EndChar

StartChar: Z
Encoding: 90 90 80
Width: 796
Flags: W
LayerCount: 2
Fore
SplineSet
173 1618 m 1,0,-1
 370 1609 l 1,1,2
 454 1609 454 1609 500.5 1611 c 128,-1,3
 547 1613 547 1613 574 1614 c 128,-1,4
 601 1615 601 1615 629 1620 c 128,-1,5
 657 1625 657 1625 683 1611.5 c 128,-1,6
 709 1598 709 1598 709 1553 c 0,7,8
 709 1509 709 1509 598.5 1228.5 c 128,-1,9
 488 948 488 948 447.5 846.5 c 128,-1,10
 407 745 407 745 368 645.5 c 128,-1,11
 329 546 329 546 293 454 c 128,-1,12
 257 362 257 362 228 285 c 0,13,14
 165 114 165 114 155 65 c 1,15,16
 145 73 145 73 138 74.5 c 128,-1,17
 131 76 131 76 129 86 c 1,18,-1
 187 88 l 1,19,-1
 198 88 l 2,20,21
 437 88 437 88 613 105 c 0,22,23
 648 108 648 108 665.5 90 c 128,-1,24
 683 72 683 72 683 51 c 256,25,26
 683 30 683 30 666 10.5 c 128,-1,27
 649 -9 649 -9 616 -6 c 0,28,29
 558 -2 558 -2 486.5 -2 c 128,-1,30
 415 -2 415 -2 366 -1 c 128,-1,31
 317 0 317 0 270 0 c 0,32,33
 158 2 158 2 135.5 -1.5 c 128,-1,34
 113 -5 113 -5 100.5 -1.5 c 128,-1,35
 88 2 88 2 78 10 c 0,36,37
 54 31 54 31 58.5 60.5 c 128,-1,38
 63 90 63 90 85 150.5 c 128,-1,39
 107 211 107 211 142 297 c 128,-1,40
 177 383 177 383 221 489 c 128,-1,41
 265 595 265 595 312.5 709.5 c 128,-1,42
 360 824 360 824 406.5 941.5 c 128,-1,43
 453 1059 453 1059 492 1168 c 0,44,45
 578 1403 578 1403 601 1532 c 1,46,47
 606 1527 606 1527 615 1523.5 c 128,-1,48
 624 1520 624 1520 626 1513 c 1,49,50
 570 1517 570 1517 448 1517 c 0,51,52
 265 1517 265 1517 200 1514 c 0,53,54
 98 1508 98 1508 98 1561 c 0,55,56
 98 1584 98 1584 118 1601 c 128,-1,57
 138 1618 138 1618 173 1618 c 1,0,-1
EndSplineSet
EndChar

StartChar: bracketleft
Encoding: 91 91 81
Width: 664
Flags: W
LayerCount: 2
Fore
SplineSet
297 1866 m 128,-1,1
 351 1866 351 1866 390 1869.5 c 128,-1,2
 429 1873 429 1873 451.5 1875 c 128,-1,3
 474 1877 474 1877 488 1872.5 c 128,-1,4
 502 1868 502 1868 512 1860 c 0,5,6
 531 1844 531 1844 531 1821.5 c 128,-1,7
 531 1799 531 1799 513.5 1783 c 128,-1,8
 496 1767 496 1767 459 1770 c 128,-1,9
 422 1773 422 1773 395.5 1775.5 c 128,-1,10
 369 1778 369 1778 349.5 1778 c 128,-1,11
 330 1778 330 1778 315.5 1777.5 c 128,-1,12
 301 1777 301 1777 284 1776 c 0,13,14
 238 1775 238 1775 227 1774 c 1,15,-1
 270 1826 l 1,16,17
 270 1749 270 1749 269.5 1622 c 128,-1,18
 269 1495 269 1495 268.5 1335 c 128,-1,19
 268 1175 268 1175 267 989 c 128,-1,20
 266 803 266 803 266 607 c 0,21,22
 265 358 265 358 262 -172 c 1,23,-1
 233 -139 l 1,24,25
 308 -142 308 -142 392.5 -132.5 c 128,-1,26
 477 -123 477 -123 490.5 -127.5 c 128,-1,27
 504 -132 504 -132 514 -140 c 0,28,29
 533 -156 533 -156 533 -178 c 128,-1,30
 533 -200 533 -200 515 -215.5 c 128,-1,31
 497 -231 497 -231 462 -229 c 0,32,33
 357 -223 357 -223 314 -223 c 128,-1,34
 271 -223 271 -223 244 -225 c 128,-1,35
 217 -227 217 -227 204.5 -224.5 c 128,-1,36
 192 -222 192 -222 182 -215 c 0,37,38
 160 -199 160 -199 162 -166 c 0,39,40
 181 266 181 266 181 675.5 c 128,-1,41
 181 1085 181 1085 179.5 1210 c 128,-1,42
 178 1335 178 1335 175 1446 c 0,43,44
 169 1667 169 1667 160.5 1748 c 128,-1,45
 152 1829 152 1829 157 1841.5 c 128,-1,46
 162 1854 162 1854 170 1862 c 0,47,48
 186 1876 186 1876 214.5 1871 c 128,-1,0
 243 1866 243 1866 297 1866 c 128,-1,1
EndSplineSet
EndChar

StartChar: backslash
Encoding: 92 92 82
Width: 722
Flags: W
LayerCount: 2
Fore
SplineSet
603 -188 m 0,0,1
 566 -188 566 -188 551 -139 c 0,2,3
 497 33 497 33 420 355.5 c 128,-1,4
 343 678 343 678 310.5 815 c 128,-1,5
 278 952 278 952 246.5 1084 c 128,-1,6
 215 1216 215 1216 185 1332 c 0,7,8
 119 1587 119 1587 96 1648 c 0,9,10
 72 1713 72 1713 72 1736.5 c 128,-1,11
 72 1760 72 1760 85 1773 c 128,-1,12
 98 1786 98 1786 115.5 1786 c 128,-1,13
 133 1786 133 1786 150.5 1771 c 128,-1,14
 168 1756 168 1756 178.5 1708 c 128,-1,15
 189 1660 189 1660 211 1561.5 c 128,-1,16
 233 1463 233 1463 260.5 1343 c 128,-1,17
 288 1223 288 1223 319.5 1088 c 128,-1,18
 351 953 351 953 384.5 814.5 c 128,-1,19
 418 676 418 676 452.5 540 c 128,-1,20
 487 404 487 404 520 282 c 0,21,22
 586 32 586 32 614 -43 c 0,23,24
 645 -126 645 -126 645 -144 c 128,-1,25
 645 -162 645 -162 632.5 -175 c 128,-1,26
 620 -188 620 -188 603 -188 c 0,0,1
EndSplineSet
EndChar

StartChar: bracketright
Encoding: 93 93 83
Width: 669
Flags: W
LayerCount: 2
Fore
SplineSet
446 1772 m 1,0,1
 391 1777 391 1777 352 1777 c 0,2,3
 303 1777 303 1777 245 1772 c 0,4,5
 153 1764 153 1764 153 1819 c 0,6,7
 153 1858 153 1858 196 1872 c 0,8,9
 210 1877 210 1877 232 1875 c 0,10,11
 320 1867 320 1867 357 1867 c 0,12,13
 429 1867 429 1867 456 1871 c 128,-1,14
 483 1875 483 1875 494 1872 c 128,-1,15
 505 1869 505 1869 514 1862 c 0,16,17
 534 1844 534 1844 528 1794 c 128,-1,18
 522 1744 522 1744 517 1650 c 128,-1,19
 512 1556 512 1556 509 1444 c 0,20,21
 504 1259 504 1259 504 1024 c 128,-1,22
 504 789 504 789 505 627.5 c 128,-1,23
 506 466 506 466 508 318 c 0,24,25
 515 -40 515 -40 519 -117 c 128,-1,26
 523 -194 523 -194 517 -206.5 c 128,-1,27
 511 -219 511 -219 502 -226 c 0,28,29
 482 -242 482 -242 448 -236 c 0,30,31
 388 -227 388 -227 336 -227 c 0,32,33
 262 -227 262 -227 224.5 -229 c 128,-1,34
 187 -231 187 -231 169 -215.5 c 128,-1,35
 151 -200 151 -200 151 -179 c 128,-1,36
 151 -158 151 -158 171 -140 c 128,-1,37
 191 -122 191 -122 244 -128 c 0,38,39
 391 -143 391 -143 459 -140 c 1,40,-1
 416 -170 l 1,41,-1
 414 274 l 1,42,43
 414 968 414 968 417.5 1335.5 c 128,-1,44
 421 1703 421 1703 421 1814 c 1,45,-1
 446 1772 l 1,0,1
EndSplineSet
EndChar

StartChar: asciicircum
Encoding: 94 94 84
Width: 951
Flags: W
LayerCount: 2
Fore
SplineSet
821 337 m 128,-1,1
 821 318 821 318 804.5 307 c 128,-1,2
 788 296 788 296 773 296 c 0,3,4
 736 296 736 296 722 327 c 1,5,6
 705 373 705 373 656.5 571.5 c 128,-1,7
 608 770 608 770 585.5 861 c 128,-1,8
 563 952 563 952 540 1039.5 c 128,-1,9
 517 1127 517 1127 496 1200 c 0,10,11
 451 1363 451 1363 428 1396 c 1,12,-1
 476 1396 l 1,13,14
 440 1337 440 1337 394 1144 c 128,-1,15
 348 951 348 951 328 863 c 128,-1,16
 308 775 308 775 289 689.5 c 128,-1,17
 270 604 270 604 254 532 c 0,18,19
 216 368 216 368 204 340 c 0,20,21
 185 294 185 294 140 294 c 0,22,23
 124 294 124 294 111.5 305 c 128,-1,24
 99 316 99 316 99 330 c 0,25,26
 99 360 99 360 111.5 382 c 128,-1,27
 124 404 124 404 141 457 c 128,-1,28
 158 510 158 510 177 582 c 128,-1,29
 196 654 196 654 216.5 739.5 c 128,-1,30
 237 825 237 825 258 913 c 128,-1,31
 279 1001 279 1001 299.5 1086.5 c 128,-1,32
 320 1172 320 1172 338 1244 c 0,33,34
 380 1407 380 1407 396.5 1440 c 128,-1,35
 413 1473 413 1473 428 1480 c 128,-1,36
 443 1487 443 1487 456 1487 c 0,37,38
 487 1487 487 1487 504 1446 c 0,39,40
 530 1385 530 1385 580 1196 c 128,-1,41
 630 1007 630 1007 653 921 c 128,-1,42
 676 835 676 835 698 751 c 128,-1,43
 720 667 720 667 740 594 c 0,44,45
 786 433 786 433 803.5 394.5 c 128,-1,0
 821 356 821 356 821 337 c 128,-1,1
EndSplineSet
EndChar

StartChar: underscore
Encoding: 95 95 85
Width: 1099
Flags: W
LayerCount: 2
Fore
SplineSet
1227 -243 m 0,0,1
 1227 -277 1227 -277 1165 -277 c 2,2,-1
 -33 -277 l 2,3,4
 -66 -277 -66 -277 -82 -265.5 c 128,-1,5
 -98 -254 -98 -254 -98 -238.5 c 128,-1,6
 -98 -223 -98 -223 -81.5 -212 c 128,-1,7
 -65 -201 -65 -201 -33 -201 c 2,8,-1
 1160 -201 l 2,9,10
 1193 -201 1193 -201 1210 -214 c 128,-1,11
 1227 -227 1227 -227 1227 -243 c 0,0,1
EndSplineSet
EndChar

StartChar: grave
Encoding: 96 96 86
Width: 467
Flags: W
LayerCount: 2
Fore
SplineSet
75 1146 m 1,0,1
 118 1171 118 1171 171 1100 c 0,2,3
 214 1042 214 1042 306 944 c 1,4,5
 336 909 336 909 336 891.5 c 128,-1,6
 336 874 336 874 323.5 864.5 c 128,-1,7
 311 855 311 855 296 855 c 0,8,9
 273 855 273 855 242 889.5 c 128,-1,10
 211 924 211 924 187.5 947.5 c 128,-1,11
 164 971 164 971 144 990 c 0,12,13
 95 1039 95 1039 77 1062 c 0,14,15
 33 1119 33 1119 75 1146 c 1,0,1
EndSplineSet
EndChar

StartChar: a
Encoding: 97 97 87
Width: 690
Flags: W
LayerCount: 2
Fore
SplineSet
517 328 m 1,0,-1
 511 411 l 1,1,2
 449 437 449 437 384 437 c 128,-1,3
 319 437 319 437 266.5 420 c 128,-1,4
 214 403 214 403 172 370 c 0,5,6
 78 296 78 296 78 175 c 0,7,8
 78 88 78 88 136 32 c 0,9,10
 192 -22 192 -22 277 -22 c 0,11,12
 383 -22 383 -22 473 80 c 0,13,14
 496 106 496 106 509 129 c 1,15,16
 509 135 509 135 508 152.5 c 128,-1,17
 507 170 507 170 506 189.5 c 128,-1,18
 505 209 505 209 504 226.5 c 128,-1,19
 503 244 503 244 503 249 c 1,20,21
 495 197 495 197 454 152 c 0,22,23
 373 62 373 62 307 62 c 128,-1,24
 241 62 241 62 207 95 c 128,-1,25
 173 128 173 128 173 177.5 c 128,-1,26
 173 227 173 227 190 258.5 c 128,-1,27
 207 290 207 290 235 312 c 0,28,29
 292 355 292 355 381 355 c 128,-1,30
 470 355 470 355 517 328 c 1,0,-1
554 -21 m 0,31,32
 494 -21 494 -21 494 70 c 0,33,34
 494 80 494 80 491 152 c 128,-1,35
 488 224 488 224 490 374 c 1,36,-1
 490 525 l 2,37,38
 490 613 490 613 453.5 657 c 128,-1,39
 417 701 417 701 378 701 c 128,-1,40
 339 701 339 701 314.5 691 c 128,-1,41
 290 681 290 681 271 662 c 0,42,43
 229 621 229 621 223 560 c 1,44,45
 226 528 226 528 210 515.5 c 128,-1,46
 194 503 194 503 175 503 c 0,47,48
 121 503 121 503 123 575 c 0,49,50
 125 650 125 650 199 713 c 0,51,52
 275 778 275 778 369 778 c 0,53,54
 509 778 509 778 558 639 c 0,55,56
 575 589 575 589 575 529 c 2,57,-1
 575 426 l 1,58,-1
 574 258 l 1,59,-1
 574 169 l 2,60,61
 574 109 574 109 588.5 72 c 128,-1,62
 603 35 603 35 603 19.5 c 128,-1,63
 603 4 603 4 588 -8.5 c 128,-1,64
 573 -21 573 -21 554 -21 c 0,31,32
EndSplineSet
EndChar

StartChar: b
Encoding: 98 98 88
Width: 741
Flags: W
LayerCount: 2
Fore
SplineSet
239.5 500 m 128,-1,1
 219 453 219 453 216.5 412.5 c 128,-1,2
 214 372 214 372 213 342.5 c 128,-1,3
 212 313 212 313 211.5 293 c 128,-1,4
 211 273 211 273 211 260 c 2,5,-1
 211 237 l 2,6,7
 211 209 211 209 216 24 c 1,8,-1
 195 62 l 1,9,10
 248 52 248 52 312.5 86 c 128,-1,11
 377 120 377 120 420.5 156 c 128,-1,12
 464 192 464 192 499 243 c 0,13,14
 579 360 579 360 579 508 c 0,15,16
 579 596 579 596 545 638 c 128,-1,17
 511 680 511 680 460.5 680 c 128,-1,18
 410 680 410 680 367.5 653.5 c 128,-1,19
 325 627 325 627 292.5 587 c 128,-1,0
 260 547 260 547 239.5 500 c 128,-1,1
121 37 m 2,20,-1
 130 902 l 1,21,-1
 130 1032 l 2,22,23
 130 1095 130 1095 129 1155 c 128,-1,24
 128 1215 128 1215 127 1275 c 128,-1,25
 126 1335 126 1335 124 1399 c 0,26,27
 118 1538 118 1538 113 1622.5 c 128,-1,28
 108 1707 108 1707 113.5 1721 c 128,-1,29
 119 1735 119 1735 128 1743 c 0,30,31
 142 1757 142 1757 170 1757 c 0,32,33
 219 1757 219 1757 219 1674 c 2,34,-1
 214 1255 l 1,35,-1
 214 1054 l 2,36,37
 214 993 214 993 213.5 925 c 128,-1,38
 213 857 213 857 214 789 c 0,39,40
 215 598 215 598 216 540 c 1,41,-1
 203 542 l 1,42,43
 233 644 233 644 304 712 c 0,44,45
 377 783 377 783 457 783 c 0,46,47
 609 783 609 783 656 628 c 0,48,49
 671 578 671 578 671 507.5 c 128,-1,50
 671 437 671 437 650.5 367 c 128,-1,51
 630 297 630 297 595 238.5 c 128,-1,52
 560 180 560 180 513 133.5 c 128,-1,53
 466 87 466 87 414 54 c 0,54,55
 284 -29 284 -29 170 -21 c 0,56,57
 121 -17 121 -17 121 37 c 2,20,-1
EndSplineSet
EndChar

StartChar: c
Encoding: 99 99 89
Width: 688
Flags: W
LayerCount: 2
Fore
SplineSet
592 525 m 0,0,1
 592 461 592 461 541.5 461 c 128,-1,2
 491 461 491 461 491 525 c 0,3,4
 493 691 493 691 369 691 c 0,5,6
 291 691 291 691 240 593 c 1,7,8
 195 504 195 504 195 398 c 128,-1,9
 195 292 195 292 210.5 232 c 128,-1,10
 226 172 226 172 252 134 c 0,11,12
 300 61 300 61 375 61 c 0,13,14
 423 61 423 61 454.5 97.5 c 128,-1,15
 486 134 486 134 497 174 c 0,16,17
 514 236 514 236 549 236 c 1,18,19
 566 235 566 235 579 222 c 128,-1,20
 592 209 592 209 589 174.5 c 128,-1,21
 586 140 586 140 567 102 c 128,-1,22
 548 64 548 64 518 36 c 0,23,24
 454 -21 454 -21 358 -21 c 0,25,26
 253 -21 253 -21 182 76 c 0,27,28
 105 181 105 181 105 367 c 0,29,30
 105 562 105 562 184 673 c 0,31,32
 257 775 257 775 369 777 c 0,33,34
 464 779 464 779 526 714 c 1,35,36
 592 647 592 647 592 525 c 0,0,1
EndSplineSet
EndChar

StartChar: d
Encoding: 100 100 90
Width: 741
Flags: W
LayerCount: 2
Fore
SplineSet
594.5 1281.5 m 128,-1,1
 594 1198 594 1198 594 923.5 c 128,-1,2
 594 649 594 649 604.5 391.5 c 128,-1,3
 615 134 615 134 619.5 111 c 128,-1,4
 624 88 624 88 629.5 72 c 128,-1,5
 635 56 635 56 639.5 46 c 128,-1,6
 644 36 644 36 644 22 c 128,-1,7
 644 8 644 8 631.5 -3.5 c 128,-1,8
 619 -15 619 -15 604 -15 c 0,9,10
 539 -15 539 -15 536 114 c 0,11,12
 536 138 536 138 539 163 c 1,13,-1
 552 158 l 1,14,15
 487 -22 487 -22 338 -22 c 0,16,17
 224 -22 224 -22 154 72 c 0,18,19
 79 173 79 173 79 355 c 0,20,21
 79 546 79 546 178 666 c 0,22,23
 268 776 268 776 391 776 c 0,24,25
 482 776 482 776 537 732 c 1,26,-1
 509 712 l 1,27,28
 508 803 508 803 507.5 899.5 c 128,-1,29
 507 996 507 996 506 1091.5 c 128,-1,30
 505 1187 505 1187 503.5 1277 c 128,-1,31
 502 1367 502 1367 501 1446 c 0,32,33
 499 1611 499 1611 496 1668 c 128,-1,34
 493 1725 493 1725 511 1740.5 c 128,-1,35
 529 1756 529 1756 551.5 1756 c 128,-1,36
 574 1756 574 1756 592.5 1740.5 c 128,-1,37
 611 1725 611 1725 607.5 1684 c 128,-1,38
 604 1643 604 1643 601 1579 c 128,-1,39
 598 1515 598 1515 596.5 1440 c 128,-1,0
 595 1365 595 1365 594.5 1281.5 c 128,-1,1
515 440 m 2,40,-1
 514 651 l 1,41,42
 456 688 456 688 404.5 688 c 128,-1,43
 353 688 353 688 314.5 667.5 c 128,-1,44
 276 647 276 647 245 606 c 0,45,46
 175 515 175 515 175 365 c 0,47,48
 175 154 175 154 272 87 c 0,49,50
 304 65 304 65 345 65 c 128,-1,51
 386 65 386 65 415 82 c 128,-1,52
 444 99 444 99 464 124 c 0,53,54
 500 170 500 170 513 233 c 1,55,56
 515 315 515 315 515 440 c 2,40,-1
EndSplineSet
EndChar

StartChar: e
Encoding: 101 101 91
Width: 691
Flags: W
LayerCount: 2
Fore
SplineSet
536 351 m 2,0,-1
 150 345 l 1,1,-1
 150 432 l 1,2,-1
 317 425 l 1,3,4
 510 425 510 425 566 439 c 1,5,-1
 518 410 l 1,6,7
 526 602 526 602 446 670 c 1,8,9
 416 697 416 697 373 697 c 128,-1,10
 330 697 330 697 302 681 c 128,-1,11
 274 665 274 665 252.5 638 c 128,-1,12
 231 611 231 611 216.5 576.5 c 128,-1,13
 202 542 202 542 193 506 c 0,14,15
 176 437 176 437 176 368 c 0,16,17
 174 213 174 213 226 134.5 c 128,-1,18
 278 56 278 56 373 56 c 0,19,20
 460 56 460 56 500 142 c 0,21,22
 525 198 525 198 562 198 c 0,23,24
 579 198 579 198 590.5 187 c 128,-1,25
 602 176 602 176 601 148.5 c 128,-1,26
 600 121 600 121 581.5 89 c 128,-1,27
 563 57 563 57 530 32 c 0,28,29
 458 -24 458 -24 357 -24 c 0,30,31
 248 -24 248 -24 169 69 c 0,32,33
 86 167 86 167 86 302 c 128,-1,34
 86 437 86 437 109.5 521.5 c 128,-1,35
 133 606 133 606 172 662 c 1,36,37
 248 775 248 775 362 775 c 0,38,39
 508 775 508 775 567 660 c 0,40,41
 608 580 608 580 611 425 c 0,42,43
 612 381 612 381 597 366 c 128,-1,44
 582 351 582 351 536 351 c 2,0,-1
EndSplineSet
EndChar

StartChar: f
Encoding: 102 102 92
Width: 494
Flags: W
LayerCount: 2
Fore
SplineSet
492 1497 m 1,0,-1
 505 1575 l 1,1,2
 505 1664 505 1664 446 1685 c 0,3,4
 429 1691 429 1691 401.5 1691 c 128,-1,5
 374 1691 374 1691 348 1673 c 128,-1,6
 322 1655 322 1655 304 1605 c 0,7,8
 264 1488 264 1488 270 994 c 0,9,10
 272 839 272 839 272 696 c 2,11,-1
 272 474 l 2,12,13
 272 184 272 184 279 126 c 128,-1,14
 286 68 286 68 282 50 c 128,-1,15
 278 32 278 32 269 20 c 0,16,17
 251 -6 251 -6 228.5 -6 c 128,-1,18
 206 -6 206 -6 191.5 12 c 128,-1,19
 177 30 177 30 178.5 63 c 128,-1,20
 180 96 180 96 180.5 155.5 c 128,-1,21
 181 215 181 215 180.5 298.5 c 128,-1,22
 180 382 180 382 179.5 486 c 128,-1,23
 179 590 179 590 178 708 c 0,24,25
 176 946 176 946 176 1160 c 128,-1,26
 176 1374 176 1374 187.5 1482 c 128,-1,27
 199 1590 199 1590 226 1658 c 0,28,29
 279 1787 279 1787 418 1787 c 0,30,31
 548 1787 548 1787 592 1641 c 0,32,33
 607 1593 607 1593 607 1536.5 c 128,-1,34
 607 1480 607 1480 589 1458 c 128,-1,35
 571 1436 571 1436 547 1436 c 0,36,37
 492 1436 492 1436 492 1497 c 1,0,-1
255 741 m 1,38,-1
 433 747 l 1,39,40
 500 747 500 747 500 697 c 0,41,42
 500 666 500 666 466 652 c 0,43,44
 454 648 454 648 428 650 c 0,45,46
 348 654 348 654 320 654 c 128,-1,47
 292 654 292 654 270 653 c 128,-1,48
 248 652 248 652 226 650.5 c 128,-1,49
 204 649 204 649 180 647 c 128,-1,50
 156 645 156 645 123.5 643.5 c 128,-1,51
 91 642 91 642 76 658 c 128,-1,52
 61 674 61 674 61 692 c 128,-1,53
 61 710 61 710 67.5 720.5 c 128,-1,54
 74 731 74 731 84 738 c 0,55,56
 103 751 103 751 125 751 c 1,57,-1
 255 741 l 1,38,-1
EndSplineSet
EndChar

StartChar: g
Encoding: 103 103 93
Width: 680
Flags: W
LayerCount: 2
Fore
SplineSet
248 757 m 128,-1,1
 297 776 297 776 353.5 777 c 128,-1,2
 410 778 410 778 460 760 c 128,-1,3
 510 742 510 742 546 706 c 0,4,5
 620 632 620 632 620 497 c 0,6,7
 620 389 620 389 550 317 c 0,8,9
 472 237 472 237 345 237 c 0,10,11
 166 237 166 237 100 376 c 0,12,13
 78 423 78 423 78 489.5 c 128,-1,14
 78 556 78 556 100.5 610.5 c 128,-1,15
 123 665 123 665 161 701.5 c 128,-1,0
 199 738 199 738 248 757 c 128,-1,1
215.5 360.5 m 128,-1,17
 263 313 263 313 328.5 313 c 128,-1,18
 394 313 394 313 429.5 329 c 128,-1,19
 465 345 465 345 488 372 c 0,20,21
 534 424 534 424 534 514 c 0,22,23
 534 642 534 642 422 682 c 0,24,25
 389 694 389 694 345.5 694 c 128,-1,26
 302 694 302 694 268 675.5 c 128,-1,27
 234 657 234 657 212 628 c 0,28,29
 168 572 168 572 168 490 c 128,-1,16
 168 408 168 408 215.5 360.5 c 128,-1,17
646 1019 m 0,30,31
 693 1019 693 1019 693 970 c 0,32,33
 693 940 693 940 649 919 c 1,34,35
 580 904 580 904 536 846 c 0,36,37
 487 783 487 783 498 697 c 1,38,-1
 433 722 l 1,39,40
 420 809 420 809 486 912 c 1,41,42
 556 1019 556 1019 646 1019 c 0,30,31
268 39 m 1,43,44
 282 38 282 38 320 38 c 2,45,-1
 376 38 l 2,46,47
 554 38 554 38 622 -110 c 0,48,49
 645 -158 645 -158 645 -221 c 128,-1,50
 645 -284 645 -284 626.5 -333 c 128,-1,51
 608 -382 608 -382 572 -418 c 1,52,53
 496 -491 496 -491 352 -491 c 0,54,55
 237 -491 237 -491 166 -432 c 0,56,57
 94 -371 94 -371 94 -262 c 0,58,59
 94 -165 94 -165 146 -87 c 1,60,61
 194 -13 194 -13 248 -13 c 0,62,63
 300 -13 300 -13 308 -22 c 0,64,65
 325 -41 325 -41 283 -41 c 0,66,67
 255 -41 255 -41 231 -78 c 0,68,69
 184 -150 184 -150 184 -239 c 0,70,71
 184 -410 184 -410 379 -410 c 0,72,73
 556 -410 556 -410 556 -228 c 0,74,75
 556 -148 556 -148 514 -96 c 0,76,77
 476 -48 476 -48 426.5 -47.5 c 128,-1,78
 377 -47 377 -47 320 -48.5 c 128,-1,79
 263 -50 263 -50 206.5 -45 c 128,-1,80
 150 -40 150 -40 118 2 c 128,-1,81
 86 44 86 44 86 89 c 128,-1,82
 86 134 86 134 95 163.5 c 128,-1,83
 104 193 104 193 120 218 c 0,84,85
 153 270 153 270 199 300 c 1,86,-1
 243 271 l 1,87,88
 215 243 215 243 195 186 c 128,-1,89
 175 129 175 129 175 104 c 0,90,91
 175 39 175 39 268 39 c 1,43,44
EndSplineSet
EndChar

StartChar: h
Encoding: 104 104 94
Width: 762
Flags: W
LayerCount: 2
Fore
SplineSet
204 546 m 1,0,1
 297 772 297 772 454 772 c 0,2,3
 580 772 580 772 624 624 c 0,4,5
 639 572 639 572 639 496 c 2,6,-1
 639 334 l 2,7,8
 639 154 639 154 647 66 c 0,9,10
 649 34 649 34 629.5 17 c 128,-1,11
 610 0 610 0 588 0 c 128,-1,12
 566 0 566 0 550 15 c 128,-1,13
 534 30 534 30 540 85 c 0,14,15
 548 170 548 170 548 271 c 128,-1,16
 548 372 548 372 546 413.5 c 128,-1,17
 544 455 544 455 542.5 516 c 128,-1,18
 541 577 541 577 518 628 c 128,-1,19
 495 679 495 679 449.5 679 c 128,-1,20
 404 679 404 679 368.5 655 c 128,-1,21
 333 631 333 631 304 594 c 1,22,23
 245 515 245 515 230 416 c 1,24,25
 234 177 234 177 243 66 c 0,26,27
 245 34 245 34 228 17 c 128,-1,28
 211 0 211 0 184 0 c 0,29,30
 133 0 133 0 133 62 c 2,31,-1
 147 1172 l 1,32,33
 147 1385 147 1385 136 1704 c 0,34,35
 134 1736 134 1736 153.5 1751.5 c 128,-1,36
 173 1767 173 1767 195 1767 c 256,37,38
 217 1767 217 1767 232.5 1751.5 c 128,-1,39
 248 1736 248 1736 246.5 1697 c 128,-1,40
 245 1658 245 1658 243 1583.5 c 128,-1,41
 241 1509 241 1509 238.5 1415 c 128,-1,42
 236 1321 236 1321 234 1213 c 128,-1,43
 232 1105 232 1105 230 992 c 128,-1,44
 228 879 228 879 227 766 c 128,-1,45
 226 653 226 653 225 550 c 1,46,-1
 204 546 l 1,0,1
EndSplineSet
EndChar

StartChar: i
Encoding: 105 105 95
Width: 382
Flags: W
LayerCount: 2
Fore
SplineSet
238 479 m 128,-1,1
 233 378 233 378 233 297 c 128,-1,2
 233 216 233 216 238 129.5 c 128,-1,3
 243 43 243 43 238.5 30.5 c 128,-1,4
 234 18 234 18 226 10 c 0,5,6
 209 -7 209 -7 189 -7 c 128,-1,7
 169 -7 169 -7 151.5 8 c 128,-1,8
 134 23 134 23 138 69 c 0,9,10
 149 196 149 196 149 326 c 128,-1,11
 149 456 149 456 145.5 536.5 c 128,-1,12
 142 617 142 617 140.5 658 c 128,-1,13
 139 699 139 699 144 711 c 128,-1,14
 149 723 149 723 158 730 c 1,15,16
 175 746 175 746 196 746 c 128,-1,17
 217 746 217 746 233 731 c 128,-1,18
 249 716 249 716 248 684 c 0,19,0
 243 580 243 580 238 479 c 128,-1,1
280 1060 m 0,20,21
 287 1044 287 1044 285.5 1021.5 c 128,-1,22
 284 999 284 999 275 983 c 128,-1,23
 266 967 266 967 254 957 c 0,24,25
 231 939 231 939 207 939 c 128,-1,26
 183 939 183 939 169 944.5 c 128,-1,27
 155 950 155 950 144 960 c 0,28,29
 118 984 118 984 118 1023 c 256,30,31
 118 1062 118 1062 138 1079 c 0,32,33
 171 1108 171 1108 204 1108 c 0,34,35
 258 1108 258 1108 280 1060 c 0,20,21
EndSplineSet
EndChar

StartChar: j
Encoding: 106 106 96
Width: 413
Flags: W
LayerCount: 2
Fore
SplineSet
165 568.5 m 128,-1,1
 163 611 163 611 160 679 c 128,-1,2
 157 747 157 747 214.5 747 c 128,-1,3
 272 747 272 747 270 678 c 0,4,5
 261 372 261 372 261 148 c 2,6,-1
 261 -174 l 2,7,8
 261 -466 261 -466 134 -524 c 0,9,10
 93 -542 93 -542 48 -542 c 128,-1,11
 3 -542 3 -542 -30 -530.5 c 128,-1,12
 -63 -519 -63 -519 -88 -494 c 0,13,14
 -141 -443 -141 -443 -141 -338 c 0,15,16
 -141 -259 -141 -259 -85 -259 c 0,17,18
 -67 -259 -67 -259 -53.5 -276 c 128,-1,19
 -40 -293 -40 -293 -41.5 -322.5 c 128,-1,20
 -43 -352 -43 -352 -40 -376.5 c 128,-1,21
 -37 -401 -37 -401 -28 -420 c 0,22,23
 -9 -461 -9 -461 34 -461 c 128,-1,24
 77 -461 77 -461 101.5 -446 c 128,-1,25
 126 -431 126 -431 141 -396 c 0,26,27
 167 -336 167 -336 171 -157 c 1,28,-1
 171 -121 l 1,29,-1
 173 186 l 1,30,-1
 173 321 l 2,31,32
 173 404 173 404 170 465 c 128,-1,0
 167 526 167 526 165 568.5 c 128,-1,1
294.5 1059.5 m 128,-1,34
 302 1044 302 1044 300.5 1021.5 c 128,-1,35
 299 999 299 999 290 983 c 128,-1,36
 281 967 281 967 268 957 c 0,37,38
 245 939 245 939 213 939 c 128,-1,39
 181 939 181 939 156.5 960 c 128,-1,40
 132 981 132 981 132 1023 c 256,41,42
 132 1065 132 1065 158.5 1086.5 c 128,-1,43
 185 1108 185 1108 209 1108 c 128,-1,44
 233 1108 233 1108 248 1102.5 c 128,-1,45
 263 1097 263 1097 275 1086 c 128,-1,33
 287 1075 287 1075 294.5 1059.5 c 128,-1,34
EndSplineSet
EndChar

StartChar: k
Encoding: 107 107 97
Width: 737
Flags: W
LayerCount: 2
Fore
SplineSet
647 737 m 128,-1,1
 662 722 662 722 662 698.5 c 128,-1,2
 662 675 662 675 639.5 642.5 c 128,-1,3
 617 610 617 610 584.5 573.5 c 128,-1,4
 552 537 552 537 515.5 499.5 c 128,-1,5
 479 462 479 462 451 430 c 1,6,-1
 450 473 l 1,7,8
 489 331 489 331 606 164 c 0,9,10
 635 124 635 124 651 96.5 c 128,-1,11
 667 69 667 69 667 50.5 c 128,-1,12
 667 32 667 32 649 14 c 128,-1,13
 631 -4 631 -4 612 -4 c 0,14,15
 568 -4 568 -4 551.5 36.5 c 128,-1,16
 535 77 535 77 510 129.5 c 128,-1,17
 485 182 485 182 459 233 c 0,18,19
 403 343 403 343 367 400 c 1,20,-1
 406 391 l 1,21,22
 371 356 371 356 326 315 c 128,-1,23
 281 274 281 274 257 251 c 128,-1,24
 233 228 233 228 221 217 c 1,25,-1
 245 279 l 1,26,-1
 245 238 l 2,27,28
 245 213 245 213 246 183.5 c 128,-1,29
 247 154 247 154 248 124.5 c 128,-1,30
 249 95 249 95 249.5 66.5 c 128,-1,31
 250 38 250 38 232 21 c 128,-1,32
 214 4 214 4 193.5 4 c 128,-1,33
 173 4 173 4 157 19 c 128,-1,34
 141 34 141 34 143 81.5 c 128,-1,35
 145 129 145 129 146.5 207 c 128,-1,36
 148 285 148 285 148 374 c 0,37,38
 150 639 150 639 150 763.5 c 128,-1,39
 150 888 150 888 149 1024 c 128,-1,40
 148 1160 148 1160 146 1286 c 0,41,42
 140 1569 140 1569 126 1702 c 0,43,44
 123 1734 123 1734 141.5 1749.5 c 128,-1,45
 160 1765 160 1765 183.5 1765 c 128,-1,46
 207 1765 207 1765 226.5 1749.5 c 128,-1,47
 246 1734 246 1734 244.5 1696 c 128,-1,48
 243 1658 243 1658 242.5 1599 c 128,-1,49
 242 1540 242 1540 242 1470 c 0,50,51
 244 1260 244 1260 244 1159.5 c 128,-1,52
 244 1059 244 1059 243.5 949.5 c 128,-1,53
 243 840 243 840 242 729 c 0,54,55
 241 479 241 479 245 310 c 1,56,-1
 225 324 l 1,57,58
 335 421 335 421 466 590 c 0,59,60
 524 664 524 664 540 698 c 0,61,62
 567 752 567 752 612 752 c 0,63,0
 632 752 632 752 647 737 c 128,-1,1
EndSplineSet
EndChar

StartChar: l
Encoding: 108 108 98
Width: 398
Flags: W
LayerCount: 2
Fore
SplineSet
249.5 1044 m 128,-1,1
 248 902 248 902 248 606 c 128,-1,2
 248 310 248 310 256 58 c 0,3,4
 257 25 257 25 240.5 8 c 128,-1,5
 224 -9 224 -9 201 -9 c 256,6,7
 178 -9 178 -9 160 6.5 c 128,-1,8
 142 22 142 22 145 77 c 128,-1,9
 148 132 148 132 151.5 242.5 c 128,-1,10
 155 353 155 353 158 482 c 0,11,12
 163 766 163 766 163 957.5 c 128,-1,13
 163 1149 163 1149 162.5 1245 c 128,-1,14
 162 1341 162 1341 161 1422 c 0,15,16
 159 1574 159 1574 151 1700 c 0,17,18
 149 1732 149 1732 164 1749.5 c 128,-1,19
 179 1767 179 1767 202 1767 c 256,20,21
 225 1767 225 1767 244.5 1749.5 c 128,-1,22
 264 1732 264 1732 262 1680 c 128,-1,23
 260 1628 260 1628 257.5 1529 c 128,-1,24
 255 1430 255 1430 253 1308 c 128,-1,0
 251 1186 251 1186 249.5 1044 c 128,-1,1
EndSplineSet
EndChar

StartChar: m
Encoding: 109 109 99
Width: 1084
Flags: W
LayerCount: 2
Fore
SplineSet
232 386 m 2,0,-1
 232 315 l 2,1,2
 232 264 232 264 239 66 c 1,3,4
 239 20 239 20 200 4 c 0,5,6
 189 0 189 0 175 0 c 128,-1,7
 161 0 161 0 147 15 c 128,-1,8
 133 30 133 30 134 76 c 128,-1,9
 135 122 135 122 136.5 172.5 c 128,-1,10
 138 223 138 223 140 268 c 0,11,12
 143 375 143 375 143 436 c 0,13,14
 143 534 143 534 135 678 c 0,15,16
 133 709 133 709 149.5 728 c 128,-1,17
 166 747 166 747 187.5 747 c 128,-1,18
 209 747 209 747 228 728.5 c 128,-1,19
 247 710 247 710 245 689 c 128,-1,20
 243 668 243 668 242 652.5 c 128,-1,21
 241 637 241 637 240 620 c 0,22,23
 238 576 238 576 236 561 c 1,24,-1
 223 572 l 1,25,26
 285 707 285 707 379 743 c 0,27,28
 408 754 408 754 440 754 c 128,-1,29
 472 754 472 754 500.5 739.5 c 128,-1,30
 529 725 529 725 550 699 c 0,31,32
 591 649 591 649 601 561 c 1,33,-1
 581 583 l 1,34,35
 666 754 666 754 793 754 c 0,36,37
 912 754 912 754 951 606 c 0,38,39
 965 553 965 553 965 477 c 2,40,-1
 965 355 l 2,41,42
 965 180 965 180 974 66 c 0,43,44
 976 34 976 34 958.5 17 c 128,-1,45
 941 0 941 0 925.5 0 c 128,-1,46
 910 0 910 0 899.5 4 c 128,-1,47
 889 8 889 8 881 16 c 0,48,49
 861 34 861 34 864 62.5 c 128,-1,50
 867 91 867 91 869 127.5 c 128,-1,51
 871 164 871 164 872 204 c 0,52,53
 876 299 876 299 876 351 c 128,-1,54
 876 403 876 403 877 431.5 c 128,-1,55
 878 460 878 460 876.5 517 c 128,-1,56
 875 574 875 574 849.5 617.5 c 128,-1,57
 824 661 824 661 783.5 661 c 128,-1,58
 743 661 743 661 714 643 c 128,-1,59
 685 625 685 625 664 594 c 0,60,61
 620 530 620 530 610 432 c 1,62,-1
 610 362 l 2,63,64
 610 190 610 190 617 66 c 0,65,66
 618 34 618 34 599 17 c 128,-1,67
 580 0 580 0 559.5 0 c 128,-1,68
 539 0 539 0 522 15 c 128,-1,69
 505 30 505 30 508 61 c 128,-1,70
 511 92 511 92 513 130 c 128,-1,71
 515 168 515 168 516 210 c 0,72,73
 520 306 520 306 520 358 c 2,74,-1
 520 440 l 2,75,76
 520 469 520 469 518 494 c 1,77,78
 516 577 516 577 489 619 c 128,-1,79
 462 661 462 661 420.5 661 c 128,-1,80
 379 661 379 661 348.5 640.5 c 128,-1,81
 318 620 318 620 295 587 c 0,82,83
 251 524 251 524 233 428 c 1,84,85
 232 405 232 405 232 386 c 2,0,-1
EndSplineSet
EndChar

StartChar: n
Encoding: 110 110 100
Width: 754
Flags: W
LayerCount: 2
Fore
SplineSet
634 485 m 1,0,-1
 632 269 l 2,1,2
 632 162 632 162 639 69 c 0,3,4
 641 35 641 35 622.5 18.5 c 128,-1,5
 604 2 604 2 583.5 2 c 128,-1,6
 563 2 563 2 546.5 17.5 c 128,-1,7
 530 33 530 33 533.5 64.5 c 128,-1,8
 537 96 537 96 539.5 137 c 128,-1,9
 542 178 542 178 544 222 c 0,10,11
 548 310 548 310 548 367.5 c 128,-1,12
 548 425 548 425 546 451 c 128,-1,13
 544 477 544 477 542 528.5 c 128,-1,14
 540 580 540 580 515 625.5 c 128,-1,15
 490 671 490 671 445 671 c 128,-1,16
 400 671 400 671 367 652 c 128,-1,17
 334 633 334 633 306 602 c 1,18,19
 249 535 249 535 230 446 c 1,20,21
 229 418 229 418 229 391 c 2,22,-1
 229 339 l 2,23,24
 229 158 229 158 233 99.5 c 128,-1,25
 237 41 237 41 226 21.5 c 128,-1,26
 215 2 215 2 187.5 2 c 128,-1,27
 160 2 160 2 144.5 19.5 c 128,-1,28
 129 37 129 37 132 84 c 0,29,30
 142 213 142 213 142 349 c 0,31,32
 142 582 142 582 135 691 c 0,33,34
 131 758 131 758 191 758 c 0,35,36
 222 758 222 758 230.5 739 c 128,-1,37
 239 720 239 720 236.5 699 c 128,-1,38
 234 678 234 678 233.5 663 c 128,-1,39
 233 648 233 648 233 632 c 0,40,41
 233 596 233 596 231 574 c 1,42,-1
 221 579 l 1,43,44
 282 712 282 712 390 750 c 0,45,46
 421 761 421 761 453 761 c 128,-1,47
 485 761 485 761 519 746.5 c 128,-1,48
 553 732 553 732 578 699 c 0,49,50
 634 627 634 627 634 485 c 1,0,-1
EndSplineSet
EndChar

StartChar: o
Encoding: 111 111 101
Width: 713
Flags: W
LayerCount: 2
Fore
SplineSet
350 -22 m 0,0,1
 293 -23 293 -23 243.5 1.5 c 128,-1,2
 194 26 194 26 158 78 c 1,3,4
 79 188 79 188 79 391 c 0,5,6
 79 573 79 573 164 678 c 0,7,8
 244 778 244 778 376 778 c 0,9,10
 487 778 487 778 560 682 c 1,11,12
 635 580 635 580 635 402 c 0,13,14
 635 204 635 204 548 86 c 0,15,16
 470 -20 470 -20 350 -22 c 0,0,1
442 673 m 0,17,18
 409 697 409 697 364.5 697 c 128,-1,19
 320 697 320 697 283.5 672.5 c 128,-1,20
 247 648 247 648 222 604 c 0,21,22
 171 516 171 516 171 362.5 c 128,-1,23
 171 209 171 209 220 136 c 128,-1,24
 269 63 269 63 351 63 c 0,25,26
 441 63 441 63 495 166 c 0,27,28
 543 258 543 258 543 392 c 0,29,30
 543 598 543 598 442 673 c 0,17,18
EndSplineSet
EndChar

StartChar: p
Encoding: 112 112 102
Width: 751
Flags: W
LayerCount: 2
Fore
SplineSet
233 438 m 1,0,1
 230 144 230 144 238 44 c 1,2,-1
 217 72 l 1,3,4
 262 56 262 56 326.5 85 c 128,-1,5
 391 114 391 114 434 149 c 128,-1,6
 477 184 477 184 512 235 c 0,7,8
 592 352 592 352 592 514 c 0,9,10
 592 601 592 601 556 645.5 c 128,-1,11
 520 690 520 690 470.5 690 c 128,-1,12
 421 690 421 690 380 665.5 c 128,-1,13
 339 641 339 641 308 604 c 0,14,15
 244 526 244 526 233 438 c 1,0,1
235 -21 m 1,16,17
 232 -89 232 -89 232 -156 c 128,-1,18
 232 -223 232 -223 247 -463 c 1,19,20
 247 -501 247 -501 206 -514 c 0,21,22
 195 -517 195 -517 184.5 -517 c 128,-1,23
 174 -517 174 -517 164.5 -513.5 c 128,-1,24
 155 -510 155 -510 148 -502 c 0,25,26
 131 -485 131 -485 134 -445 c 0,27,28
 144 -310 144 -310 144 -45 c 0,29,30
 144 426 144 426 133 679 c 0,31,32
 131 712 131 712 147.5 732 c 128,-1,33
 164 752 164 752 187 752 c 128,-1,34
 210 752 210 752 224.5 735.5 c 128,-1,35
 239 719 239 719 237 692 c 0,36,37
 230 593 230 593 232 548 c 1,38,-1
 211 568 l 1,39,40
 248 664 248 664 326 722 c 0,41,42
 399 777 399 777 490 777 c 128,-1,43
 581 777 581 777 632.5 709 c 128,-1,44
 684 641 684 641 684 534 c 128,-1,45
 684 427 684 427 662 352.5 c 128,-1,46
 640 278 640 278 603.5 219 c 128,-1,47
 567 160 567 160 519.5 116 c 128,-1,48
 472 72 472 72 422 42 c 0,49,50
 323 -17 323 -17 235 -21 c 1,16,17
EndSplineSet
EndChar

StartChar: q
Encoding: 113 113 103
Width: 755
Flags: W
LayerCount: 2
Fore
SplineSet
533 -45 m 1,0,-1
 532 60 l 1,1,-1
 532 161 l 1,2,-1
 547 144 l 1,3,4
 503 57 503 57 472 28 c 1,5,6
 415 -22 415 -22 352.5 -22 c 128,-1,7
 290 -22 290 -22 242.5 1.5 c 128,-1,8
 195 25 195 25 160 72 c 0,9,10
 86 173 86 173 86 355 c 0,11,12
 86 546 86 546 184 666 c 0,13,14
 275 776 275 776 398 776 c 0,15,16
 486 776 486 776 538 724 c 1,17,-1
 521 714 l 1,18,19
 523 741 523 741 541 757.5 c 128,-1,20
 559 774 559 774 578 774 c 0,21,22
 619 774 619 774 617 698 c 128,-1,23
 615 622 615 622 615 554 c 2,24,-1
 615 416 l 1,25,-1
 622 -464 l 2,26,27
 622 -490 622 -490 603.5 -505 c 128,-1,28
 585 -520 585 -520 569.5 -520 c 128,-1,29
 554 -520 554 -520 544.5 -516 c 128,-1,30
 535 -512 535 -512 528 -504 c 1,31,32
 510 -487 510 -487 514 -455.5 c 128,-1,33
 518 -424 518 -424 521.5 -376.5 c 128,-1,34
 525 -329 525 -329 528 -274 c 0,35,36
 533 -155 533 -155 533 -45 c 1,0,-1
520 429 m 2,37,-1
 516 651 l 1,38,39
 465 690 465 690 392 690 c 0,40,41
 318 690 318 690 252 602 c 1,42,43
 174 500 174 500 174 344 c 0,44,45
 174 220 174 220 221.5 142 c 128,-1,46
 269 64 269 64 342 64 c 0,47,48
 417 64 417 64 464 124 c 0,49,50
 527 205 527 205 522 330 c 0,51,52
 520 381 520 381 520 429 c 2,37,-1
EndSplineSet
EndChar

StartChar: r
Encoding: 114 114 104
Width: 531
Flags: W
LayerCount: 2
Fore
SplineSet
543 721 m 0,0,1
 543 667 543 667 489 659 c 1,2,3
 423 646 423 646 340 546 c 0,4,5
 251 438 251 438 240 333 c 0,6,7
 236 287 236 287 236 249 c 0,8,9
 236 158 236 158 244 58 c 0,10,11
 246 25 246 25 227.5 8 c 128,-1,12
 209 -9 209 -9 187.5 -9 c 128,-1,13
 166 -9 166 -9 150 6.5 c 128,-1,14
 134 22 134 22 137 53.5 c 128,-1,15
 140 85 140 85 142 126.5 c 128,-1,16
 144 168 144 168 146 214 c 0,17,18
 148 292 148 292 148 388 c 0,19,20
 148 550 148 550 144 628.5 c 128,-1,21
 140 707 140 707 145 719 c 128,-1,22
 150 731 150 731 158 738 c 0,23,24
 175 754 175 754 195.5 754 c 128,-1,25
 216 754 216 754 232.5 739 c 128,-1,26
 249 724 249 724 247.5 700.5 c 128,-1,27
 246 677 246 677 243.5 654.5 c 128,-1,28
 241 632 241 632 238 599 c 0,29,30
 229 516 229 516 222 414 c 1,31,-1
 214 448 l 1,32,33
 254 573 254 573 344 676 c 1,34,35
 429 771 429 771 492 771 c 0,36,37
 519 771 519 771 531 756 c 128,-1,38
 543 741 543 741 543 721 c 0,0,1
EndSplineSet
EndChar

StartChar: s
Encoding: 115 115 105
Width: 664
Flags: W
LayerCount: 2
Fore
SplineSet
158 253 m 0,0,1
 204 253 204 253 199 170 c 1,2,3
 195 121 195 121 237 86 c 0,4,5
 277 52 277 52 340.5 52 c 128,-1,6
 404 52 404 52 443 87 c 128,-1,7
 482 122 482 122 482 174.5 c 128,-1,8
 482 227 482 227 456 256.5 c 128,-1,9
 430 286 430 286 391 309.5 c 128,-1,10
 352 333 352 333 307 354.5 c 128,-1,11
 262 376 262 376 223 404 c 0,12,13
 132 471 132 471 132 569 c 0,14,15
 132 654 132 654 190 710 c 0,16,17
 252 771 252 771 351 771 c 0,18,19
 436 771 436 771 493 722 c 0,20,21
 554 670 554 670 554 587 c 1,22,23
 560 546 560 546 543 526.5 c 128,-1,24
 526 507 526 507 503.5 507 c 128,-1,25
 481 507 481 507 467.5 527 c 128,-1,26
 454 547 454 547 455.5 574 c 128,-1,27
 457 601 457 601 452.5 621.5 c 128,-1,28
 448 642 448 642 435 659 c 0,29,30
 406 697 406 697 341 697 c 0,31,32
 289 697 289 697 265 672 c 0,33,34
 224 629 224 629 224 582 c 128,-1,35
 224 535 224 535 250 504.5 c 128,-1,36
 276 474 276 474 315 449.5 c 128,-1,37
 354 425 354 425 399 403 c 128,-1,38
 444 381 444 381 483 353 c 0,39,40
 574 288 574 288 574 190 c 0,41,42
 574 96 574 96 512 38 c 0,43,44
 447 -23 447 -23 331 -23 c 0,45,46
 231 -23 231 -23 164 36 c 1,47,48
 95 95 95 95 101 184 c 0,49,50
 105 253 105 253 158 253 c 0,0,1
EndSplineSet
EndChar

StartChar: t
Encoding: 116 116 106
Width: 538
Flags: W
LayerCount: 2
Fore
SplineSet
145 948 m 2,0,1
 145 983 145 983 162 1000 c 128,-1,2
 179 1017 179 1017 199 1017 c 256,3,4
 219 1017 219 1017 235 1000 c 128,-1,5
 251 983 251 983 247 948 c 0,6,7
 235 824 235 824 235 645 c 0,8,9
 235 231 235 231 247 178 c 128,-1,10
 259 125 259 125 273 102 c 0,11,12
 298 62 298 62 337 62 c 0,13,14
 400 62 400 62 422 124 c 1,15,16
 431 174 431 174 473 174 c 0,17,18
 488 174 488 174 499.5 161.5 c 128,-1,19
 511 149 511 149 511 125 c 128,-1,20
 511 101 511 101 496 73 c 128,-1,21
 481 45 481 45 456 24 c 0,22,23
 401 -22 401 -22 333 -22 c 0,24,25
 209 -22 209 -22 162 115 c 0,26,27
 145 165 145 165 145 238 c 2,28,-1
 145 948 l 2,0,1
101 736 m 2,29,-1
 232 732 l 1,30,31
 317 732 317 732 359.5 737 c 128,-1,32
 402 742 402 742 420 742 c 0,33,34
 488 744 488 744 488 692 c 0,35,36
 488 662 488 662 453 650 c 0,37,38
 441 646 441 646 425 647 c 128,-1,39
 409 648 409 648 390.5 648.5 c 128,-1,40
 372 649 372 649 354 649 c 0,41,42
 323 649 323 649 294.5 649 c 128,-1,43
 266 649 266 649 244 648 c 128,-1,44
 222 647 222 647 200 645.5 c 128,-1,45
 178 644 178 644 154 642 c 128,-1,46
 130 640 130 640 99 638.5 c 128,-1,47
 68 637 68 637 52.5 653.5 c 128,-1,48
 37 670 37 670 37 688.5 c 128,-1,49
 37 707 37 707 53 721.5 c 128,-1,50
 69 736 69 736 101 736 c 2,29,-1
EndSplineSet
EndChar

StartChar: u
Encoding: 117 117 107
Width: 756
Flags: W
LayerCount: 2
Fore
SplineSet
213 244 m 0,0,1
 213 66 213 66 346 66 c 0,2,3
 422 66 422 66 476 142 c 0,4,5
 524 210 524 210 533 304 c 1,6,7
 536 392 536 392 536 466 c 0,8,9
 536 572 536 572 534 680 c 1,10,11
 532 713 532 713 551 730 c 128,-1,12
 570 747 570 747 590.5 747 c 128,-1,13
 611 747 611 747 627 731.5 c 128,-1,14
 643 716 643 716 639 686 c 1,15,16
 621 493 621 493 621 313.5 c 128,-1,17
 621 134 621 134 626 113 c 128,-1,18
 631 92 631 92 638 78 c 0,19,20
 654 42 654 42 654 25.5 c 128,-1,21
 654 9 654 9 641.5 -5.5 c 128,-1,22
 629 -20 629 -20 607 -20 c 0,23,24
 532 -20 532 -20 534 118 c 0,25,26
 535 142 535 142 539 166 c 1,27,-1
 556 161 l 1,28,29
 510 63 510 63 471 31 c 0,30,31
 372 -51 372 -51 254 -8 c 1,32,33
 122 42 122 42 122 253 c 0,34,35
 122 363 122 363 120.5 470 c 128,-1,36
 119 577 119 577 120 680 c 0,37,38
 121 713 121 713 138.5 729.5 c 128,-1,39
 156 746 156 746 176.5 746 c 128,-1,40
 197 746 197 746 214 731 c 128,-1,41
 231 716 231 716 226.5 680 c 128,-1,42
 222 644 222 644 219.5 586 c 128,-1,43
 217 528 217 528 216 467 c 0,44,45
 213 365 213 365 213 244 c 0,0,1
EndSplineSet
EndChar

StartChar: v
Encoding: 118 118 108
Width: 647
Flags: W
LayerCount: 2
Fore
SplineSet
382 30 m 1,0,1
 371 -4 371 -4 330 -4 c 0,2,3
 290 -4 290 -4 281 24 c 0,4,5
 254 106 254 106 229 187 c 128,-1,6
 204 268 204 268 178 346 c 0,7,8
 119 530 119 530 63 650 c 1,9,10
 50 681 50 681 50 705.5 c 128,-1,11
 50 730 50 730 64.5 745 c 128,-1,12
 79 760 79 760 97.5 760 c 128,-1,13
 116 760 116 760 136 746.5 c 128,-1,14
 156 733 156 733 173 676.5 c 128,-1,15
 190 620 190 620 216.5 524.5 c 128,-1,16
 243 429 243 429 268 340 c 0,17,18
 328 121 328 121 347 73 c 1,19,-1
 321 73 l 1,20,21
 341 147 341 147 361.5 211.5 c 128,-1,22
 382 276 382 276 404 346 c 0,23,24
 457 516 457 516 497 702 c 0,25,26
 510 758 510 758 555 758 c 0,27,28
 575 758 575 758 589.5 745.5 c 128,-1,29
 604 733 604 733 604 714 c 0,30,31
 604 686 604 686 584 634 c 128,-1,32
 564 582 564 582 536 504 c 128,-1,33
 508 426 508 426 481 346 c 0,34,35
 419 162 419 162 382 30 c 1,0,1
EndSplineSet
EndChar

StartChar: w
Encoding: 119 119 109
Width: 977
Flags: W
LayerCount: 2
Fore
SplineSet
513 703 m 1,0,1
 500 650 500 650 481.5 572 c 128,-1,2
 463 494 463 494 440 404 c 0,3,4
 382 168 382 168 344 42 c 0,5,6
 338 25 338 25 322 13 c 128,-1,7
 306 1 306 1 290 1 c 0,8,9
 253 1 253 1 244 35 c 1,10,11
 218 123 218 123 196 202.5 c 128,-1,12
 174 282 174 282 152 358 c 0,13,14
 107 512 107 512 54 652 c 0,15,16
 44 681 44 681 44 707 c 128,-1,17
 44 733 44 733 57.5 747 c 128,-1,18
 71 761 71 761 89 761 c 0,19,20
 137 761 137 761 151.5 707.5 c 128,-1,21
 166 654 166 654 180.5 594.5 c 128,-1,22
 195 535 195 535 209.5 472.5 c 128,-1,23
 224 410 224 410 238.5 348.5 c 128,-1,24
 253 287 253 287 268 232 c 0,25,26
 301 106 301 106 322 61 c 1,27,-1
 282 61 l 1,28,-1
 433 693 l 1,29,30
 451 760 451 760 502 760 c 0,31,32
 555 760 555 760 570 689 c 1,33,34
 667 196 667 196 716 66 c 1,35,-1
 672 66 l 1,36,37
 688 127 688 127 706 194.5 c 128,-1,38
 724 262 724 262 744 340 c 0,39,40
 776 471 776 471 829 704 c 0,41,42
 835 734 835 734 852.5 747.5 c 128,-1,43
 870 761 870 761 887 761 c 128,-1,44
 904 761 904 761 918.5 746.5 c 128,-1,45
 933 732 933 732 933 712 c 128,-1,46
 933 692 933 692 924 668.5 c 128,-1,47
 915 645 915 645 898.5 594 c 128,-1,48
 882 543 882 543 863.5 480.5 c 128,-1,49
 845 418 845 418 825.5 350.5 c 128,-1,50
 806 283 806 283 789 222 c 0,51,52
 761 122 761 122 748 71 c 128,-1,53
 735 20 735 20 719.5 10 c 128,-1,54
 704 0 704 0 688 0 c 0,55,56
 651 0 651 0 641 35 c 0,57,58
 619 118 619 118 577 297 c 0,59,60
 505 602 505 602 478 703 c 1,61,-1
 513 703 l 1,0,1
EndSplineSet
EndChar

StartChar: x
Encoding: 120 120 110
Width: 688
Flags: W
LayerCount: 2
Fore
SplineSet
362 319 m 1,0,1
 343 286 343 286 319.5 244.5 c 128,-1,2
 296 203 296 203 272 162 c 0,3,4
 183 7 183 7 167.5 -2 c 128,-1,5
 152 -11 152 -11 137 -11 c 128,-1,6
 122 -11 122 -11 105.5 3.5 c 128,-1,7
 89 18 89 18 89 39 c 256,8,9
 89 60 89 60 107.5 85 c 128,-1,10
 126 110 126 110 148.5 138 c 128,-1,11
 171 166 171 166 196 201 c 0,12,13
 252 282 252 282 304 391 c 1,14,-1
 310 354 l 1,15,16
 278 398 278 398 233 474.5 c 128,-1,17
 188 551 188 551 151.5 607.5 c 128,-1,18
 115 664 115 664 111 678.5 c 128,-1,19
 107 693 107 693 107 711 c 128,-1,20
 107 729 107 729 123 742.5 c 128,-1,21
 139 756 139 756 160 756 c 0,22,23
 197 756 197 756 217 707.5 c 128,-1,24
 237 659 237 659 257.5 617.5 c 128,-1,25
 278 576 278 576 297.5 541 c 128,-1,26
 317 506 317 506 336 475 c 128,-1,27
 355 444 355 444 373 414 c 1,28,-1
 352 418 l 1,29,30
 361 434 361 434 379 463.5 c 128,-1,31
 397 493 397 493 418 534 c 0,32,33
 470 638 470 638 498 729 c 1,34,35
 511 764 511 764 538 764 c 128,-1,36
 565 764 565 764 576 755 c 128,-1,37
 587 746 587 746 592 732 c 0,38,39
 601 701 601 701 582 665 c 128,-1,40
 563 629 563 629 539.5 588.5 c 128,-1,41
 516 548 516 548 492 506 c 0,42,43
 435 407 435 407 406 345 c 1,44,-1
 402 378 l 1,45,46
 440 308 440 308 502 210.5 c 128,-1,47
 564 113 564 113 582 79 c 1,48,49
 593 67 593 67 593 44.5 c 128,-1,50
 593 22 593 22 577 8 c 128,-1,51
 561 -6 561 -6 542 -6 c 0,52,53
 502 -6 502 -6 485 31 c 1,54,55
 429 171 429 171 395.5 232 c 128,-1,56
 362 293 362 293 349 317 c 1,57,-1
 362 319 l 1,0,1
EndSplineSet
EndChar

StartChar: y
Encoding: 121 121 111
Width: 681
Flags: W
LayerCount: 2
Fore
SplineSet
328 -89 m 1,0,1
 302 -5 302 -5 273.5 93 c 128,-1,2
 245 191 245 191 214 290 c 0,3,4
 140 531 140 531 110 596 c 0,5,6
 76 672 76 672 76 699 c 128,-1,7
 76 726 76 726 90 741.5 c 128,-1,8
 104 757 104 757 126 757 c 0,9,10
 169 757 169 757 186 700.5 c 128,-1,11
 203 644 203 644 221 580.5 c 128,-1,12
 239 517 239 517 256.5 451.5 c 128,-1,13
 274 386 274 386 291 322 c 128,-1,14
 308 258 308 258 323 200.5 c 128,-1,15
 338 143 338 143 350.5 96 c 128,-1,16
 363 49 363 49 371 18 c 1,17,-1
 349 16 l 1,18,19
 472 476 472 476 516 694 c 1,20,21
 527 756 527 756 577 756 c 0,22,23
 597 756 597 756 612 743 c 128,-1,24
 627 730 627 730 627 711 c 0,25,26
 627 680 627 680 612 639 c 128,-1,27
 597 598 597 598 571.5 512.5 c 128,-1,28
 546 427 546 427 518.5 329 c 128,-1,29
 491 231 491 231 462.5 125.5 c 128,-1,30
 434 20 434 20 405 -86 c 0,31,32
 291 -499 291 -499 264 -527 c 0,33,34
 251 -541 251 -541 227.5 -541 c 128,-1,35
 204 -541 204 -541 187.5 -527.5 c 128,-1,36
 171 -514 171 -514 171 -496 c 0,37,38
 171 -466 171 -466 186 -440 c 128,-1,39
 201 -414 201 -414 218.5 -373.5 c 128,-1,40
 236 -333 236 -333 256 -279 c 0,41,42
 298 -163 298 -163 338 -20 c 1,43,-1
 328 -89 l 1,0,1
EndSplineSet
EndChar

StartChar: z
Encoding: 122 122 112
Width: 620
Flags: W
LayerCount: 2
Fore
SplineSet
559 720 m 128,-1,1
 564 707 564 707 559 692 c 128,-1,2
 554 677 554 677 540.5 654 c 128,-1,3
 527 631 527 631 508 597.5 c 128,-1,4
 489 564 489 564 462 519 c 128,-1,5
 435 474 435 474 404.5 424.5 c 128,-1,6
 374 375 374 375 342 324 c 128,-1,7
 310 273 310 273 280 224 c 0,8,9
 203 98 203 98 176 51 c 1,10,-1
 170 82 l 1,11,-1
 277 82 l 2,12,13
 338 82 338 82 491 100 c 1,14,15
 520 105 520 105 540 92 c 128,-1,16
 560 79 560 79 560 62.5 c 128,-1,17
 560 46 560 46 556.5 35 c 128,-1,18
 553 24 553 24 544 16 c 1,19,20
 524 -5 524 -5 493 -2.5 c 128,-1,21
 462 0 462 0 438 0 c 2,22,-1
 388 0 l 2,23,24
 329 0 329 0 271.5 -1.5 c 128,-1,25
 214 -3 214 -3 181.5 -4 c 128,-1,26
 149 -5 149 -5 134 0 c 128,-1,27
 119 5 119 5 109 13 c 0,28,29
 89 29 89 29 89 54 c 0,30,31
 89 81 89 81 104 107 c 128,-1,32
 119 133 119 133 147 176 c 128,-1,33
 175 219 175 219 208 270.5 c 128,-1,34
 241 322 241 322 277 378 c 128,-1,35
 313 434 313 434 348 490 c 0,36,37
 428 621 428 621 463 694 c 1,38,-1
 488 661 l 1,39,-1
 396 661 l 2,40,41
 317 661 317 661 262 656.5 c 128,-1,42
 207 652 207 652 179 650 c 128,-1,43
 151 648 151 648 133 664 c 128,-1,44
 115 680 115 680 115 700.5 c 128,-1,45
 115 721 115 721 134.5 739 c 128,-1,46
 154 757 154 757 190 754 c 0,47,48
 288 746 288 746 340 746 c 0,49,50
 448 746 448 746 473.5 750.5 c 128,-1,51
 499 755 499 755 515 752 c 128,-1,52
 531 749 531 749 542.5 741 c 128,-1,0
 554 733 554 733 559 720 c 128,-1,1
EndSplineSet
EndChar

StartChar: braceleft
Encoding: 123 123 113
Width: 699
Flags: W
LayerCount: 2
Fore
SplineSet
269 171 m 2,0,1
 269 436 269 436 252.5 492 c 128,-1,2
 236 548 236 548 213.5 561.5 c 128,-1,3
 191 575 191 575 155 575 c 1,4,5
 121 570 121 570 99.5 590 c 128,-1,6
 78 610 78 610 78 634 c 128,-1,7
 78 658 78 658 100.5 678.5 c 128,-1,8
 123 699 123 699 174 699 c 1,9,10
 244 714 244 714 265 892 c 0,11,12
 283 1046 283 1046 283 1498 c 0,13,14
 283 1794 283 1794 424 1857 c 0,15,16
 469 1877 469 1877 513.5 1877 c 128,-1,17
 558 1877 558 1877 574.5 1862 c 128,-1,18
 591 1847 591 1847 591 1828 c 128,-1,19
 591 1809 591 1809 573 1793.5 c 128,-1,20
 555 1778 555 1778 520.5 1778 c 128,-1,21
 486 1778 486 1778 459 1765.5 c 128,-1,22
 432 1753 432 1753 412 1716 c 0,23,24
 372 1638 372 1638 372 1429 c 0,25,26
 372 1357 372 1357 373.5 1270 c 128,-1,27
 375 1183 375 1183 373 1095 c 128,-1,28
 371 1007 371 1007 362.5 924 c 128,-1,29
 354 841 354 841 334 777 c 0,30,31
 288 636 288 636 189 636 c 1,32,-1
 189 644 l 1,33,34
 259 647 259 647 293.5 608 c 128,-1,35
 328 569 328 569 341.5 496 c 128,-1,36
 355 423 355 423 355 320 c 2,37,-1
 355 92 l 2,38,39
 355 -18 355 -18 380.5 -63 c 128,-1,40
 406 -108 406 -108 438.5 -127.5 c 128,-1,41
 471 -147 471 -147 510 -147 c 0,42,43
 578 -147 578 -147 578 -189 c 0,44,45
 578 -208 578 -208 559 -223.5 c 128,-1,46
 540 -239 540 -239 500 -239 c 128,-1,47
 460 -239 460 -239 419 -224.5 c 128,-1,48
 378 -210 378 -210 344 -173 c 0,49,50
 265 -86 265 -86 269 94 c 1,51,-1
 269 171 l 2,0,1
EndSplineSet
EndChar

StartChar: bar
Encoding: 124 124 114
Width: 399
Flags: W
LayerCount: 2
Fore
SplineSet
164 -154 m 0,0,1
 174 190 174 190 174 540.5 c 128,-1,2
 174 891 174 891 173.5 1026 c 128,-1,3
 173 1161 173 1161 172 1294 c 0,4,5
 168 1583 168 1583 159 1801 c 0,6,7
 157 1839 157 1839 173.5 1857 c 128,-1,8
 190 1875 190 1875 213 1875 c 256,9,10
 236 1875 236 1875 254 1856 c 128,-1,11
 272 1837 272 1837 269.5 1779.5 c 128,-1,12
 267 1722 267 1722 265 1651 c 128,-1,13
 263 1580 263 1580 261.5 1511 c 128,-1,14
 260 1442 260 1442 258.5 1372 c 128,-1,15
 257 1302 257 1302 256 1225 c 0,16,17
 255 994 255 994 255 876.5 c 128,-1,18
 255 759 255 759 255.5 650 c 128,-1,19
 256 541 256 541 256.5 439.5 c 128,-1,20
 257 338 257 338 258 246 c 128,-1,21
 259 154 259 154 260 78 c 0,22,23
 264 -99 264 -99 266 -143 c 128,-1,24
 268 -187 268 -187 251.5 -203 c 128,-1,25
 235 -219 235 -219 215.5 -219 c 128,-1,26
 196 -219 196 -219 179.5 -203 c 128,-1,27
 163 -187 163 -187 164 -154 c 0,0,1
EndSplineSet
EndChar

StartChar: braceright
Encoding: 125 125 115
Width: 694
Flags: W
LayerCount: 2
Fore
SplineSet
400 94 m 1,0,1
 402 -88 402 -88 324 -173 c 1,2,3
 265 -239 265 -239 171 -239 c 0,4,5
 129 -239 129 -239 110 -223.5 c 128,-1,6
 91 -208 91 -208 91 -190.5 c 128,-1,7
 91 -173 91 -173 105.5 -160 c 128,-1,8
 120 -147 120 -147 159 -147 c 128,-1,9
 198 -147 198 -147 230.5 -127.5 c 128,-1,10
 263 -108 263 -108 282 -76 c 1,11,12
 314 -18 314 -18 314 99 c 2,13,-1
 314 318 l 2,14,15
 314 533 314 533 376 604 c 0,16,17
 410 643 410 643 480 644 c 1,18,-1
 480 636 l 1,19,20
 331 620 331 620 303 916 c 0,21,22
 289 1066 289 1066 293 1211.5 c 128,-1,23
 297 1357 297 1357 297 1449 c 128,-1,24
 297 1541 297 1541 286.5 1609.5 c 128,-1,25
 276 1678 276 1678 256 1716 c 0,26,27
 224 1778 224 1778 150 1778 c 0,28,29
 114 1778 114 1778 96 1793.5 c 128,-1,30
 78 1809 78 1809 78 1828 c 128,-1,31
 78 1847 78 1847 94.5 1862 c 128,-1,32
 111 1877 111 1877 155.5 1877 c 128,-1,33
 200 1877 200 1877 245 1857 c 128,-1,34
 290 1837 290 1837 322 1792 c 0,35,36
 386 1700 386 1700 386 1491.5 c 128,-1,37
 386 1283 386 1283 389 1134.5 c 128,-1,38
 392 986 392 986 403.5 891.5 c 128,-1,39
 415 797 415 797 436.5 752 c 128,-1,40
 458 707 458 707 495 699 c 1,41,42
 546 699 546 699 568.5 678.5 c 128,-1,43
 591 658 591 658 591 634 c 128,-1,44
 591 610 591 610 569.5 590 c 128,-1,45
 548 570 548 570 514 575 c 1,46,47
 478 575 478 575 455.5 561.5 c 128,-1,48
 433 548 433 548 420 506 c 0,49,50
 400 436 400 436 400 171 c 2,51,-1
 400 94 l 1,0,1
EndSplineSet
EndChar

StartChar: asciitilde
Encoding: 126 126 116
Width: 992
Flags: W
LayerCount: 2
Fore
SplineSet
659 392.5 m 128,-1,1
 689 390 689 390 709.5 397 c 128,-1,2
 730 404 730 404 746 417 c 0,3,4
 775 440 775 440 787 477 c 1,5,6
 810 542 810 542 854 542 c 0,7,8
 871 542 871 542 884 524.5 c 128,-1,9
 897 507 897 507 897 486 c 128,-1,10
 897 465 897 465 884.5 439.5 c 128,-1,11
 872 414 872 414 851.5 388 c 128,-1,12
 831 362 831 362 802 341 c 0,13,14
 736 294 736 294 651 301 c 0,15,16
 562 308 562 308 482 402 c 1,17,18
 403 493 403 493 319 502 c 1,19,20
 240 508 240 508 201 446 c 0,21,22
 190 428 190 428 183.5 402.5 c 128,-1,23
 177 377 177 377 158 361.5 c 128,-1,24
 139 346 139 346 121 346 c 256,25,26
 103 346 103 346 89.5 359 c 128,-1,27
 76 372 76 372 76 388 c 0,28,29
 76 430 76 430 88.5 454 c 128,-1,30
 101 478 101 478 123.5 504 c 128,-1,31
 146 530 146 530 177 550 c 0,32,33
 248 597 248 597 333 590 c 1,34,35
 422 581 422 581 508 490 c 0,36,37
 564 432 564 432 596.5 413.5 c 128,-1,0
 629 395 629 395 659 392.5 c 128,-1,1
EndSplineSet
EndChar

StartChar: cent
Encoding: 162 162 119
Width: 702
Flags: W
LayerCount: 2
Fore
SplineSet
538 958 m 0,0,1
 522 973 522 973 522 1010.5 c 128,-1,2
 522 1048 522 1048 516 1081.5 c 128,-1,3
 510 1115 510 1115 495 1138 c 0,4,5
 464 1187 464 1187 386 1187 c 0,6,7
 303 1187 303 1187 249 1057 c 0,8,9
 200 939 200 939 200 803.5 c 128,-1,10
 200 668 200 668 215.5 591.5 c 128,-1,11
 231 515 231 515 258 466 c 0,12,13
 309 373 309 373 394 373 c 0,14,15
 485 373 485 373 512 448 c 0,16,17
 521 471 521 471 529 498 c 0,18,19
 544 547 544 547 578 547 c 1,20,21
 595 546 595 546 606.5 533 c 128,-1,22
 618 520 618 520 618 488.5 c 128,-1,23
 618 457 618 457 600.5 420 c 128,-1,24
 583 383 583 383 551 354 c 0,25,26
 480 290 480 290 374 290 c 0,27,28
 256 290 256 290 186 408 c 1,29,30
 110 533 110 533 110 766 c 256,31,32
 110 999 110 999 198 1138 c 0,33,34
 276 1260 276 1260 386 1262 c 0,35,36
 485 1264 485 1264 550 1200 c 1,37,38
 618 1131 618 1131 618 1012 c 0,39,40
 618 979 618 979 604 964 c 0,41,42
 572 928 572 928 538 958 c 0,0,1
414 539.5 m 128,-1,44
 414 309 414 309 423 129 c 0,45,46
 425 96 425 96 409 79.5 c 128,-1,47
 393 63 393 63 374 63 c 128,-1,48
 355 63 355 63 340 78 c 128,-1,49
 325 93 325 93 326 124 c 0,50,51
 344 588 344 588 344 785 c 0,52,53
 344 1190 344 1190 325 1443 c 0,54,55
 323 1475 323 1475 340.5 1490 c 128,-1,56
 358 1505 358 1505 379 1505 c 128,-1,57
 400 1505 400 1505 417 1490 c 128,-1,58
 434 1475 434 1475 432 1443 c 0,59,60
 416 1212 416 1212 415 991 c 128,-1,43
 414 770 414 770 414 539.5 c 128,-1,44
EndSplineSet
EndChar

StartChar: sterling
Encoding: 163 163 120
Width: 998
Flags: W
LayerCount: 2
Fore
SplineSet
206 69 m 1,0,1
 319 130 319 130 428 130 c 0,2,3
 471 130 471 130 521 118 c 1,4,5
 582 99 582 99 638 99 c 128,-1,6
 694 99 694 99 731.5 119 c 128,-1,7
 769 139 769 139 776 168 c 0,8,9
 787 221 787 221 832 221 c 0,10,11
 849 221 849 221 862 205.5 c 128,-1,12
 875 190 875 190 875 161 c 128,-1,13
 875 132 875 132 864 106 c 128,-1,14
 853 80 853 80 828 57 c 0,15,16
 769 3 769 3 661 3 c 0,17,18
 623 3 623 3 566 14 c 0,19,20
 452 36 452 36 398 36 c 0,21,22
 303 36 303 36 189 4 c 0,23,24
 138 -10 138 -10 118 35 c 0,25,26
 112 47 112 47 112 64.5 c 128,-1,27
 112 82 112 82 129 100 c 128,-1,28
 146 118 146 118 184 118 c 0,29,30
 238 118 238 118 257.5 204.5 c 128,-1,31
 277 291 277 291 277 395.5 c 128,-1,32
 277 500 277 500 275.5 539 c 128,-1,33
 274 578 274 578 272 620 c 0,34,35
 255 893 255 893 255 1014.5 c 128,-1,36
 255 1136 255 1136 268.5 1239.5 c 128,-1,37
 282 1343 282 1343 306 1417.5 c 128,-1,38
 330 1492 330 1492 362 1540.5 c 128,-1,39
 394 1589 394 1589 431 1618 c 0,40,41
 498 1669 498 1669 589 1669 c 0,42,43
 746 1669 746 1669 800 1528 c 0,44,45
 818 1481 818 1481 818 1446 c 2,46,-1
 818 1402 l 2,47,48
 818 1357 818 1357 797.5 1339.5 c 128,-1,49
 777 1322 777 1322 756 1322 c 256,50,51
 735 1322 735 1322 719.5 1339 c 128,-1,52
 704 1356 704 1356 708 1382 c 0,53,54
 717 1433 717 1433 717 1458.5 c 128,-1,55
 717 1484 717 1484 706 1507 c 128,-1,56
 695 1530 695 1530 678 1544 c 0,57,58
 645 1570 645 1570 598 1570 c 128,-1,59
 551 1570 551 1570 507 1545.5 c 128,-1,60
 463 1521 463 1521 428 1460 c 1,61,62
 351 1321 351 1321 351 1027 c 0,63,64
 351 972 351 972 355.5 881.5 c 128,-1,65
 360 791 360 791 362.5 742 c 128,-1,66
 365 693 365 693 366 648 c 0,67,68
 369 574 369 574 369 479.5 c 128,-1,69
 369 385 369 385 366.5 321 c 128,-1,70
 364 257 364 257 351 205 c 0,71,72
 323 92 323 92 240 72 c 1,73,-1
 206 69 l 1,0,1
376 705 m 1,74,-1
 555 719 l 2,75,76
 589 721 589 721 605.5 706.5 c 128,-1,77
 622 692 622 692 622 678.5 c 128,-1,78
 622 665 622 665 618 654.5 c 128,-1,79
 614 644 614 644 606 635 c 0,80,81
 588 613 588 613 556 615 c 0,82,83
 489 619 489 619 451 619 c 128,-1,84
 413 619 413 619 389.5 618.5 c 128,-1,85
 366 618 366 618 342 617 c 0,86,87
 288 615 288 615 245.5 613.5 c 128,-1,88
 203 612 203 612 187 626.5 c 128,-1,89
 171 641 171 641 171 659.5 c 128,-1,90
 171 678 171 678 187.5 694.5 c 128,-1,91
 204 711 204 711 244 708 c 0,92,93
 299 705 299 705 376 705 c 1,74,-1
EndSplineSet
EndChar

StartChar: currency
Encoding: 164 164 121
Width: 988
Flags: W
LayerCount: 2
Fore
SplineSet
285 510 m 1,0,1
 213 610 213 610 213 787 c 0,2,3
 213 987 213 987 299 1102 c 1,4,-1
 295 1067 l 1,5,6
 279 1102 279 1102 234 1154 c 128,-1,7
 189 1206 189 1206 172.5 1231 c 128,-1,8
 156 1256 156 1256 156 1273.5 c 128,-1,9
 156 1291 156 1291 160.5 1300.5 c 128,-1,10
 165 1310 165 1310 172 1317 c 0,11,12
 190 1333 190 1333 212 1329.5 c 128,-1,13
 234 1326 234 1326 246.5 1303 c 128,-1,14
 259 1280 259 1280 271.5 1255.5 c 128,-1,15
 284 1231 284 1231 298 1206 c 0,16,17
 335 1136 335 1136 352 1117 c 1,18,-1
 317 1124 l 1,19,20
 383 1206 383 1206 495 1208 c 0,21,22
 613 1210 613 1210 682 1114 c 1,23,-1
 645 1126 l 1,24,25
 668 1155 668 1155 699.5 1217 c 128,-1,26
 731 1279 731 1279 746 1302 c 128,-1,27
 761 1325 761 1325 778.5 1327.5 c 128,-1,28
 796 1330 796 1330 804 1327 c 128,-1,29
 812 1324 812 1324 818 1317 c 0,30,31
 831 1302 831 1302 831 1281 c 128,-1,32
 831 1260 831 1260 815 1235.5 c 128,-1,33
 799 1211 799 1211 777 1184 c 0,34,35
 710 1100 710 1100 693 1061 c 1,36,-1
 693 1102 l 1,37,38
 766 992 766 992 766 799 c 0,39,40
 766 618 766 618 680 508 c 1,41,-1
 682 546 l 1,42,43
 698 514 698 514 743.5 456 c 128,-1,44
 789 398 789 398 805 374 c 128,-1,45
 821 350 821 350 821 335 c 128,-1,46
 821 320 821 320 816 311 c 128,-1,47
 811 302 811 302 804 296 c 0,48,49
 787 283 787 283 766 286.5 c 128,-1,50
 745 290 745 290 731.5 310 c 128,-1,51
 718 330 718 330 707 352.5 c 128,-1,52
 696 375 696 375 684 400 c 0,53,54
 653 461 653 461 633 491 c 1,55,-1
 661 486 l 1,56,57
 587 412 587 412 471 412 c 0,58,59
 367 412 367 412 301 492 c 1,60,-1
 326 480 l 1,61,62
 299 444 299 444 273.5 388.5 c 128,-1,63
 248 333 248 333 234.5 311 c 128,-1,64
 221 289 221 289 198.5 284.5 c 128,-1,65
 176 280 176 280 162 295.5 c 128,-1,66
 148 311 148 311 148 333 c 128,-1,67
 148 355 148 355 164 380 c 128,-1,68
 180 405 180 405 202.5 432 c 128,-1,69
 225 459 225 459 249 488 c 128,-1,70
 273 517 273 517 287 549 c 1,71,-1
 285 510 l 1,0,1
482 499 m 0,72,73
 525 499 525 499 561 523 c 128,-1,74
 597 547 597 547 622 590 c 0,75,76
 672 676 672 676 672 821.5 c 128,-1,77
 672 967 672 967 623.5 1041 c 128,-1,78
 575 1115 575 1115 495 1115 c 0,79,80
 408 1115 408 1115 355 1016 c 0,81,82
 307 926 307 926 307 797 c 0,83,84
 307 671 307 671 353 586 c 0,85,86
 401 499 401 499 482 499 c 0,72,73
EndSplineSet
EndChar

StartChar: yen
Encoding: 165 165 122
Width: 1074
Flags: W
LayerCount: 2
Fore
SplineSet
605 409 m 1,0,-1
 621 52 l 1,1,2
 621 3 621 3 578 -13 c 0,3,4
 567 -17 567 -17 551.5 -17 c 128,-1,5
 536 -17 536 -17 518.5 0 c 128,-1,6
 501 17 501 17 506 75 c 0,7,8
 515 179 515 179 515 311 c 128,-1,9
 515 443 515 443 514 488 c 128,-1,10
 513 533 513 533 512 582 c 0,11,12
 508 696 508 696 504 748 c 1,13,-1
 527 627 l 1,14,15
 466 777 466 777 371 984 c 1,16,17
 109 1562 109 1562 109 1593 c 0,18,19
 109 1653 109 1653 161 1655 c 0,20,21
 186 1656 186 1656 199 1640 c 128,-1,22
 212 1624 212 1624 237 1543.5 c 128,-1,23
 262 1463 262 1463 310 1344 c 128,-1,24
 358 1225 358 1225 406 1117 c 128,-1,25
 454 1009 454 1009 498 917.5 c 128,-1,26
 542 826 542 826 573 760 c 1,27,-1
 549 760 l 1,28,29
 663 1053 663 1053 773 1316 c 128,-1,30
 883 1579 883 1579 888.5 1594.5 c 128,-1,31
 894 1610 894 1610 901 1622 c 0,32,33
 916 1648 916 1648 939 1648 c 0,34,35
 987 1648 987 1648 987 1601 c 0,36,37
 987 1581 987 1581 956 1511 c 128,-1,38
 925 1441 925 1441 867 1311.5 c 128,-1,39
 809 1182 809 1182 756 1060 c 0,40,41
 635 778 635 778 582 622 c 1,42,-1
 612 760 l 1,43,44
 605 638 605 638 605 409 c 1,0,-1
259 449 m 0,45,46
 360 440 360 440 545 440 c 128,-1,47
 730 440 730 440 858 448 c 0,48,49
 891 450 891 450 907 433.5 c 128,-1,50
 923 417 923 417 923 398.5 c 128,-1,51
 923 380 923 380 907.5 366.5 c 128,-1,52
 892 353 892 353 850 356 c 0,53,54
 738 364 738 364 608 364 c 0,55,56
 407 364 407 364 259 355 c 0,57,58
 226 353 226 353 210 367.5 c 128,-1,59
 194 382 194 382 194 401 c 256,60,61
 194 420 194 420 210.5 435.5 c 128,-1,62
 227 451 227 451 259 449 c 0,45,46
259 664 m 0,63,64
 371 656 371 656 534.5 656 c 128,-1,65
 698 656 698 656 858 662 c 0,66,67
 891 664 891 664 907 648.5 c 128,-1,68
 923 633 923 633 923 619 c 128,-1,69
 923 605 923 605 919 596 c 128,-1,70
 915 587 915 587 908 580 c 0,71,72
 891 566 891 566 869.5 568.5 c 128,-1,73
 848 571 848 571 822.5 573 c 128,-1,74
 797 575 797 575 762 576 c 0,75,76
 655 579 655 579 601 579 c 128,-1,77
 547 579 547 579 498 578.5 c 128,-1,78
 449 578 449 578 404 576 c 0,79,80
 293 573 293 573 259.5 570.5 c 128,-1,81
 226 568 226 568 210 583 c 128,-1,82
 194 598 194 598 194 616.5 c 128,-1,83
 194 635 194 635 210.5 650.5 c 128,-1,84
 227 666 227 666 259 664 c 0,63,64
EndSplineSet
EndChar

StartChar: brokenbar
Encoding: 166 166 123
Width: 400
Flags: W
LayerCount: 2
Fore
SplineSet
217 949 m 0,0,1
 161 949 161 949 166 1036 c 0,2,3
 175 1171 175 1171 175 1327 c 0,4,5
 175 1612 175 1612 166 1712 c 128,-1,6
 157 1812 157 1812 161 1827.5 c 128,-1,7
 165 1843 165 1843 174 1854 c 0,8,9
 191 1875 191 1875 215 1875 c 128,-1,10
 239 1875 239 1875 257 1854 c 128,-1,11
 275 1833 275 1833 271 1792 c 1,12,13
 253 1528 253 1528 253 1394 c 0,14,15
 253 1169 253 1169 268 1013 c 1,16,17
 270 981 270 981 253.5 965 c 128,-1,18
 237 949 237 949 217 949 c 0,0,1
217 -217 m 0,19,20
 161 -217 161 -217 166 -130 c 0,21,22
 175 5 175 5 175 151 c 0,23,24
 175 426 175 426 166 526.5 c 128,-1,25
 157 627 157 627 161 642 c 128,-1,26
 165 657 165 657 174 668 c 0,27,28
 191 689 191 689 215.5 689 c 128,-1,29
 240 689 240 689 257.5 668.5 c 128,-1,30
 275 648 275 648 271 607 c 1,31,32
 253 341 253 341 253 232 c 128,-1,33
 253 123 253 123 254 82 c 128,-1,34
 255 41 255 41 257 2 c 0,35,36
 262 -87 262 -87 266 -136 c 128,-1,37
 270 -185 270 -185 253.5 -201 c 128,-1,38
 237 -217 237 -217 217 -217 c 0,19,20
EndSplineSet
EndChar

StartChar: section
Encoding: 167 167 124
Width: 882
Flags: W
LayerCount: 2
Fore
SplineSet
138 18 m 0,0,1
 139 115 139 115 212 117 c 0,2,3
 233 117 233 117 249 97 c 128,-1,4
 265 77 265 77 260 45.5 c 128,-1,5
 255 14 255 14 256 -11 c 128,-1,6
 257 -36 257 -36 257.5 -68.5 c 128,-1,7
 258 -101 258 -101 271.5 -136.5 c 128,-1,8
 285 -172 285 -172 309 -200 c 0,9,10
 361 -259 361 -259 429 -258.5 c 128,-1,11
 497 -258 497 -258 538 -233.5 c 128,-1,12
 579 -209 579 -209 606 -168 c 0,13,14
 658 -90 658 -90 657.5 11 c 128,-1,15
 657 112 657 112 634 171 c 128,-1,16
 611 230 611 230 573 277 c 128,-1,17
 535 324 535 324 487 362 c 128,-1,18
 439 400 439 400 389 437.5 c 128,-1,19
 339 475 339 475 290.5 515.5 c 128,-1,20
 242 556 242 556 204 606 c 1,21,22
 121 719 121 719 119 871 c 1,23,24
 119 1018 119 1018 203 1124 c 0,25,26
 238 1168 238 1168 276.5 1191.5 c 128,-1,27
 315 1215 315 1215 342.5 1215 c 128,-1,28
 370 1215 370 1215 391 1207 c 128,-1,29
 412 1199 412 1199 421 1188.5 c 128,-1,30
 430 1178 430 1178 424.5 1169 c 128,-1,31
 419 1160 419 1160 393.5 1160 c 128,-1,32
 368 1160 368 1160 335.5 1139 c 128,-1,33
 303 1118 303 1118 274 1082 c 1,34,35
 207 995 207 995 207.5 901 c 128,-1,36
 208 807 208 807 231 748.5 c 128,-1,37
 254 690 254 690 291.5 643.5 c 128,-1,38
 329 597 329 597 377 559 c 128,-1,39
 425 521 425 521 475 484 c 128,-1,40
 525 447 525 447 573.5 406.5 c 128,-1,41
 622 366 622 366 660 316 c 0,42,43
 746 203 746 203 750 49 c 1,44,45
 752 -114 752 -114 662 -224.5 c 128,-1,46
 572 -335 572 -335 441 -337 c 0,47,48
 325 -339 325 -339 236 -254 c 0,49,50
 136 -159 136 -159 138 18 c 0,0,1
741.5 864 m 128,-1,52
 764 796 764 796 764 709.5 c 128,-1,53
 764 623 764 623 738.5 558 c 128,-1,54
 713 493 713 493 676 447 c 128,-1,55
 639 401 639 401 599 376.5 c 128,-1,56
 559 352 559 352 536.5 352 c 128,-1,57
 514 352 514 352 497.5 360.5 c 128,-1,58
 481 369 481 369 470.5 379.5 c 128,-1,59
 460 390 460 390 458.5 399.5 c 128,-1,60
 457 409 457 409 477.5 409 c 128,-1,61
 498 409 498 409 533 430 c 128,-1,62
 568 451 568 451 600 488 c 0,63,64
 674 574 674 574 674 672.5 c 128,-1,65
 674 771 674 771 652.5 835 c 128,-1,66
 631 899 631 899 595 949 c 128,-1,67
 559 999 559 999 513 1038 c 128,-1,68
 467 1077 467 1077 419 1114 c 128,-1,69
 371 1151 371 1151 325 1189.5 c 128,-1,70
 279 1228 279 1228 242 1276 c 0,71,72
 163 1379 163 1379 161 1529 c 0,73,74
 159 1690 159 1690 254 1799 c 0,75,76
 345 1904 345 1904 479 1906 c 0,77,78
 598 1908 598 1908 680 1828 c 0,79,80
 777 1734 777 1734 773 1561 c 1,81,82
 773 1456 773 1456 697 1454 c 0,83,84
 651 1452 651 1452 661 1530 c 0,85,86
 664 1556 664 1556 663.5 1582 c 128,-1,87
 663 1608 663 1608 662.5 1640 c 128,-1,88
 662 1672 662 1672 648.5 1707 c 128,-1,89
 635 1742 635 1742 611 1768 c 0,90,91
 558 1826 558 1826 493.5 1824.5 c 128,-1,92
 429 1823 429 1823 386 1799.5 c 128,-1,93
 343 1776 343 1776 312 1736 c 0,94,95
 249 1654 249 1654 249 1559 c 128,-1,96
 249 1464 249 1464 271.5 1409 c 128,-1,97
 294 1354 294 1354 330 1310 c 128,-1,98
 366 1266 366 1266 412 1229.5 c 128,-1,99
 458 1193 458 1193 506.5 1156.5 c 128,-1,100
 555 1120 555 1120 601 1079 c 128,-1,101
 647 1038 647 1038 683 985 c 128,-1,51
 719 932 719 932 741.5 864 c 128,-1,52
EndSplineSet
EndChar

StartChar: dieresis
Encoding: 168 168 125
Width: 658
Flags: W
LayerCount: 2
Fore
SplineSet
278 1021.5 m 128,-1,1
 285 1007 285 1007 283.5 986 c 128,-1,2
 282 965 282 965 274 950 c 128,-1,3
 266 935 266 935 254 926 c 0,4,5
 230 908 230 908 200 908 c 128,-1,6
 170 908 170 908 145.5 928.5 c 128,-1,7
 121 949 121 949 121 978 c 128,-1,8
 121 1007 121 1007 128.5 1021.5 c 128,-1,9
 136 1036 136 1036 148 1046 c 0,10,11
 170 1066 170 1066 194 1066 c 128,-1,12
 218 1066 218 1066 232.5 1061 c 128,-1,13
 247 1056 247 1056 259 1046 c 128,-1,0
 271 1036 271 1036 278 1021.5 c 128,-1,1
534 1021.5 m 128,-1,15
 541 1007 541 1007 539.5 986 c 128,-1,16
 538 965 538 965 529.5 950 c 128,-1,17
 521 935 521 935 508 926 c 0,18,19
 485 908 485 908 455 908 c 128,-1,20
 425 908 425 908 400.5 928.5 c 128,-1,21
 376 949 376 949 376 978 c 128,-1,22
 376 1007 376 1007 383.5 1021.5 c 128,-1,23
 391 1036 391 1036 403 1046 c 0,24,25
 427 1066 427 1066 450.5 1066 c 128,-1,26
 474 1066 474 1066 488.5 1061 c 128,-1,27
 503 1056 503 1056 515 1046 c 128,-1,14
 527 1036 527 1036 534 1021.5 c 128,-1,15
EndSplineSet
EndChar

StartChar: copyright
Encoding: 169 169 126
Width: 1307
Flags: W
LayerCount: 2
Fore
SplineSet
636 -82 m 0,0,1
 509 -82 509 -82 407 -25 c 128,-1,2
 305 32 305 32 234 146 c 0,3,4
 88 380 88 380 88 833 c 0,5,6
 88 1207 88 1207 238 1462 c 0,7,8
 334 1626 334 1626 476 1690 c 0,9,10
 547 1721 547 1721 627 1721 c 0,11,12
 894 1721 894 1721 1035 1478 c 0,13,14
 1167 1250 1167 1250 1171 844 c 1,15,16
 1173 422 1173 422 1032 172 c 0,17,18
 889 -82 889 -82 636 -82 c 0,0,1
788 1602 m 0,19,20
 724 1634 724 1634 645 1634 c 128,-1,21
 566 1634 566 1634 501.5 1603.5 c 128,-1,22
 437 1573 437 1573 385.5 1518 c 128,-1,23
 334 1463 334 1463 295.5 1386.5 c 128,-1,24
 257 1310 257 1310 232 1218 c 0,25,26
 180 1031 180 1031 180 841 c 128,-1,27
 180 651 180 651 198.5 533 c 128,-1,28
 217 415 217 415 249.5 326.5 c 128,-1,29
 282 238 282 238 326 176.5 c 128,-1,30
 370 115 370 115 422 78 c 0,31,32
 520 6 520 6 645 6 c 0,33,34
 828 6 828 6 946 188 c 0,35,36
 1083 399 1083 399 1083 821 c 0,37,38
 1083 1158 1083 1158 986 1378 c 1,39,40
 914 1538 914 1538 788 1602 c 0,19,20
657 1463 m 0,41,42
 911 1463 911 1463 893 1073 c 0,43,44
 890 1003 890 1003 841 1003 c 0,45,46
 797 1003 797 1003 797 1068 c 1,47,48
 826 1191 826 1191 792 1278 c 0,49,50
 754 1376 754 1376 655 1376 c 0,51,52
 557 1376 557 1376 498 1201 c 0,53,54
 446 1044 446 1044 446 854.5 c 128,-1,55
 446 665 446 665 459.5 559 c 128,-1,56
 473 453 473 453 499 386 c 0,57,58
 549 259 549 259 648 259 c 0,59,60
 726 259 726 259 765.5 324 c 128,-1,61
 805 389 805 389 798 500 c 1,62,63
 798 547 798 547 832 559 c 0,64,65
 858 568 858 568 875.5 548 c 128,-1,66
 893 528 893 528 893 477 c 128,-1,67
 893 426 893 426 872.5 365 c 128,-1,68
 852 304 852 304 818 260 c 0,69,70
 746 167 746 167 645 167 c 0,71,72
 513 167 513 167 435 324 c 0,73,74
 352 492 352 492 352 805 c 0,75,76
 352 1124 352 1124 443 1300 c 0,77,78
 527 1463 527 1463 657 1463 c 0,41,42
EndSplineSet
EndChar

StartChar: ordfeminine
Encoding: 170 170 127
Width: 707
Flags: W
LayerCount: 2
Fore
SplineSet
521 1337 m 1,0,-1
 516 1412 l 1,1,2
 464 1438 464 1438 399.5 1438 c 128,-1,3
 335 1438 335 1438 282 1421.5 c 128,-1,4
 229 1405 229 1405 187 1372 c 0,5,6
 93 1298 93 1298 93 1177 c 0,7,8
 93 1090 93 1090 151 1034 c 0,9,10
 207 980 207 980 293 980 c 0,11,12
 398 980 398 980 480 1082 c 0,13,14
 502 1108 502 1108 514 1131 c 1,15,16
 514 1150 514 1150 510 1189 c 0,17,18
 503 1256 503 1256 503 1275 c 1,19,20
 498 1213 498 1213 461 1159 c 0,21,22
 389 1055 389 1055 312 1055 c 0,23,24
 257 1055 257 1055 223 1092 c 128,-1,25
 189 1129 189 1129 189 1179 c 128,-1,26
 189 1229 189 1229 206 1261.5 c 128,-1,27
 223 1294 223 1294 251 1316 c 0,28,29
 308 1362 308 1362 395.5 1362 c 128,-1,30
 483 1362 483 1362 521 1337 c 1,0,-1
499 1071 m 1,31,-1
 496 1193 l 1,32,-1
 496 1527 l 2,33,34
 496 1657 496 1657 413 1690 c 0,35,36
 388 1700 388 1700 362.5 1700 c 128,-1,37
 337 1700 337 1700 315 1690.5 c 128,-1,38
 293 1681 293 1681 276 1664 c 0,39,40
 235 1623 235 1623 234.5 1581.5 c 128,-1,41
 234 1540 234 1540 219 1525 c 128,-1,42
 204 1510 204 1510 184.5 1512 c 128,-1,43
 165 1514 165 1514 149 1530.5 c 128,-1,44
 133 1547 133 1547 134 1582 c 128,-1,45
 135 1617 135 1617 155 1654 c 128,-1,46
 175 1691 175 1691 207 1719 c 0,47,48
 277 1780 277 1780 372 1780 c 0,49,50
 516 1780 516 1780 562 1646 c 0,51,52
 580 1595 580 1595 580 1533 c 2,53,-1
 580 1428 l 1,54,-1
 579 1259 l 1,55,-1
 579 1169 l 2,56,57
 579 1101 579 1101 593 1067 c 128,-1,58
 607 1033 607 1033 607 1019.5 c 128,-1,59
 607 1006 607 1006 592.5 993.5 c 128,-1,60
 578 981 578 981 559 981 c 0,61,62
 499 981 499 981 499 1071 c 1,31,-1
EndSplineSet
EndChar

StartChar: guillemotleft
Encoding: 171 171 128
Width: 944
Flags: W
LayerCount: 2
Fore
SplineSet
453 18 m 128,-1,1
 436 4 436 4 408.5 4 c 128,-1,2
 381 4 381 4 363.5 46 c 128,-1,3
 346 88 346 88 323 131 c 128,-1,4
 300 174 300 174 276 210 c 0,5,6
 228 281 228 281 197 305 c 0,7,8
 150 341 150 341 150 380 c 128,-1,9
 150 419 150 419 171.5 435.5 c 128,-1,10
 193 452 193 452 216.5 480 c 128,-1,11
 240 508 240 508 267 546 c 0,12,13
 333 637 333 637 354.5 686.5 c 128,-1,14
 376 736 376 736 392.5 747.5 c 128,-1,15
 409 759 409 759 426.5 759 c 128,-1,16
 444 759 444 759 459.5 743 c 128,-1,17
 475 727 475 727 475 710 c 0,18,19
 475 676 475 676 453 652 c 128,-1,20
 431 628 431 628 399.5 590.5 c 128,-1,21
 368 553 368 553 338 514 c 0,22,23
 266 419 266 419 266 386 c 0,24,25
 266 334 266 334 394 166 c 0,26,27
 425 126 425 126 447.5 102 c 128,-1,28
 470 78 470 78 470 55 c 256,29,0
 470 32 470 32 453 18 c 128,-1,1
762 18 m 128,-1,31
 745 4 745 4 717.5 4 c 128,-1,32
 690 4 690 4 672.5 46 c 128,-1,33
 655 88 655 88 632 131 c 128,-1,34
 609 174 609 174 585 210 c 0,35,36
 536 283 536 283 506 306 c 0,37,38
 460 340 460 340 460 381 c 0,39,40
 460 420 460 420 481 436 c 128,-1,41
 502 452 502 452 525.5 480 c 128,-1,42
 549 508 549 508 576 546 c 0,43,44
 642 637 642 637 664 686.5 c 128,-1,45
 686 736 686 736 701.5 747.5 c 128,-1,46
 717 759 717 759 735 759 c 128,-1,47
 753 759 753 759 768.5 743 c 128,-1,48
 784 727 784 727 784 710 c 0,49,50
 784 676 784 676 762 652 c 128,-1,51
 740 628 740 628 708.5 590.5 c 128,-1,52
 677 553 677 553 648 514 c 0,53,54
 575 416 575 416 575 386 c 0,55,56
 575 332 575 332 704 166 c 0,57,58
 735 126 735 126 757 101.5 c 128,-1,59
 779 77 779 77 779 54.5 c 128,-1,30
 779 32 779 32 762 18 c 128,-1,31
EndSplineSet
EndChar

StartChar: logicalnot
Encoding: 172 172 129
Width: 916
Flags: W
LayerCount: 2
Fore
SplineSet
456 484 m 1,0,-1
 726 493 l 1,1,2
 795 491 795 491 795 431 c 1,3,4
 795 431 795 431 784 336 c 1,5,6
 784 284 784 284 796 200 c 0,7,8
 800 166 800 166 782.5 150 c 128,-1,9
 765 134 765 134 744 134 c 256,10,11
 723 134 723 134 705 150.5 c 128,-1,12
 687 167 687 167 690 193.5 c 128,-1,13
 693 220 693 220 696.5 248 c 128,-1,14
 700 276 700 276 700 298 c 128,-1,15
 700 320 700 320 699.5 334 c 128,-1,16
 699 348 699 348 698 364 c 128,-1,17
 697 380 697 380 695.5 394.5 c 128,-1,18
 694 409 694 409 693 420 c 1,19,-1
 713 400 l 1,20,21
 598 400 598 400 506 400 c 0,22,23
 353 400 353 400 183 388 c 0,24,25
 150 386 150 386 134.5 402.5 c 128,-1,26
 119 419 119 419 119 439.5 c 128,-1,27
 119 460 119 460 135 477.5 c 128,-1,28
 151 495 151 495 192 492 c 0,29,30
 281 484 281 484 456 484 c 1,0,-1
EndSplineSet
EndChar

StartChar: registered
Encoding: 174 174 131
Width: 1265
Flags: W
LayerCount: 2
Fore
SplineSet
233.5 131 m 128,-1,1
 95 364 95 364 95 824 c 0,2,3
 95 1193 95 1193 244 1447 c 0,4,5
 338 1607 338 1607 480 1670 c 0,6,7
 549 1701 549 1701 627 1701 c 0,8,9
 890 1701 890 1701 1032 1458 c 0,10,11
 1167 1228 1167 1228 1171 824 c 1,12,13
 1173 402 1173 402 1032 152 c 0,14,15
 889 -102 889 -102 630.5 -102 c 128,-1,0
 372 -102 372 -102 233.5 131 c 128,-1,1
788 1582 m 0,16,17
 724 1614 724 1614 645 1614 c 128,-1,18
 566 1614 566 1614 501.5 1583.5 c 128,-1,19
 437 1553 437 1553 386 1498 c 128,-1,20
 335 1443 335 1443 296.5 1366.5 c 128,-1,21
 258 1290 258 1290 232 1198 c 0,22,23
 182 1014 182 1014 182 822.5 c 128,-1,24
 182 631 182 631 200.5 513 c 128,-1,25
 219 395 219 395 251 306.5 c 128,-1,26
 283 218 283 218 327 156.5 c 128,-1,27
 371 95 371 95 422 58 c 0,28,29
 521 -14 521 -14 645 -14 c 0,30,31
 828 -14 828 -14 944 168 c 1,32,33
 1077 379 1077 379 1077 801 c 0,34,35
 1077 1139 1077 1139 982 1358 c 0,36,37
 913 1518 913 1518 788 1582 c 0,16,17
442 471 m 1,38,39
 442 1000 442 1000 417 1375 c 1,40,41
 417 1421 417 1421 468 1425 c 0,42,43
 479 1426 479 1426 501 1432 c 0,44,45
 567 1450 567 1450 628.5 1450 c 128,-1,46
 690 1450 690 1450 734.5 1431 c 128,-1,47
 779 1412 779 1412 810 1372 c 1,48,49
 877 1289 877 1289 877 1129 c 0,50,51
 877 958 877 958 762 776 c 0,52,53
 727 720 727 720 687 674 c 1,54,-1
 680 730 l 1,55,56
 702 632 702 632 767.5 474 c 128,-1,57
 833 316 833 316 847.5 280 c 128,-1,58
 862 244 862 244 861 230.5 c 128,-1,59
 860 217 860 217 854 206 c 0,60,61
 840 182 840 182 820 182 c 0,62,63
 777 182 777 182 765 222 c 0,64,65
 681 518 681 518 617 670 c 1,66,-1
 657 642 l 1,67,-1
 630 621 l 2,68,69
 552 560 552 560 498 543 c 1,70,-1
 519 587 l 1,71,72
 517 395 517 395 527.5 316 c 128,-1,73
 538 237 538 237 538 219 c 128,-1,74
 538 201 538 201 526.5 185 c 128,-1,75
 515 169 515 169 494 169 c 128,-1,76
 473 169 473 169 456.5 184 c 128,-1,77
 440 199 440 199 440 222 c 2,78,-1
 442 471 l 1,38,39
785 1116 m 0,79,80
 785 1365 785 1365 637 1365 c 0,81,82
 510 1365 510 1365 465 1335 c 1,83,-1
 518 1400 l 1,84,-1
 519 1149 l 1,85,86
 519 820 519 820 524 600 c 1,87,-1
 485 623 l 1,88,89
 672 721 672 721 754 935 c 0,90,91
 785 1016 785 1016 785 1116 c 0,79,80
EndSplineSet
EndChar

StartChar: degree
Encoding: 176 176 133
Width: 573
Flags: W
LayerCount: 2
Fore
SplineSet
207.5 1759 m 128,-1,1
 247 1777 247 1777 292 1778 c 128,-1,2
 337 1779 337 1779 376.5 1763.5 c 128,-1,3
 416 1748 416 1748 444 1712 c 0,4,5
 505 1636 505 1636 505 1466 c 0,6,7
 505 1326 505 1326 442 1242 c 256,8,9
 379 1158 379 1158 273 1158 c 0,10,11
 127 1158 127 1158 82 1318 c 0,12,13
 67 1374 67 1374 67 1456.5 c 128,-1,14
 67 1539 67 1539 86 1601 c 128,-1,15
 105 1663 105 1663 136.5 1702 c 128,-1,0
 168 1741 168 1741 207.5 1759 c 128,-1,1
152 1457 m 0,16,17
 152 1235 152 1235 279 1235 c 0,18,19
 345 1235 345 1235 382.5 1294 c 128,-1,20
 420 1353 420 1353 420 1445.5 c 128,-1,21
 420 1538 420 1538 409.5 1583.5 c 128,-1,22
 399 1629 399 1629 381 1654 c 0,23,24
 351 1696 351 1696 286 1696 c 0,25,26
 190 1696 190 1696 161 1554 c 0,27,28
 152 1510 152 1510 152 1457 c 0,16,17
EndSplineSet
EndChar

StartChar: plusminus
Encoding: 177 177 134
Width: 891
Flags: W
LayerCount: 2
Fore
SplineSet
172 116 m 1,0,1
 264 107 264 107 432.5 107 c 128,-1,2
 601 107 601 107 718 115 c 0,3,4
 750 117 750 117 766.5 99 c 128,-1,5
 783 81 783 81 783 60.5 c 128,-1,6
 783 40 783 40 767.5 24 c 128,-1,7
 752 8 752 8 706 12 c 0,8,9
 599 23 599 23 501 23 c 0,10,11
 342 23 342 23 172 11 c 0,12,13
 139 9 139 9 123.5 25 c 128,-1,14
 108 41 108 41 108 62 c 128,-1,15
 108 83 108 83 124 100.5 c 128,-1,16
 140 118 140 118 172 116 c 1,0,1
400 597 m 1,17,18
 400 634 400 634 392 842 c 0,19,20
 390 874 390 874 407.5 890 c 128,-1,21
 425 906 425 906 445.5 906 c 128,-1,22
 466 906 466 906 482.5 891 c 128,-1,23
 499 876 499 876 496 848.5 c 128,-1,24
 493 821 493 821 491 788.5 c 128,-1,25
 489 756 489 756 488 721 c 0,26,27
 484 639 484 639 484 595 c 1,28,-1
 469 613 l 1,29,30
 594 613 594 613 718 621 c 0,31,32
 750 623 750 623 766.5 605.5 c 128,-1,33
 783 588 783 588 783 567.5 c 128,-1,34
 783 547 783 547 767.5 531 c 128,-1,35
 752 515 752 515 708 518 c 0,36,37
 574 529 574 529 460 529 c 1,38,-1
 484 550 l 1,39,40
 484 446 484 446 496 296 c 0,41,42
 498 263 498 263 481.5 247.5 c 128,-1,43
 465 232 465 232 444 232 c 256,44,45
 423 232 423 232 406 248 c 128,-1,46
 389 264 389 264 390.5 289.5 c 128,-1,47
 392 315 392 315 394 347.5 c 128,-1,48
 396 380 396 380 398 418 c 0,49,50
 400 480 400 480 400 560 c 1,51,-1
 416 529 l 1,52,53
 338 528 338 528 172 517 c 0,54,55
 139 515 139 515 123.5 531.5 c 128,-1,56
 108 548 108 548 108 569 c 256,57,58
 108 590 108 590 124 607 c 128,-1,59
 140 624 140 624 167 622 c 128,-1,60
 194 620 194 620 222 618.5 c 128,-1,61
 250 617 250 617 282 616 c 0,62,63
 378 613 378 613 418 613 c 1,64,-1
 400 597 l 1,17,18
EndSplineSet
EndChar

StartChar: twosuperior
Encoding: 178 178 135
Width: 693
Flags: W
LayerCount: 2
Fore
SplineSet
356 1770 m 0,0,1
 576 1770 576 1770 576 1495 c 0,2,3
 576 1334 576 1334 398 1112 c 0,4,5
 284 969 284 969 252 911 c 128,-1,6
 220 853 220 853 220 819 c 128,-1,7
 220 785 220 785 228.5 776 c 128,-1,8
 237 767 237 767 260.5 771 c 128,-1,9
 284 775 284 775 309 779.5 c 128,-1,10
 334 784 334 784 360 788 c 0,11,12
 429 797 429 797 451 797 c 0,13,14
 506 797 506 797 530.5 792.5 c 128,-1,15
 555 788 555 788 568 773 c 128,-1,16
 581 758 581 758 581 739.5 c 128,-1,17
 581 721 581 721 568 706.5 c 128,-1,18
 555 692 555 692 526 692 c 2,19,-1
 353 696 l 1,20,21
 247 696 247 696 202 688 c 0,22,23
 116 674 116 674 116 745.5 c 128,-1,24
 116 817 116 817 143.5 881.5 c 128,-1,25
 171 946 171 946 212 1006.5 c 128,-1,26
 253 1067 253 1067 301.5 1125.5 c 128,-1,27
 350 1184 350 1184 391 1243 c 0,28,29
 487 1381 487 1381 487 1489 c 0,30,31
 487 1686 487 1686 363 1686 c 0,32,33
 297 1686 297 1686 261 1627 c 128,-1,34
 225 1568 225 1568 225 1456 c 0,35,36
 225 1425 225 1425 210 1412 c 128,-1,37
 195 1399 195 1399 176 1399 c 0,38,39
 129 1399 129 1399 129 1470.5 c 128,-1,40
 129 1542 129 1542 147.5 1599 c 128,-1,41
 166 1656 166 1656 198 1694 c 0,42,43
 260 1770 260 1770 356 1770 c 0,0,1
EndSplineSet
EndChar

StartChar: threesuperior
Encoding: 179 179 136
Width: 762
Flags: W
LayerCount: 2
Fore
SplineSet
342 1217 m 1,0,1
 410 1242 410 1242 462 1335 c 0,2,3
 512 1424 512 1424 512 1507.5 c 128,-1,4
 512 1591 512 1591 473 1643 c 128,-1,5
 434 1695 434 1695 367 1695 c 128,-1,6
 300 1695 300 1695 264.5 1646.5 c 128,-1,7
 229 1598 229 1598 229 1510 c 0,8,9
 229 1479 229 1479 213 1465.5 c 128,-1,10
 197 1452 197 1452 178.5 1452 c 128,-1,11
 160 1452 160 1452 143 1470 c 128,-1,12
 126 1488 126 1488 126 1537 c 128,-1,13
 126 1586 126 1586 146.5 1634.5 c 128,-1,14
 167 1683 167 1683 200 1716 c 0,15,16
 267 1781 267 1781 342 1781 c 128,-1,17
 417 1781 417 1781 461.5 1762 c 128,-1,18
 506 1743 506 1743 536 1708 c 1,19,20
 594 1637 594 1637 594 1510 c 0,21,22
 594 1421 594 1421 543 1319 c 0,23,24
 479 1192 479 1192 360 1151 c 1,25,-1
 362 1174 l 1,26,27
 456 1181 456 1181 524 1124 c 1,28,29
 603 1060 603 1060 603 944 c 0,30,31
 603 825 603 825 534 752 c 0,32,33
 466 680 466 680 360 680 c 0,34,35
 253 680 253 680 186 742 c 1,36,37
 123 802 123 802 129 892 c 0,38,39
 131 923 131 923 147.5 939 c 128,-1,40
 164 955 164 955 184.5 955 c 128,-1,41
 205 955 205 955 220.5 938.5 c 128,-1,42
 236 922 236 922 233 891.5 c 128,-1,43
 230 861 230 861 238.5 837 c 128,-1,44
 247 813 247 813 264 795 c 0,45,46
 303 755 303 755 353 755 c 128,-1,47
 403 755 403 755 433 771 c 128,-1,48
 463 787 463 787 482 814 c 0,49,50
 517 864 517 864 517 944 c 0,51,52
 517 1019 517 1019 464 1062 c 0,53,54
 408 1107 408 1107 321 1091 c 0,55,56
 294 1086 294 1086 280 1099 c 0,57,58
 258 1121 258 1121 258 1144.5 c 128,-1,59
 258 1168 258 1168 277.5 1188.5 c 128,-1,60
 297 1209 297 1209 342 1217 c 1,0,1
EndSplineSet
EndChar

StartChar: acute
Encoding: 180 180 137
Width: 441
Flags: W
LayerCount: 2
Fore
SplineSet
150 944 m 0,0,1
 242 1042 242 1042 276 1087 c 0,2,3
 338 1171 338 1171 380 1146 c 1,4,5
 422 1118 422 1118 383 1067 c 0,6,7
 355 1032 355 1032 324 1002 c 0,8,9
 252 932 252 932 229 906 c 128,-1,10
 206 880 206 880 190.5 867.5 c 128,-1,11
 175 855 175 855 160 855 c 128,-1,12
 145 855 145 855 132.5 864.5 c 128,-1,13
 120 874 120 874 120 892.5 c 128,-1,14
 120 911 120 911 150 944 c 0,0,1
EndSplineSet
EndChar

StartChar: mu
Encoding: 181 181 138
AltUni2: 0003bc.ffffffff.0
Width: 850
Flags: W
LayerCount: 2
Fore
SplineSet
522 161 m 1,0,1
 483 37 483 37 394 -6 c 0,2,3
 359 -22 359 -22 314.5 -22 c 128,-1,4
 270 -22 270 -22 241.5 -8 c 128,-1,5
 213 6 213 6 196 28 c 0,6,7
 166 66 166 66 163 122 c 1,8,-1
 180 117 l 1,9,10
 138 -80 138 -80 123 -212 c 128,-1,11
 108 -344 108 -344 101 -396.5 c 128,-1,12
 94 -449 94 -449 74.5 -462 c 128,-1,13
 55 -475 55 -475 35 -471 c 0,14,15
 -15 -461 -15 -461 0 -403 c 0,16,17
 29 -289 29 -289 55 -144 c 128,-1,18
 81 1 81 1 98.5 97 c 128,-1,19
 116 193 116 193 134 288 c 0,20,21
 176 520 176 520 201 683 c 0,22,23
 206 717 206 717 226.5 730 c 128,-1,24
 247 743 247 743 268 739 c 0,25,26
 320 729 320 729 305 670 c 1,27,28
 296 630 296 630 283.5 580 c 128,-1,29
 271 530 271 530 259 477 c 0,30,31
 229 346 229 346 224.5 290.5 c 128,-1,32
 220 235 220 235 222.5 195.5 c 128,-1,33
 225 156 225 156 236 127 c 0,34,35
 261 65 261 65 326 65 c 0,36,37
 451 65 451 65 499 262 c 0,38,39
 551 474 551 474 605 682 c 0,40,41
 621 747 621 747 669 740 c 1,42,43
 689 735 689 735 701 717.5 c 128,-1,44
 713 700 713 700 701.5 657 c 128,-1,45
 690 614 690 614 671.5 557.5 c 128,-1,46
 653 501 653 501 635 441 c 0,47,48
 551 162 551 162 575 92 c 0,49,50
 587 57 587 57 615 57 c 128,-1,51
 643 57 643 57 660 65 c 128,-1,52
 677 73 677 73 689 84 c 0,53,54
 705 100 705 100 717 125 c 0,55,56
 737 167 737 167 761 167 c 0,57,58
 809 167 809 167 809 124 c 0,59,60
 809 74 809 74 744 26 c 0,61,62
 678 -22 678 -22 617 -22 c 256,63,64
 556 -22 556 -22 533 4 c 0,65,66
 486 58 486 58 506 166 c 1,67,-1
 522 161 l 1,0,1
EndSplineSet
EndChar

StartChar: paragraph
Encoding: 182 182 139
Width: 1285
Flags: W
LayerCount: 2
Fore
SplineSet
608 840 m 1,0,1
 612 1028 612 1028 612 1236 c 128,-1,2
 612 1444 612 1444 603 1687 c 1,3,4
 406 1687 406 1687 313 1495 c 0,5,6
 258 1382 258 1382 258 1257 c 0,7,8
 258 929 258 929 498 855 c 0,9,10
 547 840 547 840 608 840 c 1,0,1
715 1728 m 1,11,12
 708 1357 708 1357 708 914 c 2,13,-1
 708 -41 l 2,14,15
 708 -284 708 -284 569 -338 c 0,16,17
 528 -354 528 -354 491.5 -354 c 128,-1,18
 455 -354 455 -354 423 -343.5 c 128,-1,19
 391 -333 391 -333 364 -314 c 0,20,21
 301 -268 301 -268 301 -209 c 0,22,23
 301 -189 301 -189 314.5 -176.5 c 128,-1,24
 328 -164 328 -164 343 -164 c 0,25,26
 379 -164 379 -164 390 -184 c 128,-1,27
 401 -204 401 -204 408 -218 c 128,-1,28
 415 -232 415 -232 426 -244 c 0,29,30
 452 -271 452 -271 501 -271 c 0,31,32
 599 -271 599 -271 609 -25 c 0,33,34
 614 112 614 112 614 201 c 2,35,-1
 614 358 l 1,36,-1
 613 751 l 1,37,38
 391 755 391 755 272 910 c 0,39,40
 165 1049 165 1049 165 1264 c 0,41,42
 165 1474 165 1474 281 1618 c 1,43,44
 410 1780 410 1780 622 1780 c 1,45,-1
 891 1773 l 1,46,47
 999 1773 999 1773 1058 1777 c 0,48,49
 1151 1783 1151 1783 1151 1733 c 0,50,51
 1151 1717 1151 1717 1135.5 1703 c 128,-1,52
 1120 1689 1120 1689 1095 1690.5 c 128,-1,53
 1070 1692 1070 1692 1048.5 1692.5 c 128,-1,54
 1027 1693 1027 1693 1004.5 1693.5 c 128,-1,55
 982 1694 982 1694 961 1694 c 2,56,-1
 922 1694 l 1,57,-1
 953 1733 l 1,58,59
 947 1577 947 1577 947 1166 c 2,60,-1
 947 183 l 2,61,62
 947 -80 947 -80 952 -290 c 0,63,64
 953 -325 953 -325 935.5 -341.5 c 128,-1,65
 918 -358 918 -358 895 -358 c 256,66,67
 872 -358 872 -358 856.5 -342.5 c 128,-1,68
 841 -327 841 -327 843 -271.5 c 128,-1,69
 845 -216 845 -216 848.5 -114.5 c 128,-1,70
 852 -13 852 -13 855 114 c 0,71,72
 861 366 861 366 861 624 c 128,-1,73
 861 882 861 882 860.5 1032.5 c 128,-1,74
 860 1183 860 1183 858 1316 c 0,75,76
 854 1612 854 1612 843 1726 c 1,77,-1
 877 1694 l 1,78,-1
 661 1690 l 1,79,-1
 715 1728 l 1,11,12
EndSplineSet
EndChar

StartChar: cedilla
Encoding: 184 184 141
Width: 494
Flags: W
LayerCount: 2
Fore
SplineSet
313 -365.5 m 128,-1,1
 326 -345 326 -345 326 -314.5 c 128,-1,2
 326 -284 326 -284 310.5 -260.5 c 128,-1,3
 295 -237 295 -237 271.5 -237 c 128,-1,4
 248 -237 248 -237 234.5 -242.5 c 128,-1,5
 221 -248 221 -248 209 -255 c 0,6,7
 178 -273 178 -273 154 -273 c 128,-1,8
 130 -273 130 -273 111 -260.5 c 128,-1,9
 92 -248 92 -248 92 -227 c 128,-1,10
 92 -206 92 -206 98.5 -185.5 c 128,-1,11
 105 -165 105 -165 116.5 -135.5 c 128,-1,12
 128 -106 128 -106 144.5 -65.5 c 128,-1,13
 161 -25 161 -25 181 31 c 1,14,-1
 250 36 l 1,15,16
 250 12 250 12 228 -50 c 2,17,-1
 195 -146 l 2,18,19
 183 -181 183 -181 178 -206 c 1,20,-1
 166 -200 l 1,21,22
 198 -177 198 -177 233.5 -169 c 128,-1,23
 269 -161 269 -161 287 -162 c 128,-1,24
 305 -163 305 -163 325.5 -171.5 c 128,-1,25
 346 -180 346 -180 362 -198 c 0,26,27
 400 -239 400 -239 398.5 -298.5 c 128,-1,28
 397 -358 397 -358 378 -398.5 c 128,-1,29
 359 -439 359 -439 329 -471 c 0,30,31
 262 -543 262 -543 190 -543 c 0,32,33
 167 -543 167 -543 154 -529 c 128,-1,34
 141 -515 141 -515 141 -498.5 c 128,-1,35
 141 -482 141 -482 154 -463.5 c 128,-1,36
 167 -445 167 -445 190.5 -441.5 c 128,-1,37
 214 -438 214 -438 237.5 -428 c 128,-1,38
 261 -418 261 -418 280.5 -402 c 128,-1,0
 300 -386 300 -386 313 -365.5 c 128,-1,1
EndSplineSet
EndChar

StartChar: onesuperior
Encoding: 185 185 142
Width: 524
Flags: W
LayerCount: 2
Fore
SplineSet
305 1766 m 0,0,1
 346 1766 346 1766 344 1708.5 c 128,-1,2
 342 1651 342 1651 340 1577.5 c 128,-1,3
 338 1504 338 1504 337 1418 c 128,-1,4
 336 1332 336 1332 335.5 1239 c 128,-1,5
 335 1146 335 1146 335 1058 c 0,6,7
 335 849 335 849 338 792 c 128,-1,8
 341 735 341 735 336 722.5 c 128,-1,9
 331 710 331 710 323 702 c 0,10,11
 307 684 307 684 286 684 c 128,-1,12
 265 684 265 684 249.5 699 c 128,-1,13
 234 714 234 714 236.5 748.5 c 128,-1,14
 239 783 239 783 241.5 830 c 128,-1,15
 244 877 244 877 246 930 c 0,16,17
 251 1061 251 1061 251 1132.5 c 128,-1,18
 251 1204 251 1204 252.5 1276 c 128,-1,19
 254 1348 254 1348 256 1419 c 0,20,21
 259 1585 259 1585 259 1666 c 1,22,-1
 280 1661 l 1,23,24
 278 1659 278 1659 268 1644.5 c 128,-1,25
 258 1630 258 1630 244 1612 c 1,26,27
 209 1562 209 1562 186.5 1537.5 c 128,-1,28
 164 1513 164 1513 140.5 1513 c 128,-1,29
 117 1513 117 1513 102.5 1530.5 c 128,-1,30
 88 1548 88 1548 88 1572.5 c 128,-1,31
 88 1597 88 1597 115 1621 c 128,-1,32
 142 1645 142 1645 160.5 1661 c 128,-1,33
 179 1677 179 1677 192 1688.5 c 128,-1,34
 205 1700 205 1700 216.5 1711 c 128,-1,35
 228 1722 228 1722 244 1738 c 0,36,37
 273 1766 273 1766 305 1766 c 0,0,1
EndSplineSet
EndChar

StartChar: ordmasculine
Encoding: 186 186 143
Width: 757
Flags: W
LayerCount: 2
Fore
SplineSet
480 1023 m 128,-1,1
 430 998 430 998 373.5 997 c 128,-1,2
 317 996 317 996 269 1018.5 c 128,-1,3
 221 1041 221 1041 186 1090 c 0,4,5
 113 1193 113 1193 113 1396 c 0,6,7
 113 1578 113 1578 192 1680 c 1,8,9
 268 1776 268 1776 400 1776 c 0,10,11
 576 1776 576 1776 630 1572 c 0,12,13
 649 1502 649 1502 649 1402.5 c 128,-1,14
 649 1303 649 1303 627 1226 c 128,-1,15
 605 1149 605 1149 567.5 1098.5 c 128,-1,0
 530 1048 530 1048 480 1023 c 128,-1,1
464 1673.5 m 128,-1,17
 433 1695 433 1695 388.5 1695 c 128,-1,18
 344 1695 344 1695 309 1671.5 c 128,-1,19
 274 1648 274 1648 251 1606 c 0,20,21
 205 1520 205 1520 205 1372 c 0,22,23
 205 1145 205 1145 302 1098 c 0,24,25
 334 1082 334 1082 378.5 1082 c 128,-1,26
 423 1082 423 1082 457 1108 c 128,-1,27
 491 1134 491 1134 514 1178 c 0,28,29
 557 1263 557 1263 557 1363.5 c 128,-1,30
 557 1464 557 1464 546.5 1519 c 128,-1,31
 536 1574 536 1574 515.5 1613 c 128,-1,16
 495 1652 495 1652 464 1673.5 c 128,-1,17
EndSplineSet
EndChar

StartChar: guillemotright
Encoding: 187 187 144
Width: 934
Flags: W
LayerCount: 2
Fore
SplineSet
275 54 m 0,0,1
 254 4 254 4 220 4 c 0,2,3
 199 4 199 4 182 18 c 128,-1,4
 165 32 165 32 165 55 c 256,5,6
 165 78 165 78 187 102 c 128,-1,7
 209 126 209 126 240.5 166.5 c 128,-1,8
 272 207 272 207 300 249 c 0,9,10
 369 350 369 350 369 377 c 128,-1,11
 369 404 369 404 347.5 442.5 c 128,-1,12
 326 481 326 481 296.5 519.5 c 128,-1,13
 267 558 267 558 235 593 c 128,-1,14
 203 628 203 628 187 646 c 0,15,16
 160 678 160 678 160 702.5 c 128,-1,17
 160 727 160 727 175 743 c 128,-1,18
 190 759 190 759 208 759 c 0,19,20
 247 759 247 759 270 710 c 1,21,22
 285 672 285 672 355 575 c 0,23,24
 440 457 440 457 455 442 c 1,25,26
 484 419 484 419 484 391 c 0,27,28
 484 339 484 339 457.5 320 c 128,-1,29
 431 301 431 301 407 273.5 c 128,-1,30
 383 246 383 246 359 210 c 0,31,32
 308 134 308 134 275 54 c 0,0,1
574 54 m 0,33,34
 553 4 553 4 519 4 c 0,35,36
 499 4 499 4 482 18 c 128,-1,37
 465 32 465 32 465 49 c 0,38,39
 465 79 465 79 487 102.5 c 128,-1,40
 509 126 509 126 540.5 166.5 c 128,-1,41
 572 207 572 207 600 249 c 0,42,43
 668 351 668 351 668 377.5 c 128,-1,44
 668 404 668 404 647 442.5 c 128,-1,45
 626 481 626 481 596 520 c 0,46,47
 561 565 561 565 515.5 615 c 128,-1,48
 470 665 470 665 464.5 678.5 c 128,-1,49
 459 692 459 692 459 709.5 c 128,-1,50
 459 727 459 727 474.5 743 c 128,-1,51
 490 759 490 759 508 759 c 0,52,53
 546 759 546 759 569 710 c 0,54,55
 608 627 608 627 738 462 c 0,56,57
 751 445 751 445 754 442 c 0,58,59
 784 419 784 419 784 391 c 0,60,61
 784 340 784 340 757 320.5 c 128,-1,62
 730 301 730 301 706 273.5 c 128,-1,63
 682 246 682 246 658 210 c 0,64,65
 607 134 607 134 574 54 c 0,33,34
EndSplineSet
EndChar

StartChar: onequarter
Encoding: 188 188 145
Width: 1382
Flags: W
LayerCount: 2
Fore
SplineSet
338 1766 m 0,0,1
 379 1766 379 1766 377 1708.5 c 128,-1,2
 375 1651 375 1651 373 1577.5 c 128,-1,3
 371 1504 371 1504 370 1418 c 128,-1,4
 369 1332 369 1332 368.5 1239 c 128,-1,5
 368 1146 368 1146 368 1058 c 0,6,7
 368 849 368 849 371 792 c 128,-1,8
 374 735 374 735 369 722.5 c 128,-1,9
 364 710 364 710 356 702 c 0,10,11
 340 684 340 684 319 684 c 128,-1,12
 298 684 298 684 282.5 699 c 128,-1,13
 267 714 267 714 269.5 748.5 c 128,-1,14
 272 783 272 783 274.5 830 c 128,-1,15
 277 877 277 877 279 930 c 0,16,17
 284 1061 284 1061 284 1132.5 c 128,-1,18
 284 1204 284 1204 285.5 1276 c 128,-1,19
 287 1348 287 1348 288 1419 c 0,20,21
 292 1585 292 1585 292 1666 c 1,22,-1
 313 1661 l 1,23,24
 311 1659 311 1659 301 1644.5 c 128,-1,25
 291 1630 291 1630 278 1612 c 0,26,27
 242 1562 242 1562 219.5 1537.5 c 128,-1,28
 197 1513 197 1513 173.5 1513 c 128,-1,29
 150 1513 150 1513 135.5 1530.5 c 128,-1,30
 121 1548 121 1548 121 1572.5 c 128,-1,31
 121 1597 121 1597 148 1621 c 128,-1,32
 175 1645 175 1645 193.5 1661 c 128,-1,33
 212 1677 212 1677 225 1688.5 c 128,-1,34
 238 1700 238 1700 249.5 1711 c 128,-1,35
 261 1722 261 1722 277 1738 c 0,36,37
 306 1766 306 1766 338 1766 c 0,0,1
366 223 m 0,38,39
 344 178 344 178 307 183 c 0,40,41
 291 185 291 185 280.5 199.5 c 128,-1,42
 270 214 270 214 273.5 232.5 c 128,-1,43
 277 251 277 251 306 300 c 128,-1,44
 335 349 335 349 394 460 c 128,-1,45
 453 571 453 571 515.5 694.5 c 128,-1,46
 578 818 578 818 640.5 948 c 128,-1,47
 703 1078 703 1078 760 1201 c 0,48,49
 884 1472 884 1472 943 1625 c 1,50,51
 967 1683 967 1683 1014 1674 c 1,52,53
 1030 1672 1030 1672 1040.5 1657.5 c 128,-1,54
 1051 1643 1051 1643 1048 1626 c 0,55,56
 1045 1604 1045 1604 1018 1555.5 c 128,-1,57
 991 1507 991 1507 938.5 1404 c 128,-1,58
 886 1301 886 1301 828.5 1183 c 128,-1,59
 771 1065 771 1065 710 937 c 128,-1,60
 649 809 649 809 589 683 c 0,61,62
 449 389 449 389 366 223 c 0,38,39
1180 1022 m 2,63,-1
 1170 478 l 1,64,-1
 1170 391 l 1,65,-1
 1157 416 l 1,66,67
 1184 416 1184 416 1203 416 c 128,-1,68
 1222 416 1222 416 1240.5 417.5 c 128,-1,69
 1259 419 1259 419 1275.5 404 c 128,-1,70
 1292 389 1292 389 1292 371 c 128,-1,71
 1292 353 1292 353 1277 337.5 c 128,-1,72
 1262 322 1262 322 1245 322 c 128,-1,73
 1228 322 1228 322 1217 322.5 c 128,-1,74
 1206 323 1206 323 1193.5 323.5 c 128,-1,75
 1181 324 1181 324 1170 324.5 c 128,-1,76
 1159 325 1159 325 1156 325 c 1,77,-1
 1170 352 l 1,78,-1
 1169 228 l 1,79,-1
 1176 63 l 1,80,81
 1176 18 1176 18 1138 4 c 0,82,83
 1128 1 1128 1 1118 1 c 0,84,85
 1077 1 1077 1 1077 63 c 1,86,-1
 1084 202 l 1,87,88
 1084 237 1084 237 1086.5 275 c 128,-1,89
 1089 313 1089 313 1087 358 c 1,90,-1
 1098 328 l 1,91,92
 1062 332 1062 332 1007 332 c 1,93,-1
 821 317 l 1,94,95
 786 317 786 317 770 331.5 c 128,-1,96
 754 346 754 346 754 365.5 c 128,-1,97
 754 385 754 385 766.5 407 c 128,-1,98
 779 429 779 429 796.5 466.5 c 128,-1,99
 814 504 814 504 836.5 553.5 c 128,-1,100
 859 603 859 603 885.5 663 c 128,-1,101
 912 723 912 723 941 787 c 0,102,103
 1061 1051 1061 1051 1080.5 1069.5 c 128,-1,104
 1100 1088 1100 1088 1116.5 1087 c 128,-1,105
 1133 1086 1133 1086 1144 1080 c 128,-1,106
 1155 1074 1155 1074 1163 1065 c 0,107,108
 1180 1046 1180 1046 1180 1022 c 2,63,-1
853 407 m 1,109,110
 871 405 871 405 891 405 c 0,111,112
 916 405 916 405 934 405 c 128,-1,113
 952 405 952 405 971.5 406 c 128,-1,114
 991 407 991 407 1012 408 c 0,115,116
 1063 412 1063 412 1089 412 c 1,117,-1
 1082 394 l 1,118,-1
 1090 703 l 2,119,120
 1090 726 1090 726 1091 764.5 c 128,-1,121
 1092 803 1092 803 1093 844 c 128,-1,122
 1094 885 1094 885 1095 914 c 128,-1,123
 1096 943 1096 943 1096 958 c 1,124,125
 1056 852 1056 852 998 723 c 128,-1,126
 940 594 940 594 918 544 c 0,127,128
 865 422 865 422 855 391 c 1,129,-1
 853 407 l 1,109,110
EndSplineSet
EndChar

StartChar: onehalf
Encoding: 189 189 146
Width: 1551
Flags: W
LayerCount: 2
Fore
SplineSet
393 1766 m 0,0,1
 434 1766 434 1766 432 1708.5 c 128,-1,2
 430 1651 430 1651 428 1577.5 c 128,-1,3
 426 1504 426 1504 425 1418 c 128,-1,4
 424 1332 424 1332 423.5 1239 c 128,-1,5
 423 1146 423 1146 423 1058 c 0,6,7
 423 849 423 849 426 792 c 128,-1,8
 429 735 429 735 424 722.5 c 128,-1,9
 419 710 419 710 411 702 c 0,10,11
 395 684 395 684 374 684 c 128,-1,12
 353 684 353 684 337.5 699 c 128,-1,13
 322 714 322 714 324.5 748.5 c 128,-1,14
 327 783 327 783 329.5 830 c 128,-1,15
 332 877 332 877 334 930 c 0,16,17
 339 1061 339 1061 339 1132.5 c 128,-1,18
 339 1204 339 1204 340.5 1276 c 128,-1,19
 342 1348 342 1348 344 1419 c 0,20,21
 347 1585 347 1585 347 1666 c 1,22,-1
 368 1661 l 1,23,24
 366 1659 366 1659 356 1644.5 c 128,-1,25
 346 1630 346 1630 332 1612 c 1,26,27
 297 1562 297 1562 274.5 1537.5 c 128,-1,28
 252 1513 252 1513 228.5 1513 c 128,-1,29
 205 1513 205 1513 190.5 1530.5 c 128,-1,30
 176 1548 176 1548 176 1572.5 c 128,-1,31
 176 1597 176 1597 203 1621 c 128,-1,32
 230 1645 230 1645 248.5 1661 c 128,-1,33
 267 1677 267 1677 280 1688.5 c 128,-1,34
 293 1700 293 1700 304.5 1711 c 128,-1,35
 316 1722 316 1722 332 1738 c 0,36,37
 361 1766 361 1766 393 1766 c 0,0,1
405 223 m 0,38,39
 383 178 383 178 346 183 c 0,40,41
 330 185 330 185 319.5 199.5 c 128,-1,42
 309 214 309 214 312.5 232.5 c 128,-1,43
 316 251 316 251 345 300 c 128,-1,44
 374 349 374 349 433 460 c 128,-1,45
 492 571 492 571 554.5 694.5 c 128,-1,46
 617 818 617 818 679.5 948 c 128,-1,47
 742 1078 742 1078 798 1201 c 0,48,49
 923 1472 923 1472 982 1625 c 1,50,51
 1006 1683 1006 1683 1053 1674 c 1,52,53
 1069 1672 1069 1672 1079.5 1657.5 c 128,-1,54
 1090 1643 1090 1643 1088 1626 c 1,55,56
 1084 1604 1084 1604 1057 1555.5 c 128,-1,57
 1030 1507 1030 1507 977.5 1404 c 128,-1,58
 925 1301 925 1301 867.5 1183 c 128,-1,59
 810 1065 810 1065 749 937 c 128,-1,60
 688 809 688 809 628 683 c 0,61,62
 488 389 488 389 405 223 c 0,38,39
1115 1080 m 0,63,64
 1335 1080 1335 1080 1335 795 c 0,65,66
 1335 653 1335 653 1156 428 c 0,67,68
 1046 289 1046 289 1012 226.5 c 128,-1,69
 978 164 978 164 978 130 c 128,-1,70
 978 96 978 96 986.5 86.5 c 128,-1,71
 995 77 995 77 1018.5 81 c 128,-1,72
 1042 85 1042 85 1067.5 89.5 c 128,-1,73
 1093 94 1093 94 1118 98 c 0,74,75
 1188 107 1188 107 1210 107 c 0,76,77
 1305 107 1305 107 1322.5 87.5 c 128,-1,78
 1340 68 1340 68 1340 49.5 c 128,-1,79
 1340 31 1340 31 1326.5 16.5 c 128,-1,80
 1313 2 1313 2 1285 2 c 2,81,-1
 1112 5 l 1,82,83
 1006 5 1006 5 961 -2 c 0,84,85
 874 -16 874 -16 874 55.5 c 128,-1,86
 874 127 874 127 901.5 192 c 128,-1,87
 929 257 929 257 970 318.5 c 128,-1,88
 1011 380 1011 380 1059.5 438.5 c 128,-1,89
 1108 497 1108 497 1149 555 c 0,90,91
 1245 691 1245 691 1245 788 c 0,92,93
 1245 996 1245 996 1121 996 c 0,94,95
 1055 996 1055 996 1019 937 c 128,-1,96
 983 878 983 878 983 766 c 0,97,98
 983 710 983 710 935.5 710 c 128,-1,99
 888 710 888 710 888 781 c 128,-1,100
 888 852 888 852 906.5 909 c 128,-1,101
 925 966 925 966 956 1004 c 0,102,103
 1020 1080 1020 1080 1115 1080 c 0,63,64
EndSplineSet
EndChar

StartChar: threequarters
Encoding: 190 190 147
Width: 1519
Flags: W
LayerCount: 2
Fore
SplineSet
1329 1022 m 2,0,-1
 1318 478 l 1,1,-1
 1318 391 l 1,2,-1
 1305 416 l 1,3,4
 1332 416 1332 416 1351.5 416 c 128,-1,5
 1371 416 1371 416 1389.5 417.5 c 128,-1,6
 1408 419 1408 419 1424.5 404 c 128,-1,7
 1441 389 1441 389 1441 371 c 128,-1,8
 1441 353 1441 353 1426 337.5 c 128,-1,9
 1411 322 1411 322 1394 322 c 128,-1,10
 1377 322 1377 322 1365.5 322.5 c 128,-1,11
 1354 323 1354 323 1341.5 323.5 c 128,-1,12
 1329 324 1329 324 1318 324.5 c 128,-1,13
 1307 325 1307 325 1304 325 c 1,14,-1
 1319 352 l 1,15,16
 1317 282 1317 282 1317 228 c 1,17,-1
 1325 63 l 1,18,19
 1325 29 1325 29 1305.5 15 c 128,-1,20
 1286 1 1286 1 1266 1 c 0,21,22
 1226 1 1226 1 1226 63 c 1,23,-1
 1233 202 l 1,24,25
 1233 237 1233 237 1235.5 275 c 128,-1,26
 1238 313 1238 313 1236 358 c 1,27,-1
 1247 328 l 1,28,29
 1211 332 1211 332 1155 332 c 1,30,-1
 969 317 l 1,31,32
 934 317 934 317 918.5 331.5 c 128,-1,33
 903 346 903 346 903 366.5 c 128,-1,34
 903 387 903 387 915 408 c 128,-1,35
 927 429 927 429 944.5 466.5 c 128,-1,36
 962 504 962 504 984.5 553.5 c 128,-1,37
 1007 603 1007 603 1034 663 c 128,-1,38
 1061 723 1061 723 1090 787 c 0,39,40
 1147 913 1147 913 1210 1043 c 1,41,42
 1244 1106 1244 1106 1292 1080 c 0,43,44
 1329 1060 1329 1060 1329 1022 c 2,0,-1
1231 394 m 1,45,-1
 1239 703 l 2,46,47
 1239 726 1239 726 1240 764.5 c 128,-1,48
 1241 803 1241 803 1242 844 c 128,-1,49
 1243 885 1243 885 1244 914 c 128,-1,50
 1245 943 1245 943 1245 958 c 1,51,52
 1205 852 1205 852 1147 723 c 128,-1,53
 1089 594 1089 594 1068 544 c 1,54,55
 1014 422 1014 422 1004 391 c 1,56,-1
 1002 407 l 1,57,58
 1019 405 1019 405 1046 405 c 2,59,-1
 1091 405 l 2,60,61
 1110 405 1110 405 1146 408 c 0,62,63
 1211 412 1211 412 1238 412 c 1,64,-1
 1231 394 l 1,45,-1
558 223 m 0,65,66
 535 178 535 178 499 183 c 0,67,68
 482 185 482 185 472 200 c 0,69,70
 453 228 453 228 476 264 c 1,71,72
 668 591 668 591 951 1201 c 0,73,74
 1073 1465 1073 1465 1135 1625 c 1,75,76
 1159 1683 1159 1683 1205 1674 c 1,77,78
 1222 1672 1222 1672 1232.5 1657.5 c 128,-1,79
 1243 1643 1243 1643 1240 1626 c 0,80,81
 1237 1604 1237 1604 1210 1555.5 c 128,-1,82
 1183 1507 1183 1507 1130.5 1404 c 128,-1,83
 1078 1301 1078 1301 1020 1183 c 128,-1,84
 962 1065 962 1065 901.5 937 c 128,-1,85
 841 809 841 809 781 683 c 0,86,87
 641 389 641 389 558 223 c 0,65,66
342 1217 m 1,88,89
 408 1242 408 1242 460 1335 c 1,90,91
 507 1422 507 1422 507 1507 c 128,-1,92
 507 1592 507 1592 470.5 1643.5 c 128,-1,93
 434 1695 434 1695 367 1695 c 128,-1,94
 300 1695 300 1695 264.5 1646.5 c 128,-1,95
 229 1598 229 1598 229 1510 c 0,96,97
 229 1479 229 1479 213 1465.5 c 128,-1,98
 197 1452 197 1452 178.5 1452 c 128,-1,99
 160 1452 160 1452 143 1470 c 128,-1,100
 126 1488 126 1488 126 1537 c 128,-1,101
 126 1586 126 1586 146.5 1634.5 c 128,-1,102
 167 1683 167 1683 200 1716 c 0,103,104
 267 1781 267 1781 342 1781 c 128,-1,105
 417 1781 417 1781 461.5 1762 c 128,-1,106
 506 1743 506 1743 536 1708 c 1,107,108
 594 1637 594 1637 594 1510 c 0,109,110
 594 1421 594 1421 543 1319 c 0,111,112
 479 1192 479 1192 360 1151 c 1,113,-1
 362 1174 l 1,114,115
 456 1181 456 1181 524 1124 c 1,116,117
 603 1060 603 1060 603 944 c 0,118,119
 603 825 603 825 532 750 c 256,120,121
 461 675 461 675 356 675 c 0,122,123
 248 675 248 675 184 740 c 0,124,125
 123 803 123 803 129 892 c 0,126,127
 131 923 131 923 147.5 939 c 128,-1,128
 164 955 164 955 184.5 955 c 128,-1,129
 205 955 205 955 220.5 938.5 c 128,-1,130
 236 922 236 922 233 891.5 c 128,-1,131
 230 861 230 861 238.5 837 c 128,-1,132
 247 813 247 813 264 795 c 0,133,134
 303 755 303 755 353 755 c 128,-1,135
 403 755 403 755 433 771 c 128,-1,136
 463 787 463 787 482 814 c 0,137,138
 517 864 517 864 517 944 c 0,139,140
 517 1019 517 1019 464 1062 c 0,141,142
 408 1107 408 1107 321 1091 c 0,143,144
 294 1086 294 1086 280 1099 c 0,145,146
 258 1121 258 1121 258 1144.5 c 128,-1,147
 258 1168 258 1168 277.5 1188.5 c 128,-1,148
 297 1209 297 1209 342 1217 c 1,88,89
EndSplineSet
EndChar

StartChar: AE
Encoding: 198 198 155
Width: 1265
Flags: W
LayerCount: 2
Fore
SplineSet
694 509 m 1,0,1
 505 518 505 518 450.5 518 c 128,-1,2
 396 518 396 518 375 517.5 c 128,-1,3
 354 517 354 517 333 516 c 0,4,5
 286 514 286 514 261 508 c 1,6,-1
 289 535 l 1,7,8
 242 403 242 403 203 302 c 128,-1,9
 164 201 164 201 148 160 c 0,10,11
 110 56 110 56 103 35 c 0,12,13
 90 -7 90 -7 48 -7 c 0,14,15
 22 -7 22 -7 10 10 c 0,16,17
 -12 40 -12 40 5 74 c 128,-1,18
 22 108 22 108 51 176 c 128,-1,19
 80 244 80 244 117 335 c 128,-1,20
 154 426 154 426 196 534.5 c 128,-1,21
 238 643 238 643 282.5 757.5 c 128,-1,22
 327 872 327 872 371 987.5 c 128,-1,23
 415 1103 415 1103 455 1209 c 0,24,25
 532 1414 532 1414 589 1559 c 1,26,27
 613 1623 613 1623 674 1623 c 1,28,-1
 856 1617 l 1,29,30
 988 1617 988 1617 1034 1623.5 c 128,-1,31
 1080 1630 1080 1630 1100 1611.5 c 128,-1,32
 1120 1593 1120 1593 1120 1571.5 c 128,-1,33
 1120 1550 1120 1550 1102 1534.5 c 128,-1,34
 1084 1519 1084 1519 1052.5 1520.5 c 128,-1,35
 1021 1522 1021 1522 986 1524.5 c 128,-1,36
 951 1527 951 1527 911 1528 c 0,37,38
 816 1532 816 1532 747 1525 c 1,39,-1
 765 1560 l 1,40,-1
 765 1365 l 2,41,42
 765 1261 765 1261 764 1151 c 0,43,44
 763 821 763 821 763 710 c 1,45,-1
 747 739 l 1,46,47
 880 739 880 739 944 745.5 c 128,-1,48
 1008 752 1008 752 1024 739 c 128,-1,49
 1040 726 1040 726 1040 704 c 0,50,51
 1040 649 1040 649 936 652 c 0,52,53
 916 652 916 652 899 652 c 2,54,-1
 820 653 l 2,55,56
 780 653 780 653 740 653 c 1,57,-1
 763 686 l 1,58,-1
 762 302 l 1,59,-1
 762 63 l 1,60,-1
 735 86 l 1,61,62
 1010 86 1010 86 1096.5 94.5 c 128,-1,63
 1183 103 1183 103 1197 99 c 128,-1,64
 1211 95 1211 95 1220 86 c 0,65,66
 1241 68 1241 68 1241 46.5 c 128,-1,67
 1241 25 1241 25 1222.5 9.5 c 128,-1,68
 1204 -6 1204 -6 1170 -4 c 0,69,70
 1002 9 1002 9 877.5 0.5 c 128,-1,71
 753 -8 753 -8 730.5 -11 c 128,-1,72
 708 -14 708 -14 688 -0.5 c 128,-1,73
 668 13 668 13 670.5 53.5 c 128,-1,74
 673 94 673 94 673 150.5 c 128,-1,75
 673 207 673 207 672 271 c 0,76,77
 671 469 671 469 672 540 c 1,78,-1
 694 509 l 1,0,1
681 1261 m 1,79,80
 681 1382 681 1382 675 1532 c 1,81,-1
 682 1532 l 1,82,83
 658 1502 658 1502 586.5 1320 c 128,-1,84
 515 1138 515 1138 482 1053.5 c 128,-1,85
 449 969 449 969 418 887 c 128,-1,86
 387 805 387 805 362 738 c 128,-1,87
 337 671 337 671 320 625.5 c 128,-1,88
 303 580 303 580 299 568 c 1,89,-1
 278 593 l 1,90,-1
 681 593 l 1,91,-1
 667 569 l 1,92,-1
 681 1261 l 1,79,80
EndSplineSet
EndChar

StartChar: Eth
Encoding: 208 208 165
Width: 1032
Flags: W
LayerCount: 2
Fore
SplineSet
55.5 928.5 m 128,-1,1
 72 946 72 946 116 940.5 c 128,-1,2
 160 935 160 935 257 935 c 128,-1,3
 354 935 354 935 404 940 c 128,-1,4
 454 945 454 945 470.5 927.5 c 128,-1,5
 487 910 487 910 487 889.5 c 128,-1,6
 487 869 487 869 471.5 852.5 c 128,-1,7
 456 836 456 836 426 838 c 0,8,9
 334 844 334 844 269 844 c 0,10,11
 162 844 162 844 125 840 c 128,-1,12
 88 836 88 836 76 839.5 c 128,-1,13
 64 843 64 843 56 850 c 0,14,15
 39 865 39 865 39 888 c 128,-1,0
 39 911 39 911 55.5 928.5 c 128,-1,1
862 1242 m 0,16,17
 894 1120 894 1120 894 972.5 c 128,-1,18
 894 825 894 825 869 698.5 c 128,-1,19
 844 572 844 572 799 464.5 c 128,-1,20
 754 357 754 357 691.5 270.5 c 128,-1,21
 629 184 629 184 553 123 c 0,22,23
 396 -3 396 -3 212 -3 c 0,24,25
 183 -3 183 -3 174.5 15.5 c 128,-1,26
 166 34 166 34 166 60 c 2,27,-1
 166 146 l 2,28,29
 166 208 166 208 165.5 296.5 c 128,-1,30
 165 385 165 385 164.5 493.5 c 128,-1,31
 164 602 164 602 162.5 718.5 c 128,-1,32
 161 835 161 835 159.5 953.5 c 128,-1,33
 158 1072 158 1072 156 1180 c 0,34,35
 150 1404 150 1404 142 1533 c 0,36,37
 137 1601 137 1601 202 1609 c 1,38,39
 298 1623 298 1623 360 1623 c 0,40,41
 762 1623 762 1623 862 1242 c 0,16,17
262 1554 m 1,42,43
 251 1450 251 1450 251 1227 c 128,-1,44
 251 1004 251 1004 252 886 c 128,-1,45
 253 768 253 768 254.5 655 c 128,-1,46
 256 542 256 542 257.5 438.5 c 128,-1,47
 259 335 259 335 261 253 c 0,48,49
 265 98 265 98 268 43 c 1,50,-1
 234 92 l 1,51,52
 363 82 363 82 491 188 c 0,53,54
 699 361 699 361 769 704 c 0,55,56
 793 822 793 822 793 971.5 c 128,-1,57
 793 1121 793 1121 756.5 1231.5 c 128,-1,58
 720 1342 720 1342 662 1408 c 0,59,60
 553 1532 553 1532 381 1532 c 0,61,62
 277 1532 277 1532 226 1502 c 1,63,-1
 262 1554 l 1,42,43
EndSplineSet
EndChar

StartChar: multiply
Encoding: 215 215 172
Width: 749
Flags: W
LayerCount: 2
Fore
SplineSet
614 685.5 m 128,-1,1
 629 670 629 670 629 646 c 128,-1,2
 629 622 629 622 606 602 c 128,-1,3
 583 582 583 582 557.5 559.5 c 128,-1,4
 532 537 532 537 507 514 c 0,5,6
 442 456 442 456 419 433 c 1,7,-1
 422 458 l 1,8,9
 485 395 485 395 552 337.5 c 128,-1,10
 619 280 619 280 624 268 c 128,-1,11
 629 256 629 256 629 240 c 128,-1,12
 629 224 629 224 614 208 c 128,-1,13
 599 192 599 192 577 192 c 128,-1,14
 555 192 555 192 534.5 214.5 c 128,-1,15
 514 237 514 237 491 263.5 c 128,-1,16
 468 290 468 290 444 317 c 0,17,18
 396 373 396 373 362 409 c 1,19,-1
 398 412 l 1,20,21
 335 346 335 346 285.5 289.5 c 128,-1,22
 236 233 236 233 223 218 c 0,23,24
 202 192 202 192 178 192 c 128,-1,25
 154 192 154 192 137.5 207 c 128,-1,26
 121 222 121 222 121 244.5 c 128,-1,27
 121 267 121 267 146 289 c 128,-1,28
 171 311 171 311 197.5 334 c 128,-1,29
 224 357 224 357 250 380 c 0,30,31
 298 423 298 423 339 461 c 1,32,-1
 336 436 l 1,33,34
 259 513 259 513 195 564 c 128,-1,35
 131 615 131 615 125.5 626.5 c 128,-1,36
 120 638 120 638 120 653.5 c 128,-1,37
 120 669 120 669 135.5 684.5 c 128,-1,38
 151 700 151 700 174 700 c 128,-1,39
 197 700 197 700 217 678 c 128,-1,40
 237 656 237 656 260 630.5 c 128,-1,41
 283 605 283 605 306 578 c 1,42,43
 353 526 353 526 389 490 c 1,44,-1
 367 488 l 1,45,46
 440 561 440 561 535 677 c 0,47,48
 555 701 555 701 577 701 c 128,-1,0
 599 701 599 701 614 685.5 c 128,-1,1
EndSplineSet
EndChar

StartChar: Oslash
Encoding: 216 216 173
Width: 1027
Flags: W
LayerCount: 2
Fore
SplineSet
348.5 81.5 m 128,-1,1
 318 -24 318 -24 301.5 -76.5 c 128,-1,2
 285 -129 285 -129 271 -140.5 c 128,-1,3
 257 -152 257 -152 241.5 -152 c 128,-1,4
 226 -152 226 -152 213.5 -139 c 128,-1,5
 201 -126 201 -126 201 -108 c 128,-1,6
 201 -90 201 -90 216 -48 c 128,-1,7
 231 -6 231 -6 262.5 93.5 c 128,-1,8
 294 193 294 193 330 312 c 128,-1,9
 366 431 366 431 405 563.5 c 128,-1,10
 444 696 444 696 483 831 c 128,-1,11
 522 966 522 966 559.5 1098 c 128,-1,12
 597 1230 597 1230 630 1347 c 128,-1,13
 663 1464 663 1464 689.5 1561 c 128,-1,14
 716 1658 716 1658 733 1720.5 c 128,-1,15
 750 1783 750 1783 786 1783 c 0,16,17
 803 1783 803 1783 817.5 1770.5 c 128,-1,18
 832 1758 832 1758 832 1737 c 128,-1,19
 832 1716 832 1716 817 1674.5 c 128,-1,20
 802 1633 802 1633 772.5 1541 c 128,-1,21
 743 1449 743 1449 709 1335.5 c 128,-1,22
 675 1222 675 1222 637.5 1093.5 c 128,-1,23
 600 965 600 965 562 831.5 c 128,-1,24
 524 698 524 698 486.5 565 c 128,-1,25
 449 432 449 432 414 309.5 c 128,-1,0
 379 187 379 187 348.5 81.5 c 128,-1,1
629 1513.5 m 128,-1,27
 582 1543 582 1543 525 1543 c 128,-1,28
 468 1543 468 1543 422 1513.5 c 128,-1,29
 376 1484 376 1484 338.5 1432 c 128,-1,30
 301 1380 301 1380 272.5 1309.5 c 128,-1,31
 244 1239 244 1239 224 1158 c 0,32,33
 185 992 185 992 185 826.5 c 128,-1,34
 185 661 185 661 197.5 549 c 128,-1,35
 210 437 210 437 232 355.5 c 128,-1,36
 254 274 254 274 284.5 219.5 c 128,-1,37
 315 165 315 165 350 132 c 0,38,39
 415 73 415 73 505 73 c 0,40,41
 771 73 771 73 828 562 c 0,42,43
 841 674 841 674 841 790 c 128,-1,44
 841 906 841 906 834 993 c 128,-1,45
 827 1080 827 1080 811.5 1160.5 c 128,-1,46
 796 1241 796 1241 771.5 1311 c 128,-1,47
 747 1381 747 1381 711.5 1432.5 c 128,-1,26
 676 1484 676 1484 629 1513.5 c 128,-1,27
495 -23 m 128,-1,49
 286 -23 286 -23 187.5 193 c 128,-1,50
 89 409 89 409 89 831 c 0,51,52
 89 1164 89 1164 202 1390 c 0,53,54
 258 1500 258 1500 338 1565.5 c 128,-1,55
 418 1631 418 1631 522.5 1631 c 128,-1,56
 627 1631 627 1631 705 1576.5 c 128,-1,57
 783 1522 783 1522 834 1419 c 0,58,59
 934 1217 934 1217 936 831 c 0,60,61
 938 425 938 425 820 199 c 0,62,48
 704 -23 704 -23 495 -23 c 128,-1,49
EndSplineSet
EndChar

StartChar: Thorn
Encoding: 222 222 179
Width: 924
Flags: W
LayerCount: 2
Fore
SplineSet
173 65 m 2,0,-1
 180 563 l 1,1,2
 180 677 180 677 177 845 c 128,-1,3
 174 1013 174 1013 172.5 1098 c 128,-1,4
 171 1183 171 1183 169.5 1265 c 128,-1,5
 168 1347 168 1347 166 1414 c 0,6,7
 161 1570 161 1570 159.5 1590 c 128,-1,8
 158 1610 158 1610 163 1622 c 128,-1,9
 168 1634 168 1634 177 1642 c 0,10,11
 196 1657 196 1657 219 1657 c 0,12,13
 273 1657 273 1657 271 1594 c 0,14,15
 270 1561 270 1561 269.5 1528.5 c 128,-1,16
 269 1496 269 1496 268 1456 c 0,17,18
 266 1368 266 1368 264 1245 c 1,19,-1
 223 1260 l 1,20,21
 359 1364 359 1364 482 1364 c 0,22,23
 740 1364 740 1364 816 1148 c 0,24,25
 842 1074 842 1074 842 965 c 128,-1,26
 842 856 842 856 788.5 750 c 128,-1,27
 735 644 735 644 648 554 c 0,28,29
 483 382 483 382 234 265 c 1,30,-1
 233 363 l 1,31,32
 421 451 421 451 563 586 c 0,33,34
 750 765 750 765 750 964 c 0,35,36
 750 1193 750 1193 590 1255 c 0,37,38
 447 1311 447 1311 300 1216 c 0,39,40
 265 1194 265 1194 241 1160 c 1,41,-1
 269 1211 l 1,42,43
 263 1066 263 1066 263 723 c 1,44,-1
 261 530 l 1,45,46
 261 347 261 347 276 70 c 0,47,48
 277 36 277 36 259 19.5 c 128,-1,49
 241 3 241 3 220.5 3 c 128,-1,50
 200 3 200 3 186.5 18.5 c 128,-1,51
 173 34 173 34 173 65 c 2,0,-1
EndSplineSet
EndChar

StartChar: germandbls
Encoding: 223 223 180
Width: 922
Flags: W
LayerCount: 2
Fore
SplineSet
459 209 m 1,0,-1
 456 173 l 1,1,2
 456 124 456 124 497 83 c 0,3,4
 536 44 536 44 578 44 c 128,-1,5
 620 44 620 44 650 59 c 128,-1,6
 680 74 680 74 702 104 c 0,7,8
 749 170 749 170 749 262 c 128,-1,9
 749 354 749 354 732.5 404.5 c 128,-1,10
 716 455 716 455 689 496.5 c 128,-1,11
 662 538 662 538 627.5 572 c 128,-1,12
 593 606 593 606 557.5 638 c 128,-1,13
 522 670 522 670 487.5 703.5 c 128,-1,14
 453 737 453 737 426 776 c 0,15,16
 366 863 366 863 366 974 c 256,17,18
 366 1085 366 1085 477 1201.5 c 128,-1,19
 588 1318 588 1318 588 1451 c 0,20,21
 588 1618 588 1618 484 1662 c 0,22,23
 454 1675 454 1675 414.5 1675 c 128,-1,24
 375 1675 375 1675 340 1647.5 c 128,-1,25
 305 1620 305 1620 282 1560 c 0,26,27
 237 1443 237 1443 237 1179 c 1,28,-1
 241 492 l 1,29,30
 241 169 241 169 255 60 c 1,31,-1
 256 41 l 1,32,33
 256 8 256 8 247.5 -8.5 c 128,-1,34
 239 -25 239 -25 211 -25 c 0,35,36
 154 -25 154 -25 154 44 c 2,37,-1
 156 183 l 1,38,-1
 150 1209 l 1,39,40
 150 1495 150 1495 220 1629 c 128,-1,41
 290 1763 290 1763 437 1763 c 0,42,43
 531 1763 531 1763 598 1696 c 0,44,45
 681 1613 681 1613 681 1449 c 0,46,47
 681 1305 681 1305 568 1180 c 0,48,49
 494 1099 494 1099 474.5 1059 c 128,-1,50
 455 1019 455 1019 455 964.5 c 128,-1,51
 455 910 455 910 483.5 859 c 128,-1,52
 512 808 512 808 555 763.5 c 128,-1,53
 598 719 598 719 648.5 675.5 c 128,-1,54
 699 632 699 632 742 579 c 0,55,56
 842 456 842 456 842 301 c 0,57,58
 842 151 842 151 770 56 c 0,59,60
 697 -42 697 -42 577 -42 c 0,61,62
 480 -42 480 -42 416 24 c 0,63,64
 357 85 357 85 357 169 c 0,65,66
 357 216 357 216 373 239 c 128,-1,67
 389 262 389 262 409.5 262 c 128,-1,68
 430 262 430 262 444.5 248 c 128,-1,69
 459 234 459 234 459 209 c 1,0,-1
EndSplineSet
EndChar

StartChar: ae
Encoding: 230 230 187
Width: 1071
Flags: W
LayerCount: 2
Fore
SplineSet
572 429 m 1,0,-1
 719 431 l 2,1,2
 753 431 753 431 834.5 435 c 128,-1,3
 916 439 916 439 939 440 c 1,4,-1
 895 411 l 1,5,6
 919 596 919 596 835 664 c 0,7,8
 803 690 803 690 756.5 690 c 128,-1,9
 710 690 710 690 681 674 c 128,-1,10
 652 658 652 658 631.5 631.5 c 128,-1,11
 611 605 611 605 597.5 571.5 c 128,-1,12
 584 538 584 538 576 502 c 0,13,14
 562 439 562 439 562 364.5 c 128,-1,15
 562 290 562 290 577 233.5 c 128,-1,16
 592 177 592 177 618 140 c 0,17,18
 669 64 669 64 746 64 c 0,19,20
 834 64 834 64 872 149 c 1,21,22
 898 202 898 202 926 202 c 0,23,24
 944 202 944 202 953 190 c 0,25,26
 981 155 981 155 934 82 c 0,27,28
 868 -21 868 -21 732 -21 c 0,29,30
 620 -21 620 -21 546 98 c 0,31,32
 524 135 524 135 509 179 c 1,33,-1
 537 192 l 1,34,35
 505 85 505 85 428 28 c 0,36,37
 361 -22 361 -22 296 -22 c 128,-1,38
 231 -22 231 -22 192.5 -8.5 c 128,-1,39
 154 5 154 5 126 30 c 0,40,41
 67 84 67 84 67 160 c 128,-1,42
 67 236 67 236 91.5 286 c 128,-1,43
 116 336 116 336 158 370 c 0,44,45
 243 439 243 439 373 439 c 2,46,-1
 406 439 l 2,47,48
 457 439 457 439 507 434 c 1,49,-1
 480 405 l 1,50,-1
 480 525 l 2,51,52
 480 675 480 675 398 694 c 0,53,54
 373 699 373 699 347.5 699 c 128,-1,55
 322 699 322 699 299.5 691 c 128,-1,56
 277 683 277 683 260 666 c 0,57,58
 219 628 219 628 218 583 c 1,59,60
 218 506 218 506 171 511 c 0,61,62
 151 513 151 513 136.5 529 c 128,-1,63
 122 545 122 545 123 579.5 c 128,-1,64
 124 614 124 614 142.5 650.5 c 128,-1,65
 161 687 161 687 192 716 c 1,66,67
 262 778 262 778 356 778 c 0,68,69
 543 778 543 778 553 602 c 1,70,-1
 531 602 l 1,71,72
 548 673 548 673 608 724 c 0,73,74
 670 778 670 778 736.5 778 c 128,-1,75
 803 778 803 778 842 762.5 c 128,-1,76
 881 747 881 747 907.5 720.5 c 128,-1,77
 934 694 934 694 949.5 658.5 c 128,-1,78
 965 623 965 623 974 584 c 0,79,80
 987 522 987 522 987 452.5 c 128,-1,81
 987 383 987 383 970.5 368.5 c 128,-1,82
 954 354 954 354 921 354 c 2,83,-1
 831 354 l 1,84,-1
 542 359 l 1,85,-1
 542 429 l 1,86,-1
 572 429 l 1,0,-1
504 356 m 1,87,88
 465 369 465 369 412.5 369 c 128,-1,89
 360 369 360 369 317.5 359 c 128,-1,90
 275 349 275 349 241 328 c 0,91,92
 164 279 164 279 164 186 c 0,93,94
 164 128 164 128 195 90.5 c 128,-1,95
 226 53 226 53 278.5 53 c 128,-1,96
 331 53 331 53 364.5 74 c 128,-1,97
 398 95 398 95 422 126 c 0,98,99
 464 181 464 181 478 247 c 1,100,-1
 481 390 l 1,101,-1
 504 356 l 1,87,88
EndSplineSet
EndChar

